G04*
G04 #@! TF.GenerationSoftware,Altium Limited,Altium Designer,21.9.2 (33)*
G04*
G04 Layer_Physical_Order=2*
G04 Layer_Color=36540*
%FSLAX25Y25*%
%MOIN*%
G70*
G04*
G04 #@! TF.SameCoordinates,C6F11EFD-203B-4413-AD8B-19CE97DDEB68*
G04*
G04*
G04 #@! TF.FilePolarity,Positive*
G04*
G01*
G75*
%ADD19C,0.00600*%
%ADD22C,0.01000*%
%ADD23O,0.03150X0.03937*%
%ADD25C,0.02402*%
%ADD26C,0.02362*%
%ADD27C,0.02500*%
G36*
X-20079Y66929D02*
Y61953D01*
X-23790Y58242D01*
X-28083Y62058D01*
X-28098Y62558D01*
X-21903Y68753D01*
X-20079Y66929D01*
D02*
G37*
G36*
X3059Y52795D02*
X2907Y52753D01*
X2510Y52614D01*
X2397Y52565D01*
X2200Y52459D01*
X2115Y52404D01*
X2041Y52347D01*
X1976Y52288D01*
X1430Y52590D01*
X1500Y52668D01*
X1558Y52751D01*
X1605Y52840D01*
X1641Y52934D01*
X1666Y53033D01*
X1679Y53138D01*
X1681Y53248D01*
X1672Y53364D01*
X1652Y53485D01*
X1621Y53611D01*
X3059Y52795D01*
D02*
G37*
G36*
X78504Y51061D02*
X78585Y51003D01*
X78674Y50951D01*
X78771Y50906D01*
X78876Y50869D01*
X78988Y50838D01*
X79108Y50815D01*
X79236Y50799D01*
X79372Y50789D01*
X79516Y50787D01*
X78347Y49618D01*
X78344Y49762D01*
X78335Y49898D01*
X78319Y50025D01*
X78296Y50146D01*
X78265Y50258D01*
X78228Y50363D01*
X78183Y50459D01*
X78131Y50548D01*
X78073Y50630D01*
X78007Y50703D01*
X78431Y51127D01*
X78504Y51061D01*
D02*
G37*
G36*
X5444Y48865D02*
X5292Y48819D01*
X4894Y48673D01*
X4781Y48622D01*
X4585Y48515D01*
X4502Y48460D01*
X4428Y48403D01*
X4364Y48345D01*
X3808Y48638D01*
X3878Y48716D01*
X3937Y48799D01*
X3983Y48888D01*
X4019Y48981D01*
X4042Y49080D01*
X4055Y49184D01*
X4056Y49293D01*
X4045Y49407D01*
X4023Y49527D01*
X3990Y49652D01*
X5444Y48865D01*
D02*
G37*
G36*
X9381Y46503D02*
X9229Y46457D01*
X8831Y46311D01*
X8718Y46260D01*
X8522Y46153D01*
X8439Y46098D01*
X8365Y46041D01*
X8301Y45983D01*
X7746Y46276D01*
X7815Y46354D01*
X7874Y46437D01*
X7920Y46525D01*
X7956Y46619D01*
X7980Y46718D01*
X7992Y46822D01*
X7993Y46931D01*
X7982Y47045D01*
X7960Y47165D01*
X7927Y47289D01*
X9381Y46503D01*
D02*
G37*
G36*
X-42214Y8052D02*
X-42199Y7953D01*
X-42172Y7853D01*
X-42135Y7753D01*
X-42088Y7653D01*
X-42030Y7552D01*
X-41962Y7450D01*
X-41883Y7348D01*
X-41793Y7246D01*
X-41693Y7143D01*
X-43347D01*
X-43246Y7246D01*
X-43157Y7348D01*
X-43078Y7450D01*
X-43009Y7552D01*
X-42951Y7653D01*
X-42904Y7753D01*
X-42867Y7853D01*
X-42841Y7953D01*
X-42825Y8052D01*
X-42820Y8150D01*
X-42220D01*
X-42214Y8052D01*
D02*
G37*
G36*
X-37069Y1022D02*
X-37158Y919D01*
X-37237Y817D01*
X-37306Y716D01*
X-37364Y615D01*
X-37411Y514D01*
X-37448Y415D01*
X-37474Y315D01*
X-37490Y216D01*
X-37495Y117D01*
X-38095D01*
X-38100Y216D01*
X-38116Y315D01*
X-38143Y415D01*
X-38180Y514D01*
X-38227Y615D01*
X-38285Y716D01*
X-38353Y817D01*
X-38432Y919D01*
X-38522Y1022D01*
X-38622Y1125D01*
X-36968D01*
X-37069Y1022D01*
D02*
G37*
G36*
X-43791Y-18863D02*
X-43768Y-19089D01*
X-43747Y-19180D01*
X-43721Y-19258D01*
X-43688Y-19321D01*
X-43650Y-19371D01*
X-43605Y-19406D01*
X-43555Y-19427D01*
X-43499Y-19434D01*
X-44690D01*
X-44634Y-19427D01*
X-44583Y-19406D01*
X-44539Y-19371D01*
X-44501Y-19321D01*
X-44468Y-19258D01*
X-44442Y-19180D01*
X-44421Y-19089D01*
X-44406Y-18983D01*
X-44397Y-18863D01*
X-44394Y-18729D01*
X-43795D01*
X-43791Y-18863D01*
D02*
G37*
G36*
X51181Y37008D02*
Y-14961D01*
X70079Y-33858D01*
Y-40157D01*
X59153Y-51084D01*
X58637Y-50892D01*
X58416Y-50358D01*
X57910Y-49851D01*
X57248Y-49577D01*
X56532D01*
X55870Y-49851D01*
X55363Y-50358D01*
X55089Y-51020D01*
Y-51736D01*
X55363Y-52398D01*
X55870Y-52905D01*
X56403Y-53126D01*
X56596Y-53641D01*
X40758Y-69479D01*
X40591D01*
X39936Y-69750D01*
X39435Y-70251D01*
X39164Y-70906D01*
Y-71072D01*
X28946Y-81290D01*
X28386D01*
X27731Y-81561D01*
X27230Y-82062D01*
X26959Y-82717D01*
Y-83277D01*
X15354Y-94882D01*
X1181D01*
X-2362Y-91339D01*
Y-80315D01*
X2087Y-75866D01*
X2141Y-75919D01*
X2795Y-76191D01*
X3504D01*
X4158Y-75919D01*
X4660Y-75418D01*
X4931Y-74764D01*
Y-74055D01*
X4660Y-73400D01*
X4606Y-73347D01*
X13780Y-64173D01*
Y-51589D01*
X14406Y-51330D01*
X14912Y-50823D01*
X15187Y-50161D01*
Y-49445D01*
X14912Y-48783D01*
X14406Y-48276D01*
X13780Y-48017D01*
Y-46471D01*
X14406Y-46212D01*
X14912Y-45705D01*
X15187Y-45043D01*
Y-44327D01*
X14912Y-43665D01*
X14406Y-43158D01*
X13780Y-42899D01*
Y-37402D01*
X22047Y-29134D01*
Y38189D01*
X25591Y41732D01*
X46457D01*
X51181Y37008D01*
D02*
G37*
G36*
X-58268Y-55905D02*
X-66535D01*
Y-46850D01*
X-58268D01*
Y-55905D01*
D02*
G37*
G36*
X-25793Y-108368D02*
X-25712Y-108426D01*
X-25624Y-108479D01*
X-25527Y-108524D01*
X-25422Y-108564D01*
X-25309Y-108596D01*
X-25188Y-108622D01*
X-25059Y-108642D01*
X-24922Y-108655D01*
X-24777Y-108662D01*
X-25983Y-109793D01*
X-25981Y-109651D01*
X-25986Y-109516D01*
X-25999Y-109389D01*
X-26020Y-109270D01*
X-26048Y-109158D01*
X-26084Y-109054D01*
X-26127Y-108957D01*
X-26179Y-108868D01*
X-26237Y-108786D01*
X-26304Y-108712D01*
X-25866Y-108302D01*
X-25793Y-108368D01*
D02*
G37*
G36*
X-17805Y-164783D02*
X-17789Y-164882D01*
X-17763Y-164981D01*
X-17726Y-165081D01*
X-17679Y-165182D01*
X-17621Y-165283D01*
X-17552Y-165384D01*
X-17473Y-165486D01*
X-17384Y-165589D01*
X-17284Y-165692D01*
X-18937D01*
X-18837Y-165589D01*
X-18747Y-165486D01*
X-18668Y-165384D01*
X-18600Y-165283D01*
X-18542Y-165182D01*
X-18495Y-165081D01*
X-18458Y-164981D01*
X-18431Y-164882D01*
X-18416Y-164783D01*
X-18410Y-164684D01*
X-17810D01*
X-17805Y-164783D01*
D02*
G37*
G36*
X-19134Y-243033D02*
X-19052Y-243092D01*
X-18963Y-243144D01*
X-18867Y-243188D01*
X-18762Y-243226D01*
X-18650Y-243256D01*
X-18530Y-243280D01*
X-18402Y-243296D01*
X-18266Y-243305D01*
X-18122Y-243307D01*
X-19291Y-244476D01*
X-19293Y-244333D01*
X-19302Y-244197D01*
X-19319Y-244069D01*
X-19342Y-243949D01*
X-19373Y-243836D01*
X-19410Y-243732D01*
X-19455Y-243635D01*
X-19507Y-243546D01*
X-19565Y-243465D01*
X-19631Y-243391D01*
X-19207Y-242967D01*
X-19134Y-243033D01*
D02*
G37*
G36*
X-17770Y-305203D02*
X-17836Y-305276D01*
X-17895Y-305357D01*
X-17947Y-305446D01*
X-17991Y-305543D01*
X-18029Y-305647D01*
X-18059Y-305760D01*
X-18083Y-305880D01*
X-18099Y-306008D01*
X-18108Y-306144D01*
X-18110Y-306287D01*
X-19279Y-305118D01*
X-19136Y-305116D01*
X-19000Y-305107D01*
X-18872Y-305091D01*
X-18752Y-305067D01*
X-18640Y-305037D01*
X-18535Y-304999D01*
X-18438Y-304955D01*
X-18349Y-304903D01*
X-18268Y-304844D01*
X-18195Y-304778D01*
X-17770Y-305203D01*
D02*
G37*
%LPC*%
G36*
X57248Y-44459D02*
X56532D01*
X55870Y-44733D01*
X55363Y-45240D01*
X55089Y-45902D01*
Y-46618D01*
X55363Y-47280D01*
X55870Y-47787D01*
X56532Y-48061D01*
X57248D01*
X57910Y-47787D01*
X58416Y-47280D01*
X58691Y-46618D01*
Y-45902D01*
X58416Y-45240D01*
X57910Y-44733D01*
X57248Y-44459D01*
D02*
G37*
G36*
X52130D02*
X51414D01*
X50752Y-44733D01*
X50245Y-45240D01*
X49971Y-45902D01*
Y-46618D01*
X50245Y-47280D01*
X50752Y-47787D01*
X51414Y-48061D01*
X52130D01*
X52792Y-47787D01*
X53298Y-47280D01*
X53572Y-46618D01*
Y-45902D01*
X53298Y-45240D01*
X52792Y-44733D01*
X52130Y-44459D01*
D02*
G37*
G36*
X47012D02*
X46295D01*
X45634Y-44733D01*
X45127Y-45240D01*
X44853Y-45902D01*
Y-46618D01*
X45127Y-47280D01*
X45634Y-47787D01*
X46295Y-48061D01*
X47012D01*
X47674Y-47787D01*
X48180Y-47280D01*
X48454Y-46618D01*
Y-45902D01*
X48180Y-45240D01*
X47674Y-44733D01*
X47012Y-44459D01*
D02*
G37*
G36*
X41894D02*
X41177D01*
X40515Y-44733D01*
X40009Y-45240D01*
X39735Y-45902D01*
Y-46618D01*
X40009Y-47280D01*
X40515Y-47787D01*
X41177Y-48061D01*
X41894D01*
X42555Y-47787D01*
X43062Y-47280D01*
X43336Y-46618D01*
Y-45902D01*
X43062Y-45240D01*
X42555Y-44733D01*
X41894Y-44459D01*
D02*
G37*
G36*
X36181Y-45069D02*
X35473D01*
X34818Y-45340D01*
X34317Y-45842D01*
X34046Y-46496D01*
Y-47205D01*
X34317Y-47859D01*
X34818Y-48360D01*
X35473Y-48632D01*
X36181D01*
X36836Y-48360D01*
X37337Y-47859D01*
X37608Y-47205D01*
Y-46496D01*
X37337Y-45842D01*
X36836Y-45340D01*
X36181Y-45069D01*
D02*
G37*
G36*
X52130Y-49577D02*
X51414D01*
X50752Y-49851D01*
X50245Y-50358D01*
X49971Y-51020D01*
Y-51736D01*
X50245Y-52398D01*
X50752Y-52905D01*
X51414Y-53179D01*
X52130D01*
X52792Y-52905D01*
X53298Y-52398D01*
X53572Y-51736D01*
Y-51020D01*
X53298Y-50358D01*
X52792Y-49851D01*
X52130Y-49577D01*
D02*
G37*
G36*
X47012D02*
X46295D01*
X45634Y-49851D01*
X45127Y-50358D01*
X44853Y-51020D01*
Y-51736D01*
X45127Y-52398D01*
X45634Y-52905D01*
X46295Y-53179D01*
X47012D01*
X47674Y-52905D01*
X48180Y-52398D01*
X48454Y-51736D01*
Y-51020D01*
X48180Y-50358D01*
X47674Y-49851D01*
X47012Y-49577D01*
D02*
G37*
G36*
X41894D02*
X41177D01*
X40515Y-49851D01*
X40009Y-50358D01*
X39735Y-51020D01*
Y-51736D01*
X40009Y-52398D01*
X40515Y-52905D01*
X41177Y-53179D01*
X41894D01*
X42555Y-52905D01*
X43062Y-52398D01*
X43336Y-51736D01*
Y-51020D01*
X43062Y-50358D01*
X42555Y-49851D01*
X41894Y-49577D01*
D02*
G37*
G36*
X23976Y-69872D02*
X23268D01*
X22613Y-70144D01*
X22112Y-70645D01*
X21924Y-71098D01*
X21383D01*
X21195Y-70645D01*
X20694Y-70144D01*
X20039Y-69872D01*
X19331D01*
X18676Y-70144D01*
X18175Y-70645D01*
X17904Y-71299D01*
Y-72008D01*
X18175Y-72663D01*
X18676Y-73163D01*
X19331Y-73435D01*
X20039D01*
X20694Y-73163D01*
X21195Y-72663D01*
X21383Y-72209D01*
X21924D01*
X22112Y-72663D01*
X22613Y-73163D01*
X23268Y-73435D01*
X23976D01*
X24631Y-73163D01*
X25132Y-72663D01*
X25403Y-72008D01*
Y-71299D01*
X25132Y-70645D01*
X24631Y-70144D01*
X23976Y-69872D01*
D02*
G37*
G36*
X12559Y-72628D02*
X11850D01*
X11196Y-72900D01*
X10695Y-73400D01*
X10424Y-74055D01*
Y-74764D01*
X10695Y-75418D01*
X11196Y-75919D01*
X11850Y-76191D01*
X12559D01*
X13214Y-75919D01*
X13715Y-75418D01*
X13986Y-74764D01*
Y-74055D01*
X13715Y-73400D01*
X13214Y-72900D01*
X12559Y-72628D01*
D02*
G37*
%LPD*%
D19*
X81609Y49606D02*
G03*
X79620Y51685I-2081J0D01*
G01*
X77448Y49514D02*
G03*
X81609Y49606I2079J93D01*
G01*
X82593Y28740D02*
G03*
X82593Y28740I-1491J0D01*
G01*
D02*
G03*
X82593Y28740I-1491J0D01*
G01*
X74864Y55967D02*
G03*
X74016Y56318I-848J-848D01*
G01*
X74864Y55967D02*
G03*
X74016Y56318I-848J-848D01*
G01*
X91950Y16805D02*
G03*
X91900Y17279I-2278J0D01*
G01*
X91950Y16805D02*
G03*
X91900Y17279I-2278J0D01*
G01*
X87444Y16332D02*
G03*
X91950Y16805I2228J474D01*
G01*
X91900Y17279D02*
G03*
X87444Y16332I-2228J-474D01*
G01*
X90509Y23826D02*
G03*
X86052Y22878I-2228J-474D01*
G01*
X90509Y23826D02*
G03*
X86052Y22878I-2228J-474D01*
G01*
X71963Y28346D02*
G03*
X71963Y28346I-1491J0D01*
G01*
D02*
G03*
X71963Y28346I-1491J0D01*
G01*
X90559Y23352D02*
G03*
X90509Y23826I-2278J0D01*
G01*
X90559Y23352D02*
G03*
X90509Y23826I-2278J0D01*
G01*
X91900Y17279D02*
G03*
X87444Y16332I-2228J-474D01*
G01*
X86052Y22878D02*
G03*
X90559Y23352I2228J474D01*
G01*
X86052Y22878D02*
G03*
X90559Y23352I2228J474D01*
G01*
X52774Y65135D02*
G03*
X56805Y65861I1951J725D01*
G01*
D02*
G03*
X54140Y67858I-2081J0D01*
G01*
D02*
G03*
X53681Y67935I-459J-1323D01*
G01*
X54140Y67858D02*
G03*
X53681Y67935I-459J-1323D01*
G01*
X93081Y-16885D02*
G03*
X93131Y-16412I-2228J474D01*
G01*
X93081Y-16885D02*
G03*
X93131Y-16412I-2228J474D01*
G01*
D02*
G03*
X88625Y-15938I-2278J0D01*
G01*
X87444Y16332D02*
G03*
X91950Y16805I2228J474D01*
G01*
X88892Y1575D02*
G03*
X88892Y1575I-1491J0D01*
G01*
D02*
G03*
X88892Y1575I-1491J0D01*
G01*
X93131Y-16412D02*
G03*
X88625Y-15938I-2278J0D01*
G01*
D02*
G03*
X93081Y-16885I2228J-474D01*
G01*
X88625Y-15938D02*
G03*
X93081Y-16885I2228J-474D01*
G01*
X80624Y-12205D02*
G03*
X80624Y-12205I-1491J0D01*
G01*
D02*
G03*
X80624Y-12205I-1491J0D01*
G01*
X91740Y-22958D02*
G03*
X87234Y-22485I-2278J0D01*
G01*
X91690Y-23432D02*
G03*
X91740Y-22958I-2228J474D01*
G01*
X91690Y-23432D02*
G03*
X91740Y-22958I-2228J474D01*
G01*
D02*
G03*
X87234Y-22485I-2278J0D01*
G01*
D02*
G03*
X91690Y-23432I2228J-474D01*
G01*
X87234Y-22485D02*
G03*
X91690Y-23432I2228J-474D01*
G01*
X78105Y0D02*
G03*
X78105Y0I-9207J0D01*
G01*
D02*
G03*
X78105Y0I-9207J0D01*
G01*
X13656Y74409D02*
G03*
X11378Y76687I-2278J0D01*
G01*
X18959Y64628D02*
G03*
X18110Y64979I-848J-848D01*
G01*
X18959Y64628D02*
G03*
X18110Y64979I-848J-848D01*
G01*
X11378Y72132D02*
G03*
X13656Y74409I0J2278D01*
G01*
X25923Y54270D02*
G03*
X26772Y53918I848J848D01*
G01*
X25923Y54270D02*
G03*
X26772Y53918I848J848D01*
G01*
X13986Y41933D02*
G03*
X14473Y43701I-2962J1768D01*
G01*
D02*
G03*
X12415Y46857I-3450J0D01*
G01*
Y46857D02*
G03*
X12505Y47638I-3360J781D01*
G01*
X9100Y74409D02*
G03*
X11378Y72132I2278J0D01*
G01*
Y76687D02*
G03*
X9100Y74409I0J-2278D01*
G01*
X-276Y78952D02*
G03*
X1874Y81102I0J2150D01*
G01*
D02*
G03*
X-276Y83252I-2150J0D01*
G01*
X12505Y47638D02*
G03*
X8411Y51027I-3450J0D01*
G01*
X6145Y53293D02*
G03*
X6205Y53937I-3389J644D01*
G01*
D02*
G03*
X-684Y53684I-3450J0D01*
G01*
X8411Y51027D02*
G03*
X6145Y53293I-3293J-1027D01*
G01*
X-1419Y52950D02*
G03*
X-2175Y51130I1812J-1820D01*
G01*
X-1265Y58268D02*
G03*
X-1265Y58268I-1491J0D01*
G01*
D02*
G03*
X-1265Y58268I-1491J0D01*
G01*
X-1422Y52946D02*
G03*
X-2175Y51130I1816J-1816D01*
G01*
X13230Y24164D02*
G03*
X13986Y25984I-1812J1820D01*
G01*
X13234Y24168D02*
G03*
X13986Y25984I-1816J1816D01*
G01*
X24222Y-127953D02*
G03*
X23466Y-126133I-2568J0D01*
G01*
X24222Y-127953D02*
G03*
X23470Y-126137I-2568J0D01*
G01*
X23466Y-267174D02*
G03*
X24222Y-265354I-1812J1820D01*
G01*
X23470Y-267171D02*
G03*
X24222Y-265354I-1816J1816D01*
G01*
X1387Y-114567D02*
G03*
X635Y-112751I-2568J0D01*
G01*
X1387Y-114567D02*
G03*
X631Y-112747I-2568J0D01*
G01*
X635Y-175045D02*
G03*
X1387Y-173228I-1816J1816D01*
G01*
X631Y-175048D02*
G03*
X1387Y-173228I-1812J1820D01*
G01*
X-9100Y74409D02*
G03*
X-11378Y76687I-2278J0D01*
G01*
D02*
G03*
X-13656Y74409I0J-2278D01*
G01*
D02*
G03*
X-11378Y72132I2278J0D01*
G01*
X-3046Y51575D02*
G03*
X-3046Y51575I-2859J0D01*
G01*
X-11378Y72132D02*
G03*
X-9100Y74409I0J2278D01*
G01*
X-9843Y64979D02*
G03*
X-10691Y64628I0J-1200D01*
G01*
X-9843Y64979D02*
G03*
X-10691Y64628I0J-1200D01*
G01*
X-17384Y57935D02*
G03*
X-17735Y57087I848J-848D01*
G01*
X-17384Y57935D02*
G03*
X-17735Y57087I848J-848D01*
G01*
X-18853Y83252D02*
G03*
X-20374Y82623I0J-2150D01*
G01*
X-18853Y83252D02*
G03*
X-20374Y82623I0J-2150D01*
G01*
X-25675Y54331D02*
G03*
X-28559Y54860I-1491J0D01*
G01*
X-20921Y52417D02*
G03*
X-20291Y53937I-1520J1520D01*
G01*
X-25948Y53470D02*
G03*
X-25675Y54331I-1217J860D01*
G01*
X-20921Y52417D02*
G03*
X-20291Y53937I-1520J1520D01*
G01*
X-12049Y6151D02*
G03*
X-12805Y4331I1812J-1820D01*
G01*
X-12052Y6147D02*
G03*
X-12805Y4331I1816J-1816D01*
G01*
X-15687Y44033D02*
G03*
X-15335Y44882I-848J848D01*
G01*
X-15687Y44033D02*
G03*
X-15335Y44882I-848J848D01*
G01*
X-18348Y10875D02*
G03*
X-19104Y9055I1812J-1820D01*
G01*
X-18352Y10871D02*
G03*
X-19104Y9055I1816J-1816D01*
G01*
X-24670Y14789D02*
G03*
X-25422Y12973I1816J-1816D01*
G01*
X-24666Y14793D02*
G03*
X-25422Y12973I1812J-1820D01*
G01*
X-29831Y73165D02*
G03*
X-31531Y71465I-1473J-227D01*
G01*
X-29831Y73165D02*
G03*
X-31531Y71465I-1473J-227D01*
G01*
X-25948Y53470D02*
G03*
X-25675Y54331I-1217J860D01*
G01*
D02*
G03*
X-28559Y54860I-1491J0D01*
G01*
Y53801D02*
G03*
X-26305Y53114I1393J530D01*
G01*
X-32229Y70767D02*
G03*
X-32859Y69247I1520J-1520D01*
G01*
X-32229Y70767D02*
G03*
X-32859Y69247I1520J-1520D01*
G01*
X-28559Y53801D02*
G03*
X-26305Y53114I1393J530D01*
G01*
X-29188Y52023D02*
G03*
X-28559Y53543I-1520J1520D01*
G01*
X-29188Y52023D02*
G03*
X-28559Y53543I-1520J1520D01*
G01*
X-31340Y19143D02*
G03*
X-32096Y17323I1812J-1820D01*
G01*
X-31344Y19139D02*
G03*
X-32096Y17323I1816J-1816D01*
G01*
X-43368Y19746D02*
G03*
X-43720Y18898I848J-848D01*
G01*
X-43368Y19746D02*
G03*
X-43720Y18898I848J-848D01*
G01*
X-57032Y30260D02*
G03*
X-57662Y28740I1520J-1520D01*
G01*
X-57032Y30260D02*
G03*
X-57662Y28740I1520J-1520D01*
G01*
X-52701Y26717D02*
G03*
X-53331Y25197I1520J-1520D01*
G01*
X-52701Y26717D02*
G03*
X-53331Y25197I1520J-1520D01*
G01*
X-83943Y17717D02*
G03*
X-83943Y17717I-1491J0D01*
G01*
D02*
G03*
X-83943Y17717I-1491J0D01*
G01*
X-35714Y1969D02*
G03*
X-39331Y564I-2081J0D01*
G01*
X-36260Y564D02*
G03*
X-35714Y1969I-1536J1405D01*
G01*
X-36947Y-7935D02*
G03*
X-36595Y-7087I-848J848D01*
G01*
X-36947Y-7935D02*
G03*
X-36595Y-7087I-848J848D01*
G01*
X-44055Y7704D02*
G03*
X-40439Y6299I1536J-1405D01*
G01*
D02*
G03*
X-40984Y7704I-2081J0D01*
G01*
X-33155Y-27559D02*
G03*
X-33155Y-27559I-1491J0D01*
G01*
D02*
G03*
X-33155Y-27559I-1491J0D01*
G01*
X-44943Y-12537D02*
G03*
X-45294Y-13386I848J-848D01*
G01*
X-44943Y-12537D02*
G03*
X-45294Y-13386I848J-848D01*
G01*
X-41620Y-20866D02*
G03*
X-42877Y-18711I-2475J0D01*
G01*
X-46569Y-21654D02*
G03*
X-41620Y-21654I2475J0D01*
G01*
X-45312Y-18711D02*
G03*
X-46569Y-20866I1218J-2155D01*
G01*
X-59690Y0D02*
G03*
X-59690Y0I-9207J0D01*
G01*
X-53992Y-15300D02*
G03*
X-53362Y-13780I-1520J1520D01*
G01*
X-53992Y-15300D02*
G03*
X-53362Y-13780I-1520J1520D01*
G01*
X-59690Y0D02*
G03*
X-59690Y0I-9207J0D01*
G01*
X-49661Y-20024D02*
G03*
X-49031Y-18504I-1520J1520D01*
G01*
X-49661Y-20024D02*
G03*
X-49031Y-18504I-1520J1520D01*
G01*
X-63725Y-18952D02*
G03*
X-60684Y-21993I1520J-1520D01*
G01*
X-64512Y-28795D02*
G03*
X-65142Y-30315I1520J-1520D01*
G01*
X-64512Y-28795D02*
G03*
X-65142Y-30315I1520J-1520D01*
G01*
X-12805Y-96063D02*
G03*
X-12049Y-97883I2568J0D01*
G01*
X-12805Y-96063D02*
G03*
X-12052Y-97879I2568J0D01*
G01*
X-19104Y-99213D02*
G03*
X-18348Y-101032I2568J0D01*
G01*
X-19104Y-99213D02*
G03*
X-18352Y-101029I2568J0D01*
G01*
X-15542Y-105905D02*
G03*
X-16294Y-104089I-2568J0D01*
G01*
X-15542Y-105905D02*
G03*
X-16298Y-104086I-2568J0D01*
G01*
X-14661Y-166535D02*
G03*
X-15480Y-164304I-3450J0D01*
G01*
X-20741D02*
G03*
X-14661Y-166535I2630J-2232D01*
G01*
X12711Y-228346D02*
G03*
X12711Y-228346I-12711J0D01*
G01*
Y-366142D02*
G03*
X12711Y-366142I-12711J0D01*
G01*
X-14661Y-244488D02*
G03*
X-17829Y-241050I-3450J0D01*
G01*
X-21548Y-244770D02*
G03*
X-14661Y-244488I3438J282D01*
G01*
X-19573Y-302861D02*
G03*
X-15853Y-306581I282J-3438D01*
G01*
X-21354Y-109843D02*
G03*
X-24413Y-106415I-3450J0D01*
G01*
X-28248Y-110016D02*
G03*
X-21354Y-109843I3445J173D01*
G01*
X-22679Y-191094D02*
G03*
X-23435Y-192913I1812J-1820D01*
G01*
X-22682Y-191097D02*
G03*
X-23435Y-192913I1816J-1816D01*
G01*
X-25422Y-101162D02*
G03*
X-24670Y-102978I2568J0D01*
G01*
X-25422Y-101162D02*
G03*
X-24666Y-102982I2568J0D01*
G01*
X-32096Y-105064D02*
G03*
X-31340Y-106884I2568J0D01*
G01*
X-32096Y-105064D02*
G03*
X-31344Y-106881I2568J0D01*
G01*
X-23435Y-241732D02*
G03*
X-22679Y-243552I2568J0D01*
G01*
X-23435Y-241732D02*
G03*
X-22682Y-243548I2568J0D01*
G01*
X81605Y49488D02*
X82607Y50489D01*
X83975Y48274D02*
X86873Y42841D01*
X80739Y53512D02*
X83975Y48274D01*
X77175Y58534D02*
X80739Y53512D01*
X68914Y53918D02*
X91716Y31115D01*
X86873Y42841D02*
X89419Y37235D01*
X80641Y47848D02*
X87893Y40596D01*
X89419Y37235D02*
X91605Y31478D01*
X71953Y28522D02*
X86664Y43233D01*
X73300Y63319D02*
X77175Y58534D01*
X69129Y67848D02*
X73300Y63319D01*
X71465Y56318D02*
X75612Y60465D01*
X60151Y56318D02*
X70353Y66520D01*
X64679Y72104D02*
X69129Y67848D01*
X65808Y56318D02*
X73065Y63575D01*
X78646Y52185D02*
X80421Y53960D01*
X75817Y55014D02*
X78073Y57269D01*
X74864Y55967D02*
X78987Y51844D01*
X73519Y53918D02*
X77290Y50147D01*
X91605Y31478D02*
X93419Y25594D01*
X90354Y24296D02*
X93003Y26945D01*
X93419Y25594D02*
X94857Y19607D01*
X90601Y18886D02*
X94173Y22457D01*
X89833Y21685D02*
X95476Y16041D01*
X63257Y53918D02*
X94001Y23174D01*
X71960Y28245D02*
X96756Y3448D01*
X94857Y19607D02*
X95911Y13541D01*
X78078Y706D02*
X95171Y17799D01*
X82580Y28938D02*
X86614Y24904D01*
X69583Y9182D02*
X91669Y31268D01*
X73832Y7773D02*
X87337Y21279D01*
X59967Y76067D02*
X64679Y72104D01*
X55012Y79724D02*
X59967Y76067D01*
X54494Y56318D02*
X67542Y69366D01*
X54803Y67940D02*
X61576Y74714D01*
X40584Y87905D02*
X72170Y56318D01*
X49141Y67935D02*
X58417Y77211D01*
X48837Y56318D02*
X64648Y72129D01*
X56798Y66033D02*
X66514Y56318D01*
X27269D02*
X74016D01*
X52039Y65135D02*
X60857Y56318D01*
X26772Y53918D02*
X73519D01*
X49836Y83058D02*
X55012Y79724D01*
X44458Y86057D02*
X49836Y83058D01*
X37827Y67935D02*
X51730Y81838D01*
X23166Y94009D02*
X49239Y67935D01*
X32170D02*
X48203Y83968D01*
X31168Y91664D02*
X54897Y67935D01*
X46382Y65135D02*
X55200Y56318D01*
X43484Y67935D02*
X55162Y79614D01*
X40726Y65135D02*
X49543Y56318D01*
X43180D02*
X51998Y65135D01*
X57600Y53918D02*
X81300Y30217D01*
X53352Y80793D02*
X80909Y53236D01*
X52099Y25638D02*
X76948Y50488D01*
X51943Y53918D02*
X87783Y18078D01*
X52099Y31295D02*
X74120Y53317D01*
X40629Y53918D02*
X96788Y-2241D01*
X52099Y-2646D02*
X90124Y35379D01*
X52099Y36792D02*
X86306Y2585D01*
X52099Y31135D02*
X95980Y-12746D01*
X52099Y14325D02*
X84696Y46922D01*
X52099Y19982D02*
X79646Y47529D01*
X52099Y3011D02*
X88452Y39364D01*
X49488Y39998D02*
X63408Y53918D01*
X47106Y42381D02*
X51830Y37657D01*
X52099Y36952D02*
X69065Y53918D01*
X46478Y42646D02*
X57751Y53918D01*
X40826Y42650D02*
X52094Y53918D01*
X46286D02*
X70371Y29833D01*
X52099Y8668D02*
X70297Y26866D01*
X52099Y25478D02*
X68384Y9193D01*
X52099Y19821D02*
X64076Y7844D01*
X52029Y37359D02*
X52099Y37008D01*
X51830Y37657D02*
X52029Y37359D01*
X52099Y-14581D02*
Y37008D01*
X96578Y7419D02*
X96854Y1268D01*
X95911Y13541D02*
X96578Y7419D01*
X96739Y-4888D02*
X96854Y1268D01*
X96233Y-11025D02*
X96739Y-4888D01*
X88412Y479D02*
X96513Y-7623D01*
X90945Y14916D02*
X96350Y9511D01*
X91444Y-14212D02*
X96377Y-9280D01*
X95338Y-17117D02*
X96233Y-11025D01*
X92791Y-15214D02*
X95225Y-17648D01*
X90421Y-20892D02*
X95534Y-15779D01*
X78090Y-514D02*
X92051Y-14474D01*
X76662Y4947D02*
X87592Y15877D01*
X76741Y-4821D02*
X88590Y-16670D01*
X73956Y-7693D02*
X77801Y-11538D01*
X90595Y-18675D02*
X94233Y-22313D01*
X94058Y-23140D02*
X95338Y-17117D01*
X65930Y-28412D02*
X96800Y2458D01*
X69772Y-9166D02*
X91692Y-31085D01*
X68759Y-31240D02*
X96770Y-3230D01*
X92397Y-29069D02*
X94058Y-23140D01*
X90948Y-24685D02*
X93039Y-26776D01*
X90364Y-34881D02*
X92397Y-29069D01*
X79801Y-13538D02*
X87735Y-21472D01*
X70996Y-34660D02*
X88653Y-17003D01*
X70728Y-33209D02*
X70926Y-33507D01*
X70957Y-40356D02*
X87396Y-23917D01*
X87965Y-40552D02*
X90364Y-34881D01*
X70996Y-40157D02*
Y-33858D01*
X85210Y-46059D02*
X87965Y-40552D01*
X70926Y-40509D02*
X70996Y-40157D01*
X70926Y-33507D02*
X70996Y-33858D01*
X70728Y-40806D02*
X70926Y-40509D01*
X63102Y-25584D02*
X96531Y7846D01*
X60273Y-22755D02*
X95976Y12947D01*
X52099Y14164D02*
X61205Y5059D01*
X52099Y8508D02*
X59732Y874D01*
X52099Y2851D02*
X90205Y-35256D01*
X57445Y-19927D02*
X68192Y-9180D01*
X54617Y-17098D02*
X63950Y-7765D01*
X52099Y-14581D02*
X70728Y-33209D01*
X52099Y-2806D02*
X88524Y-39231D01*
X52099Y-13959D02*
X61124Y-4934D01*
X52099Y-8463D02*
X86705Y-43070D01*
X52099Y-8303D02*
X59716Y-685D01*
X56714Y-45377D02*
X57065D01*
X56389Y-45511D02*
X56714Y-45377D01*
X51596D02*
X51947D01*
X51271Y-45511D02*
X51596Y-45377D01*
X51947D02*
X52272Y-45511D01*
X57390D02*
X57639Y-45760D01*
X57065Y-45377D02*
X57390Y-45511D01*
X57639Y-45760D02*
X57773Y-46084D01*
X52272Y-45511D02*
X52520Y-45760D01*
X51023D02*
X51271Y-45511D01*
X56141Y-45760D02*
X56389Y-45511D01*
X57773Y-46435D02*
Y-46084D01*
X56007Y-46435D02*
X56141Y-46760D01*
X56007Y-46312D02*
X56838Y-47143D01*
X56007Y-46084D02*
X56141Y-45760D01*
X56007Y-46435D02*
Y-46084D01*
X52099Y-14120D02*
X84779Y-46800D01*
X57639Y-46760D02*
X57773Y-46435D01*
X57390Y-47008D02*
X57639Y-46760D01*
X57065Y-47143D02*
X57390Y-47008D01*
X56389D02*
X56714Y-47143D01*
X56141Y-46760D02*
X56389Y-47008D01*
X56714Y-47143D02*
X57065D01*
X52655Y-46435D02*
Y-46084D01*
X52520Y-45760D02*
X52655Y-46084D01*
X50889Y-46435D02*
X51023Y-46760D01*
X50889Y-46084D02*
X51023Y-45760D01*
X47537Y-46435D02*
Y-46084D01*
X50889Y-46435D02*
Y-46084D01*
X52520Y-46760D02*
X52655Y-46435D01*
X52272Y-47008D02*
X52520Y-46760D01*
X51947Y-47143D02*
X52272Y-47008D01*
X51271D02*
X51596Y-47143D01*
X51023Y-46760D02*
X51271Y-47008D01*
X51596Y-47143D02*
X51947D01*
X27337Y92925D02*
X33185Y91000D01*
X21377Y94474D02*
X27337Y92925D01*
X16007Y95511D02*
X43582Y67935D01*
X33185Y91000D02*
X38900Y88708D01*
X12638Y76687D02*
X28494Y92544D01*
X15331Y95641D02*
X21377Y94474D01*
X9543Y67935D02*
X32750Y91143D01*
X26513Y67935D02*
X44571Y85993D01*
X38900Y88708D02*
X44458Y86057D01*
X21082Y62504D02*
X23713Y65135D01*
X15200Y67935D02*
X36810Y89546D01*
X13656Y75235D02*
X20955Y67935D01*
X20857D02*
X40748Y87826D01*
X13362Y75528D02*
X13656Y75235D01*
X12397Y76447D02*
X12638Y76687D01*
X13656Y74409D02*
Y76687D01*
X11378D02*
X13656D01*
X12203D02*
X12497Y76394D01*
X13656Y72132D02*
Y74409D01*
X11378Y72132D02*
X13656D01*
X11102D02*
X15298Y67935D01*
X31867Y56318D02*
X40684Y65135D01*
X29412D02*
X38229Y56318D01*
X37523D02*
X46341Y65135D01*
X35069D02*
X43886Y56318D01*
X26739Y56848D02*
X35027Y65135D01*
X23755D02*
X32572Y56318D01*
X14997Y62580D02*
X34927Y42650D01*
X34972Y53918D02*
X46241Y42650D01*
X29512D02*
X40780Y53918D01*
X35169Y42650D02*
X46437Y53918D01*
X29316D02*
X40584Y42650D01*
X13986Y38437D02*
X29467Y53918D01*
X13986Y32780D02*
X35124Y53918D01*
X23911Y59676D02*
X29370Y65135D01*
X18959Y64628D02*
X27269Y56318D01*
X17613Y62580D02*
X25923Y54270D01*
X12455Y48220D02*
X22214Y57979D01*
X9619Y51041D02*
X19385Y60807D01*
X14382Y44490D02*
X25042Y55151D01*
X12468Y48138D02*
X21583Y39023D01*
X9224Y96422D02*
X15331Y95641D01*
X1413Y82433D02*
X14702Y95722D01*
X9471Y96390D02*
X37926Y67935D01*
X3412Y96792D02*
X32269Y67935D01*
X-7633Y96523D02*
X12203Y76687D01*
X-3424Y83252D02*
X9686Y96363D01*
X-2266Y96813D02*
X26612Y67935D01*
X9100Y72132D02*
X11378D01*
X-7428Y67935D02*
X19477Y94841D01*
X9100Y76687D02*
X11378D01*
X-1771Y67935D02*
X24068Y93774D01*
X3079Y96813D02*
X9224Y96422D01*
X1857Y81377D02*
X9100Y74134D01*
X-3079Y96813D02*
X3079Y96813D01*
X-3937Y83252D02*
X-276D01*
X9100Y73149D02*
X9341Y73390D01*
X9100Y74409D02*
Y76687D01*
Y72132D02*
Y74409D01*
X-7032Y78952D02*
X3985Y67935D01*
X-3937Y78952D02*
X-276D01*
X-1376D02*
X9641Y67935D01*
X4291Y57026D02*
X9844Y62580D01*
X3886Y67935D02*
X9100Y73149D01*
X6197Y53276D02*
X15501Y62580D01*
X-4392Y54000D02*
X4187Y62580D01*
X-1973D02*
X3256Y57350D01*
X3684Y62580D02*
X24412Y41851D01*
X6169Y54437D02*
X9555Y51051D01*
X9340Y62580D02*
X29270Y42650D01*
X-2021Y56971D02*
X-394Y55343D01*
X-1419Y52950D02*
X-684Y53684D01*
X-7630Y62580D02*
X-4053Y59002D01*
X209Y43427D02*
X1369Y42267D01*
X-2175Y48308D02*
Y51130D01*
X1369Y40828D02*
Y44587D01*
X-3197Y52489D02*
X-2155Y51448D01*
X-5175Y48811D02*
X-3424Y47059D01*
X46808Y42580D02*
X47106Y42381D01*
X46457Y42650D02*
X46808Y42580D01*
X46829Y-45377D02*
X47154Y-45511D01*
X46478Y-45377D02*
X46829D01*
X25591Y42650D02*
X46457D01*
X41711Y-45377D02*
X42036Y-45511D01*
X46153D02*
X46478Y-45377D01*
X47154Y-45511D02*
X47402Y-45760D01*
X45905D02*
X46153Y-45511D01*
X47402Y-45760D02*
X47537Y-46084D01*
X42284Y-45760D02*
X42419Y-46084D01*
X42036Y-45511D02*
X42284Y-45760D01*
X45770Y-46084D02*
X45905Y-45760D01*
X25239Y42580D02*
X25591Y42650D01*
X24942Y42381D02*
X25239Y42580D01*
X41035Y-45511D02*
X41360Y-45377D01*
X21398Y38838D02*
X24942Y42381D01*
X21200Y38540D02*
X21398Y38838D01*
X21130Y38189D02*
X21200Y38540D01*
X41360Y-45377D02*
X41711D01*
X40787Y-45760D02*
X41035Y-45511D01*
X40652Y-46084D02*
X40787Y-45760D01*
X35655Y-45987D02*
X35998D01*
X35338Y-46118D02*
X35655Y-45987D01*
X35998D02*
X36316Y-46118D01*
X45770Y-46435D02*
X45905Y-46760D01*
X45770Y-46435D02*
Y-46084D01*
X47402Y-46760D02*
X47537Y-46435D01*
X42284Y-46760D02*
X42419Y-46435D01*
Y-46084D01*
X41543Y-47143D02*
X42419Y-46267D01*
X47154Y-47008D02*
X47402Y-46760D01*
X46478Y-47143D02*
X46829D01*
X47154Y-47008D01*
X45905Y-46760D02*
X46153Y-47008D01*
X42036D02*
X42284Y-46760D01*
X46153Y-47008D02*
X46478Y-47143D01*
X40652Y-46435D02*
Y-46084D01*
X36559Y-46361D02*
X36690Y-46679D01*
X40652Y-46435D02*
X40787Y-46760D01*
X36316Y-46118D02*
X36559Y-46361D01*
X35095Y-46361D02*
X35338Y-46118D01*
X34963Y-46679D02*
X35095Y-46361D01*
X41360Y-47143D02*
X41711D01*
X41035Y-47008D02*
X41360Y-47143D01*
X41711D02*
X42036Y-47008D01*
X40787Y-46760D02*
X41035Y-47008D01*
X34963Y-47022D02*
Y-46679D01*
X36690Y-47022D02*
Y-46679D01*
X13986Y35307D02*
X21130Y28163D01*
X13986Y40964D02*
X21130Y33820D01*
X13986Y29650D02*
X21130Y22506D01*
X13986Y27124D02*
X21130Y34267D01*
X8849Y27048D02*
Y30807D01*
X8010Y29969D02*
X8849Y29130D01*
X13986Y25984D02*
Y41933D01*
X13499Y24480D02*
X21130Y16849D01*
X7865Y18800D02*
X21130Y5536D01*
X10694Y21628D02*
X21130Y11192D01*
X5037Y15971D02*
X21130Y-121D01*
X5305Y34528D02*
Y37500D01*
X2892Y35087D02*
X4378Y33601D01*
X64Y32258D02*
X1550Y30773D01*
X-2620Y40598D02*
X-740Y38719D01*
X-5448Y37770D02*
X-3569Y35891D01*
X-2765Y29430D02*
X-1279Y27944D01*
X5182Y27140D02*
X7061Y25261D01*
X2354Y24312D02*
X4233Y22432D01*
X-475Y21483D02*
X1405Y19604D01*
X-3303Y18655D02*
X-1424Y16775D01*
X-5593Y26601D02*
X-4107Y25116D01*
X-6132Y15826D02*
X-4252Y13947D01*
X-620Y10315D02*
X21130Y-11435D01*
X2208Y13143D02*
X21130Y-5778D01*
Y-28754D02*
Y38189D01*
X-3448Y7486D02*
X21130Y-17092D01*
X-7668Y-11501D02*
X21130Y17297D01*
X-6277Y4658D02*
X21130Y-22749D01*
X14269Y-44861D02*
Y-44509D01*
X14134Y-44185D02*
X14269Y-44509D01*
X14134Y-45185D02*
X14269Y-44861D01*
X13131Y-36753D02*
X21130Y-28754D01*
X-7668Y-28471D02*
X21130Y326D01*
X13886Y-45434D02*
X14134Y-45185D01*
X12932Y-43250D02*
X13131Y-43548D01*
X12932Y-37050D02*
X13131Y-36753D01*
Y-43548D02*
X13428Y-43747D01*
X12862Y-37402D02*
X12932Y-37050D01*
X12862Y-42899D02*
Y-37402D01*
Y-42899D02*
X12932Y-43250D01*
X13886Y-43936D02*
X14134Y-44185D01*
X13428Y-43747D02*
X13886Y-43936D01*
X13428Y-45623D02*
X13886Y-45434D01*
X13131Y-45822D02*
X13428Y-45623D01*
X12932Y-46120D02*
X13131Y-45822D01*
X12862Y-46471D02*
X12932Y-46120D01*
X70996Y-38674D02*
X82697Y-50375D01*
X57065Y-50495D02*
X57390Y-50629D01*
X82112Y-51380D02*
X85210Y-46059D01*
X59801Y-51733D02*
X70728Y-40806D01*
X56714Y-50495D02*
X57065D01*
X56389Y-50629D02*
X56714Y-50495D01*
X56141Y-50878D02*
X56389Y-50629D01*
X57639Y-50878D02*
X57790Y-51243D01*
X57390Y-50629D02*
X57639Y-50878D01*
X56007Y-51554D02*
Y-51202D01*
X56141Y-50878D01*
X52655Y-51554D02*
Y-51202D01*
X52520Y-51878D02*
X52655Y-51554D01*
X51947Y-50495D02*
X52272Y-50629D01*
X51596Y-50495D02*
X51947D01*
X52272Y-50629D02*
X52520Y-50878D01*
X51271Y-50629D02*
X51596Y-50495D01*
X51023Y-50878D02*
X51271Y-50629D01*
X47402Y-50878D02*
X47537Y-51202D01*
X52520Y-50878D02*
X52655Y-51202D01*
X50889Y-51554D02*
Y-51202D01*
Y-51554D02*
X51023Y-51878D01*
X50889Y-51202D02*
X51023Y-50878D01*
X47537Y-51554D02*
Y-51202D01*
X47402Y-51878D02*
X47537Y-51554D01*
X78681Y-56494D02*
X82112Y-51380D01*
X69100Y-42434D02*
X80479Y-53814D01*
X66271Y-45263D02*
X78169Y-57161D01*
X63443Y-48091D02*
X75713Y-60362D01*
X60614Y-50920D02*
X73133Y-63438D01*
X57474Y-53436D02*
X70469Y-66431D01*
X52691Y-81249D02*
X81198Y-52743D01*
X74933Y-61379D02*
X78681Y-56494D01*
X70882Y-66016D02*
X74933Y-61379D01*
X66544Y-70386D02*
X70882Y-66016D01*
X54957Y-56577D02*
X67651Y-69270D01*
X52129Y-59405D02*
X64724Y-72000D01*
X61937Y-74472D02*
X66544Y-70386D01*
X58317Y-51751D02*
X58832Y-51943D01*
X56141Y-51878D02*
X56389Y-52127D01*
X57474Y-53839D02*
X59351Y-51962D01*
X56007Y-51554D02*
X56141Y-51878D01*
X51023D02*
X51271Y-52127D01*
X52272D02*
X52520Y-51878D01*
X56389Y-52127D02*
X56755Y-52278D01*
X51947Y-52261D02*
X52272Y-52127D01*
X57263Y-52805D02*
X57455Y-53320D01*
X51596Y-52261D02*
X51947D01*
X51271Y-52127D02*
X51596Y-52261D01*
X49301Y-62233D02*
X61713Y-74646D01*
X46478Y-50495D02*
X46829D01*
X46153Y-50629D02*
X46478Y-50495D01*
X46829D02*
X47154Y-50629D01*
X45905Y-50878D02*
X46153Y-50629D01*
X41711Y-50495D02*
X42036Y-50629D01*
X41360Y-50495D02*
X41711D01*
X42036Y-50629D02*
X42284Y-50878D01*
X47154Y-50629D02*
X47402Y-50878D01*
X45770Y-51554D02*
Y-51202D01*
Y-51554D02*
X45905Y-51878D01*
X45770Y-51202D02*
X45905Y-50878D01*
X42284D02*
X42419Y-51202D01*
Y-51554D02*
Y-51202D01*
X36559Y-47339D02*
X36690Y-47022D01*
X36316Y-47582D02*
X36559Y-47339D01*
X35414Y-47614D02*
X36591Y-46438D01*
X35095Y-47339D02*
X35338Y-47582D01*
X34963Y-47022D02*
X35095Y-47339D01*
X35338Y-47582D02*
X35655Y-47714D01*
X41035Y-50629D02*
X41360Y-50495D01*
X40787Y-50878D02*
X41035Y-50629D01*
X40652Y-51554D02*
Y-51202D01*
X35998Y-47714D02*
X36316Y-47582D01*
X35655Y-47714D02*
X35998D01*
X40652Y-51202D02*
X40787Y-50878D01*
X47154Y-52127D02*
X47402Y-51878D01*
X45905D02*
X46153Y-52127D01*
X46478Y-52261D01*
X7152Y-109818D02*
X94119Y-22851D01*
X9980Y-112647D02*
X91773Y-30854D01*
X12808Y-115475D02*
X88136Y-40148D01*
X46829Y-52261D02*
X47154Y-52127D01*
X46478Y-52261D02*
X46829D01*
X46472Y-65062D02*
X58534Y-77124D01*
X41406Y-70128D02*
X57244Y-54290D01*
X43644Y-67890D02*
X55255Y-79501D01*
X40575Y-70478D02*
X51885Y-81789D01*
X42284Y-51878D02*
X42419Y-51554D01*
X42036Y-52127D02*
X42284Y-51878D01*
X41711Y-52261D02*
X42036Y-52127D01*
X40787Y-51878D02*
X41035Y-52127D01*
X40652Y-51554D02*
X40787Y-51878D01*
X41035Y-52127D02*
X41360Y-52261D01*
X41711D01*
X41109Y-70327D02*
X41406Y-70128D01*
X40456Y-70528D02*
X40788Y-70390D01*
X40213Y-70771D02*
X40456Y-70528D01*
X40075Y-71103D02*
X40213Y-70771D01*
X40042Y-71271D02*
X40956Y-70357D01*
X40012Y-71424D02*
X40075Y-71103D01*
X39813Y-71721D02*
X40012Y-71424D01*
X57081Y-78256D02*
X61937Y-74472D01*
X51993Y-81725D02*
X57081Y-78256D01*
X37987Y-73547D02*
X48333Y-83893D01*
X29595Y-81939D02*
X39813Y-71721D01*
X35159Y-76376D02*
X44675Y-85892D01*
X46696Y-84863D02*
X51993Y-81725D01*
X43954Y-86259D02*
X46696Y-84863D01*
X42898Y-86866D02*
X43879Y-86300D01*
X40924Y-88268D02*
X42767Y-86951D01*
X32330Y-79204D02*
X41198Y-88072D01*
X39105Y-89943D02*
X40762Y-88400D01*
X37516Y-91839D02*
X38962Y-90095D01*
X36186Y-93923D02*
X37394Y-92007D01*
X35134Y-96162D02*
X36086Y-94106D01*
X29483Y-82014D02*
X38328Y-90859D01*
X26673Y-84861D02*
X36033Y-94221D01*
X34380Y-98517D02*
X35059Y-96356D01*
X33936Y-100950D02*
X34331Y-98719D01*
X33827Y-102234D02*
X33916Y-101104D01*
X24222Y-178576D02*
X33822Y-188176D01*
X24222Y-177601D02*
X33822Y-168001D01*
X24222Y-172919D02*
X33822Y-182519D01*
X24222Y-183257D02*
X33822Y-173658D01*
X24222Y-200228D02*
X33822Y-190628D01*
X24222Y-189890D02*
X33822Y-199489D01*
X33821Y-370079D02*
X33822Y-102360D01*
X24222Y-188914D02*
X33822Y-179314D01*
X24222Y-184233D02*
X33822Y-193833D01*
X24222Y-194571D02*
X33822Y-184971D01*
X24222Y-211542D02*
X33822Y-201942D01*
X24222Y-217198D02*
X33822Y-207599D01*
X24222Y-222855D02*
X33822Y-213256D01*
X24222Y-205885D02*
X33822Y-196285D01*
X24222Y-195547D02*
X33822Y-205146D01*
X24222Y-201203D02*
X33822Y-210803D01*
X24222Y-228512D02*
X33822Y-218913D01*
X24222Y-223831D02*
X33822Y-233430D01*
X24222Y-234169D02*
X33822Y-224570D01*
X24222Y-206860D02*
X33822Y-216460D01*
X24222Y-212517D02*
X33822Y-222117D01*
X24222Y-218174D02*
X33822Y-227774D01*
X24222Y-251140D02*
X33821Y-241540D01*
X24222Y-240801D02*
X33821Y-250401D01*
X24222Y-246458D02*
X33821Y-256058D01*
X24222Y-239826D02*
X33822Y-230226D01*
X24222Y-229488D02*
X33821Y-239087D01*
X24222Y-235145D02*
X33821Y-244744D01*
X23845Y-87689D02*
X34450Y-98295D01*
X21016Y-90518D02*
X33822Y-103323D01*
X18188Y-93346D02*
X33822Y-108980D01*
X14985Y-95799D02*
X33822Y-114637D01*
X9328Y-95799D02*
X33822Y-120294D01*
X3671Y-95799D02*
X33822Y-125951D01*
X-7668Y-90118D02*
X33822Y-131608D01*
X24001Y-126910D02*
X33822Y-117089D01*
X24222Y-132346D02*
X33822Y-122746D01*
X24222Y-138003D02*
X33822Y-128402D01*
X15637Y-118304D02*
X34139Y-99801D01*
X18465Y-121132D02*
X33822Y-105775D01*
X21294Y-123960D02*
X33822Y-111432D01*
X24222Y-149316D02*
X33822Y-139716D01*
X24222Y-138978D02*
X33822Y-148578D01*
X24222Y-144635D02*
X33822Y-154235D01*
X24204Y-127646D02*
X33822Y-137265D01*
X24222Y-133321D02*
X33822Y-142921D01*
X24222Y-143659D02*
X33822Y-134059D01*
X24222Y-166287D02*
X33822Y-156687D01*
X24222Y-155949D02*
X33822Y-165549D01*
X24222Y-161606D02*
X33822Y-171205D01*
X24222Y-154973D02*
X33822Y-145373D01*
X24222Y-150292D02*
X33822Y-159892D01*
X24222Y-160630D02*
X33822Y-151030D01*
X24222Y-256796D02*
X33821Y-247197D01*
X24222Y-252115D02*
X33821Y-261715D01*
X24222Y-262453D02*
X33821Y-252854D01*
X24222Y-171944D02*
X33822Y-162344D01*
X24222Y-167262D02*
X33822Y-176862D01*
X24222Y-245483D02*
X33822Y-235883D01*
X24222Y-262453D02*
X33821Y-252854D01*
X24222Y-257772D02*
X33821Y-267371D01*
X24222Y-263429D02*
X33821Y-273028D01*
X22888Y-267752D02*
X33821Y-278685D01*
X20060Y-270580D02*
X33821Y-284342D01*
X17232Y-273409D02*
X33821Y-289999D01*
X14403Y-276237D02*
X33821Y-295655D01*
X11575Y-279066D02*
X33821Y-301312D01*
X8746Y-281894D02*
X33821Y-306969D01*
X5918Y-284722D02*
X33821Y-312626D01*
X3089Y-287551D02*
X33821Y-318283D01*
X3089Y-287551D02*
X33821Y-318283D01*
X1081Y-353477D02*
X33821Y-320736D01*
X5522Y-354693D02*
X33821Y-326393D01*
X8852Y-357019D02*
X33821Y-332050D01*
X261Y-290379D02*
X33821Y-323940D01*
X-2568Y-293208D02*
X33821Y-329596D01*
X-6077Y-354977D02*
X33821Y-315080D01*
X23450Y-70790D02*
X23794D01*
X23133Y-70921D02*
X23450Y-70790D01*
X24003Y-70877D02*
X24399Y-71273D01*
X23794Y-70790D02*
X24111Y-70921D01*
X19857Y-70790D02*
X20174Y-70921D01*
X19513Y-70790D02*
X19857D01*
X22657Y-71685D02*
X23552Y-70790D01*
X24111Y-70921D02*
X24354Y-71164D01*
X22890D02*
X23133Y-70921D01*
X24354Y-71164D02*
X24486Y-71482D01*
X20417Y-71164D02*
X20535Y-71450D01*
X20174Y-70921D02*
X20417Y-71164D01*
X22772Y-71450D02*
X22890Y-71164D01*
X14269Y-49979D02*
Y-49628D01*
X14134Y-49303D02*
X14269Y-49628D01*
X14134Y-50303D02*
X14269Y-49979D01*
X13428Y-48865D02*
X13886Y-49054D01*
X13131Y-48666D02*
X13428Y-48865D01*
X13886Y-49054D02*
X14134Y-49303D01*
X19196Y-70921D02*
X19513Y-70790D01*
X18953Y-71164D02*
X19196Y-70921D01*
X18822Y-71825D02*
Y-71482D01*
X13886Y-50552D02*
X14134Y-50303D01*
X13428Y-50741D02*
X13886Y-50552D01*
X18822Y-71482D02*
X18953Y-71164D01*
X29298Y-82138D02*
X29595Y-81939D01*
X24486Y-71825D02*
Y-71482D01*
X28946Y-82207D02*
X29298Y-82138D01*
X27837Y-83476D02*
X29145Y-82168D01*
X24354Y-72143D02*
X24486Y-71825D01*
X24111Y-72386D02*
X24354Y-72143D01*
X23794Y-72517D02*
X24111Y-72386D01*
X28568Y-82207D02*
X28946D01*
X28251Y-82339D02*
X28568Y-82207D01*
X28008Y-82582D02*
X28251Y-82339D01*
X27877Y-82899D02*
X28008Y-82582D01*
X27877Y-83277D02*
Y-82899D01*
X27807Y-83628D02*
X27877Y-83277D01*
X22772Y-71858D02*
X22890Y-72143D01*
X20417D02*
X20535Y-71858D01*
X20174Y-72386D02*
X20417Y-72143D01*
X18953D02*
X19196Y-72386D01*
X18822Y-71825D02*
X18953Y-72143D01*
X18859Y-71390D02*
X19948Y-72479D01*
X23133Y-72386D02*
X23450Y-72517D01*
X22890Y-72143D02*
X23133Y-72386D01*
X23450Y-72517D02*
X23794D01*
X19513D02*
X19857D01*
X19196Y-72386D02*
X19513Y-72517D01*
X19857D02*
X20174Y-72386D01*
X13131Y-50940D02*
X13428Y-50741D01*
X12932Y-48368D02*
X13131Y-48666D01*
X12932Y-51238D02*
X13131Y-50940D01*
X12862Y-51589D02*
X12932Y-51238D01*
X12862Y-48017D02*
X12932Y-48368D01*
X12862Y-48017D02*
Y-46471D01*
X-7668Y-33549D02*
X12862Y-54079D01*
X12937Y-73920D02*
X13068Y-74238D01*
X12862Y-63793D02*
Y-51589D01*
X13068Y-74581D02*
Y-74238D01*
X-7668Y-73726D02*
X12862Y-53196D01*
X3957Y-72698D02*
X12862Y-63793D01*
X12694Y-73677D02*
X12937Y-73920D01*
X11716Y-73677D02*
X12033Y-73546D01*
X3758Y-72996D02*
X3957Y-72698D01*
X3688Y-73347D02*
X3758Y-73698D01*
X-7668Y-50520D02*
X9234Y-67421D01*
X-7668Y-56177D02*
X6405Y-70250D01*
X3688Y-73347D02*
X3758Y-72996D01*
X12376Y-73546D02*
X12694Y-73677D01*
X12033Y-73546D02*
X12376D01*
X11473Y-73920D02*
X11716Y-73677D01*
X11341Y-74238D02*
X11473Y-73920D01*
X3841Y-73822D02*
X4013Y-74238D01*
Y-74581D02*
Y-74238D01*
X12937Y-74899D02*
X13068Y-74581D01*
X11341D02*
X11473Y-74899D01*
X11716Y-75141D01*
X11341Y-74581D02*
Y-74238D01*
X3882Y-74899D02*
X4013Y-74581D01*
X2368Y-75004D02*
X3744Y-73628D01*
X12694Y-75142D02*
X12937Y-74899D01*
X12033Y-75273D02*
X12376D01*
X12694Y-75142D01*
X3639D02*
X3882Y-74899D01*
X3321Y-75273D02*
X3639Y-75142D01*
X11716Y-75141D02*
X12033Y-75273D01*
X2087Y-74948D02*
X2438Y-75018D01*
X1736D02*
X2087Y-74948D01*
X2562Y-75101D02*
X2978Y-75273D01*
X1438Y-75217D02*
X1736Y-75018D01*
X-7668Y-67490D02*
X748Y-75907D01*
X-7668Y-73147D02*
X-2080Y-78735D01*
X2978Y-75273D02*
X3321D01*
X-3011Y-79666D02*
X1438Y-75217D01*
X-3210Y-79964D02*
X-3011Y-79666D01*
X-3280Y-80315D02*
X-3210Y-79964D01*
X-7668Y-85040D02*
X-3280Y-80652D01*
Y-91339D02*
Y-80315D01*
X27608Y-83926D02*
X27807Y-83628D01*
X24222Y-265354D02*
Y-127953D01*
X16003Y-95531D02*
X27608Y-83926D01*
X9212Y-237105D02*
X19085Y-246978D01*
Y-264290D02*
Y-129017D01*
X12614Y-364571D02*
X33821Y-343364D01*
X1732Y-240939D02*
X19085Y-258292D01*
X6002Y-239551D02*
X19085Y-252635D01*
X11268Y-360260D02*
X33821Y-337707D01*
X15706Y-95730D02*
X16003Y-95531D01*
X15354Y-95799D02*
X15706Y-95730D01*
X6826Y-217624D02*
X19085Y-205365D01*
X4323Y-106990D02*
X15553Y-95760D01*
X1495Y-104162D02*
X9857Y-95799D01*
X2837Y-215956D02*
X19085Y-199708D01*
X12706Y-228715D02*
X19085Y-222336D01*
X11896Y-223868D02*
X19085Y-216679D01*
X12678Y-229258D02*
X19085Y-235664D01*
X10923Y-221845D02*
X19085Y-230008D01*
X9825Y-220282D02*
X19085Y-211022D01*
X11508Y-233744D02*
X19085Y-241321D01*
X33646Y-372073D02*
X33821Y-370747D01*
X33821Y-370079D02*
X33821Y-370747D01*
X19535Y-380278D02*
X33821Y-365991D01*
X11676Y-371166D02*
X33821Y-349021D01*
X8221Y-380278D02*
X33821Y-354678D01*
X13878Y-380278D02*
X33821Y-360335D01*
X33300Y-373364D02*
X33646Y-372073D01*
X32789Y-374599D02*
X33300Y-373364D01*
X32120Y-375757D02*
X32789Y-374599D01*
X31306Y-376818D02*
X32120Y-375757D01*
X30361Y-377763D02*
X31306Y-376818D01*
X25328Y-380141D02*
X33684Y-371785D01*
X29300Y-378577D02*
X30361Y-377763D01*
X12660Y-365004D02*
X27265Y-379609D01*
X12084Y-370085D02*
X22277Y-380278D01*
X7261Y-376575D02*
X10963Y-380278D01*
X2564D02*
X5024Y-377818D01*
X10144Y-373801D02*
X16620Y-380278D01*
X28142Y-379246D02*
X29300Y-378577D01*
X26907Y-379757D02*
X28142Y-379246D01*
X25616Y-380103D02*
X26907Y-379757D01*
X23622Y-380278D02*
X24290D01*
X3414Y-378386D02*
X5306Y-380278D01*
X24290D02*
X25616Y-380103D01*
X1387Y-121239D02*
X6347Y-116279D01*
X1387Y-115582D02*
X3519Y-113451D01*
X1387Y-116144D02*
X19085Y-133841D01*
X1387Y-126896D02*
X9176Y-119108D01*
X1181Y-95799D02*
X15354D01*
X-1334Y-101333D02*
X4200Y-95799D01*
X1387Y-127457D02*
X19085Y-145155D01*
X1387Y-143867D02*
X17661Y-127593D01*
X1387Y-149523D02*
X19085Y-131826D01*
X1387Y-138210D02*
X14833Y-124764D01*
X1387Y-132553D02*
X12004Y-121936D01*
X1387Y-121800D02*
X19085Y-139498D01*
X-3210Y-91690D02*
X-3011Y-91987D01*
X-3280Y-91339D02*
X-3210Y-91690D01*
X-3011Y-91987D02*
X532Y-95531D01*
X-6991Y-95676D02*
X-3128Y-91813D01*
X-7668Y-84461D02*
X-3280Y-88849D01*
X-4162Y-98505D02*
X-328Y-94670D01*
X830Y-95730D02*
X1181Y-95799D01*
X532Y-95531D02*
X830Y-95730D01*
X-3230Y-108886D02*
X-2138Y-107794D01*
X-6058Y-106057D02*
X-4966Y-104965D01*
X-401Y-111714D02*
X691Y-110622D01*
X1387Y-167055D02*
X19085Y-184753D01*
X1387Y-161398D02*
X19085Y-179096D01*
X1387Y-172712D02*
X19085Y-190410D01*
X1387Y-172151D02*
X19085Y-154453D01*
X1387Y-150085D02*
X19085Y-167782D01*
X1387Y-155741D02*
X19085Y-173439D01*
X-3479Y-179159D02*
X19085Y-201723D01*
X-651Y-176330D02*
X19085Y-196066D01*
X-2815Y-215951D02*
X19085Y-194051D01*
X-4712Y-240152D02*
X19085Y-263949D01*
X-6308Y-181987D02*
X19085Y-207380D01*
X-5396Y-296036D02*
X33821Y-335253D01*
X1387Y-138771D02*
X19085Y-156468D01*
X1387Y-155180D02*
X19085Y-137483D01*
X1387Y-160837D02*
X19085Y-143140D01*
X1387Y-133114D02*
X19085Y-150812D01*
X-3750Y-172164D02*
Y-115631D01*
X1387Y-173228D02*
Y-114567D01*
Y-166494D02*
X19085Y-148796D01*
X1387Y-144428D02*
X19085Y-162125D01*
X-3093Y-380278D02*
X-1570Y-378755D01*
X-1922Y-378707D02*
X-350Y-380278D01*
X-9081Y83252D02*
X4396Y96729D01*
X-9224Y96422D02*
X-3079Y96813D01*
X-12739Y95973D02*
X-1Y83235D01*
X-9989Y76687D02*
X-7724Y78952D01*
X-18853Y83252D02*
X-3937D01*
X-17622Y95199D02*
X-5675Y83252D01*
X-14738D02*
X-1177Y96813D01*
X-9100Y74409D02*
Y76687D01*
X-10424D02*
X-9100Y75363D01*
Y72132D02*
Y74409D01*
X-17963Y78952D02*
X-3937D01*
X-11378Y72132D02*
X-9100D01*
X-12689Y78952D02*
X-10424Y76687D01*
X-13656D02*
X-11378D01*
X-15331Y95641D02*
X-9224Y96422D01*
X-13656Y74409D02*
Y76687D01*
X-18154Y78761D02*
X-13656Y74262D01*
X-11378Y76687D02*
X-9100D01*
X-10274Y76402D02*
X-9989Y76687D01*
X-13656Y72132D02*
X-11378D01*
X-13656Y73021D02*
X-13371Y73306D01*
X-13656Y72132D02*
Y74409D01*
X-13084Y67935D02*
X-2068Y78952D01*
X-11525Y72132D02*
X-7329Y67935D01*
X-9843Y64979D02*
X18110D01*
X-9100Y75363D02*
X-1672Y67935D01*
X-19161Y65135D02*
X52774D01*
X-15335Y54371D02*
X-7127Y62580D01*
X-15335Y48714D02*
X-1470Y62580D01*
X-9346D02*
X17613D01*
X-11316Y60609D02*
X-4991Y54284D01*
X-15335Y53314D02*
X-6252Y44231D01*
X-14145Y57780D02*
X-8670Y52305D01*
X-15335Y47657D02*
X-9080Y41402D01*
X-15843Y65135D02*
X-13013Y62306D01*
X-18741Y67935D02*
X-13656Y73021D01*
X-19161Y61953D02*
Y65135D01*
X-15335Y56590D02*
X-9346Y62580D01*
X-17384Y57935D02*
X-10691Y64628D01*
X-15335Y44882D02*
Y56590D01*
X-17735Y45379D02*
Y57087D01*
X-22311Y94231D02*
X-11332Y83252D01*
X-21377Y94474D02*
X-15331Y95641D01*
X-35502Y73802D02*
X-13419Y95886D01*
X-26801Y93064D02*
X-16989Y83252D01*
X-29995Y73652D02*
X-7090Y96558D01*
X-19787Y67935D02*
X53681D01*
X-20983Y75932D02*
X-12986Y67935D01*
X-19184Y61835D02*
X-15885Y65135D01*
X-28559Y68357D02*
X-17963Y78952D01*
X-23811Y73104D02*
X-18643Y67935D01*
X-28559Y63775D02*
X-13381Y78952D01*
X-29831Y73165D02*
X-20374Y82623D01*
X-27337Y92925D02*
X-21377Y94474D01*
X-26640Y70275D02*
X-24159Y67794D01*
X-35502Y79459D02*
X-20274Y94687D01*
X-31085Y91691D02*
X-21195Y81801D01*
X-35230Y90180D02*
X-24023Y78973D01*
X-21254Y69402D02*
X-19787Y67935D01*
X-21903Y69670D02*
X-21551Y69601D01*
X-19231Y61602D02*
X-19161Y61953D01*
X-22254Y69601D02*
X-21903Y69670D01*
X-22551Y69402D02*
X-22254Y69601D01*
X-28559Y63394D02*
X-22551Y69402D01*
X-19161Y62797D02*
X-15842Y59477D01*
X-19430Y61304D02*
X-19231Y61602D01*
X-20291Y58270D02*
X-17735Y55714D01*
X-20291Y55072D02*
X-10228Y65135D01*
X-20291Y60443D02*
X-19430Y61304D01*
X-20565Y52887D02*
X-17735Y50058D01*
X-31340Y19143D02*
X-2175Y48308D01*
X-23336Y50001D02*
X-18225Y44890D01*
X-41320Y17073D02*
X-8331Y50061D01*
X-49031Y15018D02*
X-17735Y46314D01*
X-49031Y20675D02*
X-17735Y51971D01*
X-41320Y11416D02*
X-2175Y50561D01*
X-24591Y54828D02*
Y57726D01*
X-25901Y55119D02*
X-24591Y56429D01*
X-20291Y53937D02*
Y60443D01*
X-28559Y60881D02*
X-24591Y56913D01*
X-28559Y61253D02*
X-24591Y57726D01*
X-26164Y47173D02*
X-21053Y42061D01*
X-25948Y53470D02*
X-24591Y54828D01*
X-49031Y24306D02*
X-20921Y52417D01*
X-8276Y34942D02*
X-6397Y33062D01*
X-11105Y32113D02*
X-9225Y30234D01*
X-13967Y4828D02*
X8849Y27643D01*
X-12049Y6151D02*
X8849Y27048D01*
X-18348Y10875D02*
X5305Y34528D01*
X-16527Y43193D02*
X-11909Y38574D01*
X-13967Y7991D02*
X8849Y30807D01*
X-8421Y23773D02*
X-6936Y22287D01*
X-11250Y20944D02*
X-9764Y19459D01*
X-8960Y12998D02*
X-7081Y11119D01*
X-11789Y10170D02*
X-9909Y8290D01*
X-13933Y29285D02*
X-12054Y27405D01*
X-19356Y40364D02*
X-14737Y35746D01*
X-16762Y26456D02*
X-14882Y24577D01*
X-19590Y23628D02*
X-17711Y21748D01*
X-14078Y18116D02*
X-12593Y16630D01*
X-16907Y15288D02*
X-15421Y13802D01*
X-13967Y6691D02*
X-12603Y5328D01*
X-19735Y12459D02*
X-18249Y10973D01*
X-7668Y-22814D02*
X21130Y5983D01*
X-7668Y-17157D02*
X21130Y11640D01*
X-7668Y392D02*
X21130Y-28405D01*
X-7668Y-187D02*
X21130Y28611D01*
X-7668Y3267D02*
X13230Y24164D01*
X-7668Y-5844D02*
X21130Y22954D01*
X-7668Y-34128D02*
X21130Y-5331D01*
X-7668Y-10922D02*
X15647Y-34236D01*
X-7668Y-16579D02*
X12911Y-37157D01*
X-7668Y-5265D02*
X18475Y-31408D01*
X-13967Y-32907D02*
X-12805Y-34069D01*
X-13967Y-34770D02*
X-12805Y-33608D01*
X-13967Y-10279D02*
X-12805Y-11442D01*
X-13967Y-6486D02*
X-12805Y-5324D01*
X-13967Y-12143D02*
X-12805Y-10981D01*
X-13967Y-829D02*
X-12805Y333D01*
X-13967Y1034D02*
X-12805Y-128D01*
X-13967Y-4623D02*
X-12805Y-5785D01*
X-13967Y-27250D02*
X-12805Y-28412D01*
X-13967Y-23457D02*
X-12805Y-22294D01*
X-13967Y-29114D02*
X-12805Y-27951D01*
X-13967Y-17800D02*
X-12805Y-16637D01*
X-13967Y-15936D02*
X-12805Y-17099D01*
X-13967Y-21593D02*
X-12805Y-22755D01*
X-24666Y14793D02*
X1369Y40828D01*
X-22184Y37536D02*
X-17566Y32917D01*
X-20285Y11909D02*
X5305Y37500D01*
X-26959Y14463D02*
X1369Y42790D01*
X-41320Y18401D02*
X-15687Y44033D01*
X-43368Y19746D02*
X-17735Y45379D01*
X-26959Y16259D02*
X1369Y44587D01*
X-20285Y1695D02*
X-19104Y514D01*
X-20285Y4166D02*
X-19104Y5347D01*
X-20285Y-1491D02*
X-19104Y-309D01*
X-20285Y9823D02*
X5305Y35414D01*
X-25013Y34707D02*
X-20394Y30089D01*
X-20285Y7352D02*
X-19104Y6171D01*
X-22419Y20799D02*
X-20539Y18920D01*
X-25247Y17971D02*
X-23368Y16092D01*
X-27841Y31879D02*
X-23223Y27260D01*
X-28993Y44344D02*
X-23881Y39233D01*
X-26959Y2713D02*
X-25422Y1176D01*
X-26959Y3149D02*
X-25422Y4686D01*
X-26959Y-2508D02*
X-25422Y-971D01*
X-26959Y8806D02*
X-25422Y10343D01*
X-26959Y14026D02*
X-25422Y12489D01*
X-26959Y8369D02*
X-25422Y6832D01*
X-20285Y-15275D02*
X-19104Y-16456D01*
X-20285Y-12804D02*
X-19104Y-11623D01*
X-20285Y-18461D02*
X-19104Y-17280D01*
X-20285Y-7147D02*
X-19104Y-5966D01*
X-20285Y-3961D02*
X-19104Y-5142D01*
X-20285Y-9618D02*
X-19104Y-10799D01*
X-20285Y-32246D02*
X-19104Y-33427D01*
X-20285Y-29775D02*
X-19104Y-28594D01*
X-20285Y-35432D02*
X-19104Y-34251D01*
X-20285Y-24118D02*
X-19104Y-22937D01*
X-20285Y-20932D02*
X-19104Y-22113D01*
X-20285Y-26589D02*
X-19104Y-27770D01*
X-26959Y-14258D02*
X-25422Y-15795D01*
X-26959Y-13821D02*
X-25422Y-12284D01*
X-26959Y-19478D02*
X-25422Y-17941D01*
X-26959Y-8164D02*
X-25422Y-6628D01*
X-26959Y-2944D02*
X-25422Y-4481D01*
X-26959Y-8601D02*
X-25422Y-10138D01*
X-26959Y-31229D02*
X-25422Y-32765D01*
X-26959Y-30792D02*
X-25422Y-29255D01*
X-26959Y-36449D02*
X-25422Y-34912D01*
X-26959Y-25135D02*
X-25422Y-23598D01*
X-26959Y-19915D02*
X-25422Y-21452D01*
X-26959Y-25572D02*
X-25422Y-27109D01*
X-29972Y73608D02*
X-29680Y73316D01*
X-28559Y63394D02*
Y68357D01*
X-33186Y91000D02*
X-27337Y92925D01*
X-35502Y85116D02*
X-27868Y92750D01*
X-35502Y84794D02*
X-26852Y76144D01*
X-28559Y58118D02*
X-26899Y59778D01*
X-28559Y66537D02*
X-26987Y64966D01*
X-28559Y54860D02*
Y61253D01*
X-35502Y79137D02*
X-30634Y74270D01*
X-32229Y70767D02*
X-31531Y71465D01*
X-35502Y73481D02*
X-32483Y70462D01*
X-35502Y90071D02*
X-33186Y91000D01*
X-35502Y71107D02*
Y90071D01*
X-35540Y70627D02*
X-35288Y70928D01*
X-32859Y54434D02*
Y69247D01*
X-39316Y65981D02*
X-32859Y59524D01*
X-36735Y69057D02*
X-32859Y65181D01*
X-41897Y62905D02*
X-33142Y54150D01*
X-30101Y51110D02*
X-29205Y50213D01*
X-31821Y41516D02*
X-26710Y36404D01*
X-32930Y48281D02*
X-32034Y47385D01*
X-34650Y38688D02*
X-29538Y33576D01*
X-30670Y29051D02*
X-26051Y24432D01*
X-33498Y26222D02*
X-28879Y21603D01*
X-36327Y23394D02*
X-31671Y18738D01*
X-39155Y20565D02*
X-32096Y13506D01*
X-35758Y45453D02*
X-34862Y44557D01*
X-38587Y42625D02*
X-37690Y41728D01*
X-37478Y35859D02*
X-32367Y30748D01*
X-44478Y59829D02*
X-35971Y51322D01*
X-41415Y39796D02*
X-40519Y38900D01*
X-44244Y36968D02*
X-43347Y36071D01*
X-40307Y33031D02*
X-35195Y27919D01*
X-43135Y30202D02*
X-38024Y25091D01*
X-43720Y8263D02*
Y18898D01*
X-45963Y27374D02*
X-40852Y22262D01*
X-47918Y55729D02*
X-32018Y71630D01*
X-47059Y56753D02*
X-38799Y48494D01*
X-52701Y26717D02*
X-26305Y53114D01*
X-49640Y53677D02*
X-41627Y45665D01*
X-53362Y27658D02*
X-27954Y53066D01*
X-57032Y30260D02*
X-32859Y54434D01*
X-74689Y23825D02*
X-35717Y70271D01*
X-52221Y50602D02*
X-44456Y42837D01*
X-47072Y34139D02*
X-46176Y33243D01*
X-49900Y31311D02*
X-49004Y30414D01*
X-54802Y47526D02*
X-47284Y40008D01*
X-57383Y44450D02*
X-50113Y37180D01*
X-53362Y27850D02*
X-29188Y52023D01*
X-59964Y41374D02*
X-52941Y34352D01*
X-62545Y38298D02*
X-55769Y31523D01*
X-65126Y35222D02*
X-57662Y27758D01*
X-67707Y32146D02*
X-57662Y22102D01*
X-52729Y28482D02*
X-51832Y27586D01*
X-75881Y23493D02*
X-75417Y23103D01*
X-93966Y23318D02*
X-75881Y23493D01*
X-75417Y23103D02*
X-75014Y23583D01*
X-57662Y-12889D02*
Y28740D01*
X-72868Y25995D02*
X-57662Y10788D01*
X-53362Y-13780D02*
Y27850D01*
X-96748Y-4414D02*
X-32859Y59475D01*
X-96851Y1139D02*
X-32859Y65132D01*
X-96345Y-9668D02*
X-57641Y29035D01*
X-48792Y24545D02*
X-43621Y19374D01*
X-49031Y19128D02*
X-43720Y13816D01*
X-49031Y-18504D02*
Y24306D01*
X-76022Y23491D02*
X-57662Y5131D01*
X-72582Y8438D02*
X-57662Y23358D01*
X-53331Y-17613D02*
Y25197D01*
X-70288Y29070D02*
X-57662Y16445D01*
X-84658Y18990D02*
X-80196Y23451D01*
X-81625Y23437D02*
X-67245Y9058D01*
X-95929Y13375D02*
X-85908Y23396D01*
X-94700Y20261D02*
X-91620Y23341D01*
X-87228Y23383D02*
X-72371Y8527D01*
X-92830Y23329D02*
X-86886Y17385D01*
X-94857Y19607D02*
X-93966Y23318D01*
X-95911Y13541D02*
X-94857Y19607D01*
X-94839Y19681D02*
X-77736Y2578D01*
X-37409Y4013D02*
X-32096Y9326D01*
X-36595Y-830D02*
X-32096Y3669D01*
X-40463Y6616D02*
X-32096Y14983D01*
X-41320Y17073D02*
X-32096Y7850D01*
X-41320Y11416D02*
X-32096Y2193D01*
X-36595Y-6487D02*
X-32096Y-1988D01*
X-36197Y636D02*
X-32096Y-3464D01*
X-36595Y-4622D02*
X-32096Y-9121D01*
X-36595Y-7087D02*
Y5D01*
X-41320Y8263D02*
Y18401D01*
X-49031Y7814D02*
X-38995Y-2222D01*
X-49031Y9361D02*
X-43720Y14673D01*
X-49031Y13471D02*
X-43737Y8177D01*
X-49031Y3705D02*
X-43720Y9016D01*
X-40756Y5195D02*
X-39127Y3567D01*
X-38995Y-6590D02*
Y5D01*
X-49031Y2157D02*
X-39640Y-7234D01*
X-49031Y-1952D02*
X-42836Y4242D01*
X-49031Y-7609D02*
X-39840Y1582D01*
X-37943Y-8931D02*
X-32096Y-14778D01*
X-42895Y-13883D02*
X-36947Y-7935D01*
X-40771Y-11760D02*
X-32096Y-20435D01*
X-49031Y-13266D02*
X-38995Y-3230D01*
X-44943Y-12537D02*
X-38995Y-6590D01*
X-42895Y-18443D02*
X-32096Y-7645D01*
X-33807Y-26327D02*
X-32096Y-24615D01*
X-34803Y-29041D02*
X-32096Y-31748D01*
X-42895Y-15293D02*
X-32096Y-26092D01*
X-41674Y-22170D02*
X-36128Y-27716D01*
X-42895Y-18631D02*
Y-13883D01*
X-45294Y-18631D02*
Y-13386D01*
X-49031Y-3500D02*
X-42468Y-10063D01*
X-49031Y-9156D02*
X-45219Y-12968D01*
X-41620Y-21654D02*
Y-20866D01*
X-49031Y-14813D02*
X-45294Y-18550D01*
X-46569Y-21654D02*
Y-20866D01*
X-59840Y1653D02*
X-57662Y-526D01*
X-60431Y3618D02*
X-57662Y6388D01*
X-60371Y-3474D02*
X-57662Y-6183D01*
X-59799Y-1406D02*
X-57662Y731D01*
X-62804Y6902D02*
X-57662Y12044D01*
X-66479Y8884D02*
X-57662Y17701D01*
X-49083Y-18975D02*
X-45294Y-15186D01*
X-54097Y-15405D02*
X-53331Y-16170D01*
X-62696Y-6805D02*
X-57662Y-11840D01*
X-63725Y-18952D02*
X-57662Y-12889D01*
X-85765Y16263D02*
X-75703Y6202D01*
X-95681Y14866D02*
X-77479Y-3336D01*
X-96594Y7053D02*
X-86706Y16941D01*
X-96578Y7419D02*
X-95911Y13541D01*
X-96854Y1268D02*
X-96578Y7419D01*
X-66319Y-8839D02*
X-59965Y-15193D01*
X-95696Y-14676D02*
X-77335Y3685D01*
X-72233Y-8582D02*
X-62794Y-18021D01*
X-96739Y-4888D02*
X-96233Y-11025D01*
X-96854Y1268D02*
X-96739Y-4888D01*
X-96233Y-11025D02*
X-95338Y-17117D01*
X-56925Y-18233D02*
X-55438Y-19720D01*
X-60684Y-21993D02*
X-53992Y-15300D01*
X-64512Y-28795D02*
X-53331Y-17613D01*
X-96314Y9842D02*
X-61095Y-25377D01*
X-89547Y-36811D02*
X-57662Y-4926D01*
X-59753Y-21062D02*
X-58266Y-22549D01*
X-49572Y-19930D02*
X-32096Y-37405D01*
X-60842Y-31205D02*
X-49661Y-20024D01*
X-60842Y-36391D02*
X-46532Y-22081D01*
X-93792Y-24086D02*
X-75800Y-6094D01*
X-94837Y-19474D02*
X-77781Y-2418D01*
X-92555Y-28506D02*
X-72516Y-8466D01*
X-96705Y4577D02*
X-63923Y-28205D01*
X-96812Y-974D02*
X-65142Y-32643D01*
X-96575Y-6867D02*
X-65142Y-38300D01*
X-91118Y-32725D02*
X-67492Y-9099D01*
X-94058Y-23140D02*
X-92397Y-29070D01*
X-95338Y-17117D02*
X-94058Y-23140D01*
X-92397Y-29070D02*
X-90364Y-34881D01*
X-7668Y-51099D02*
X21130Y-22301D01*
X-7668Y-27893D02*
X14269Y-49829D01*
X-7668Y-56755D02*
X21130Y-27958D01*
X-7668Y-39206D02*
X12862Y-59736D01*
X-7668Y-39785D02*
X21130Y-10988D01*
X-7668Y-22236D02*
X12862Y-42765D01*
X-7668Y-45442D02*
X21130Y-16644D01*
X-7668Y-68069D02*
X12862Y-47539D01*
X-7668Y-44863D02*
X12062Y-64593D01*
X-7668Y-61834D02*
X3714Y-73216D01*
X-7668Y-62412D02*
X12862Y-41883D01*
X-13967Y-72505D02*
X-12805Y-73667D01*
X-13967Y-74368D02*
X-12805Y-73206D01*
X-13967Y-49878D02*
X-12805Y-51040D01*
X-13967Y-46084D02*
X-12805Y-44922D01*
X-13967Y-51741D02*
X-12805Y-50579D01*
X-13967Y-40427D02*
X-12805Y-39265D01*
X-13967Y-38564D02*
X-12805Y-39726D01*
X-13967Y-44221D02*
X-12805Y-45383D01*
X-13967Y-66848D02*
X-12805Y-68010D01*
X-13967Y-63055D02*
X-12805Y-61892D01*
X-13967Y-68711D02*
X-12805Y-67549D01*
X-13967Y-57398D02*
X-12805Y-56235D01*
X-13967Y-55534D02*
X-12805Y-56697D01*
X-13967Y-61191D02*
X-12805Y-62353D01*
X-7668Y-79383D02*
X12862Y-58853D01*
X-7668Y-78804D02*
X-3280Y-83192D01*
X-7668Y-94999D02*
X23466Y-126133D01*
X-7668Y-90696D02*
X-3280Y-86309D01*
X-7668Y-94999D02*
Y3267D01*
X-12049Y-97883D02*
X19085Y-129017D01*
X-8887Y-103229D02*
X-7795Y-102137D01*
X-11715Y-100401D02*
X-10623Y-99309D01*
X-13967Y-98149D02*
X631Y-112747D01*
X-14769Y-165679D02*
X-3750Y-154660D01*
X-15542Y-127499D02*
X-3750Y-139291D01*
X-15542Y-155783D02*
X-3750Y-167575D01*
X-13967Y-85682D02*
X-12805Y-84520D01*
X-13967Y-83819D02*
X-12805Y-84981D01*
Y-96063D02*
Y4331D01*
X-13967Y-80025D02*
X-12805Y-78863D01*
X-13967Y-78162D02*
X-12805Y-79324D01*
X-13967Y-98149D02*
Y7991D01*
Y-95132D02*
X-12793Y-96306D01*
X-13967Y-96996D02*
X-12805Y-95833D01*
X-13967Y-91339D02*
X-12805Y-90177D01*
X-13967Y-89475D02*
X-12805Y-90638D01*
X-15542Y-164208D02*
Y-105905D01*
X-20285Y-88814D02*
X-19104Y-89995D01*
X-20285Y-86343D02*
X-19104Y-85162D01*
Y-99213D02*
Y9055D01*
X-20285Y-92000D02*
X-19104Y-90819D01*
X-20285Y-80686D02*
X-19104Y-79505D01*
X-20285Y-77500D02*
X-19104Y-78682D01*
X-20285Y-83157D02*
X-19104Y-84338D01*
X-18677Y-101706D02*
X-18176Y-101205D01*
X-20285Y-97657D02*
X-19104Y-96476D01*
X-20285Y-94471D02*
X-19104Y-95652D01*
X-20285Y-100098D02*
X-16298Y-104086D01*
X-20285Y-49216D02*
X-19104Y-50397D01*
X-20285Y-46745D02*
X-19104Y-45564D01*
X-20285Y-52402D02*
X-19104Y-51221D01*
X-20285Y-41088D02*
X-19104Y-39907D01*
X-20285Y-37903D02*
X-19104Y-39084D01*
X-20285Y-43559D02*
X-19104Y-44741D01*
X-20285Y-69373D02*
X-19104Y-68191D01*
X-20285Y-63716D02*
X-19104Y-62535D01*
X-20285Y-71844D02*
X-19104Y-73025D01*
X-20285Y-58059D02*
X-19104Y-56878D01*
X-20285Y-54873D02*
X-19104Y-56054D01*
X-20285Y-60530D02*
X-19104Y-61711D01*
X-15542Y-133155D02*
X-3750Y-144948D01*
X-15542Y-143825D02*
X-3750Y-132033D01*
X-15542Y-149482D02*
X-3750Y-137690D01*
X-15542Y-121842D02*
X-3750Y-133634D01*
X-15542Y-132512D02*
X-3750Y-120719D01*
X-15542Y-138168D02*
X-3750Y-126376D01*
X-15542Y-160796D02*
X-3750Y-149004D01*
X-15542Y-144469D02*
X-3750Y-156261D01*
X-15542Y-150126D02*
X-3750Y-161918D01*
X-15542Y-155139D02*
X-3750Y-143347D01*
X-15542Y-138812D02*
X-3750Y-150604D01*
X-18298Y-197493D02*
X19085Y-160110D01*
X-15542Y-109884D02*
X-12519Y-106861D01*
X-15904Y-104590D02*
X-15347Y-104033D01*
X-16078Y-104335D02*
X-3750Y-116663D01*
X-18348Y-101032D02*
X-3750Y-115631D01*
X-15542Y-126855D02*
X-4034Y-115347D01*
X-15542Y-121198D02*
X-6862Y-112518D01*
X-15542Y-116185D02*
X-3750Y-127977D01*
X-15542Y-110528D02*
X-3750Y-122320D01*
X-15542Y-115541D02*
X-9691Y-109690D01*
X-33821Y-160131D02*
X-12769Y-181183D01*
X-18298Y-193977D02*
X631Y-175048D01*
X-15542Y-161440D02*
X-4283Y-172698D01*
X-18298Y-220120D02*
X19085Y-182738D01*
X-18298Y-214463D02*
X19085Y-177081D01*
X-18298Y-203150D02*
X19085Y-165767D01*
X-22679Y-191094D02*
X-3750Y-172164D01*
X-18298Y-208806D02*
X19085Y-171424D01*
X-11965Y-187644D02*
X19085Y-218694D01*
X-9136Y-184816D02*
X19085Y-213037D01*
X-14793Y-190473D02*
X19085Y-224351D01*
X-17621Y-193301D02*
X6501Y-217424D01*
X-18298Y-198282D02*
X-911Y-215668D01*
X-18298Y-225777D02*
X19085Y-188394D01*
X-14883Y-167755D02*
X-7112Y-175526D01*
X-18298Y-203939D02*
X-5398Y-216839D01*
X-18316Y-169979D02*
X-9940Y-178355D01*
X-18298Y-240668D02*
Y-193977D01*
Y-226566D02*
X-11806Y-233058D01*
X-18298Y-231434D02*
X-12395Y-225532D01*
X-18298Y-237091D02*
X-12390Y-231184D01*
X-18298Y-209595D02*
X-8759Y-219135D01*
X-18298Y-215252D02*
X-11205Y-222345D01*
X-18298Y-220909D02*
X-12593Y-226614D01*
X-15830Y-306470D02*
X23466Y-267174D01*
X-8224Y-298865D02*
X33821Y-340910D01*
X-18298Y-232223D02*
X16428Y-266948D01*
X-18298Y-237880D02*
X13599Y-269776D01*
X-19462Y-302837D02*
X19085Y-264290D01*
X-11053Y-301693D02*
X33821Y-346567D01*
X-13881Y-304521D02*
X33821Y-352224D01*
X-16210Y-307850D02*
X33821Y-357881D01*
X-20053Y-309664D02*
X33821Y-363537D01*
X-23622Y-380278D02*
X23622Y-380278D01*
X-14673Y-244780D02*
X-8065Y-238172D01*
X-16834Y-241283D02*
X-10723Y-235173D01*
X-15319Y-246515D02*
X10771Y-272605D01*
X-18298Y-240668D02*
X-17940Y-241026D01*
X-14406Y-380278D02*
X-9122Y-374993D01*
X-20063Y-380278D02*
X-11449Y-371663D01*
X-8750Y-380278D02*
X-5882Y-377410D01*
X-29513Y-378414D02*
X-11164Y-360065D01*
X-25554Y-380111D02*
X-12665Y-367222D01*
X-33821Y-239327D02*
X5114Y-278262D01*
X-33821Y-275242D02*
X368Y-241052D01*
X-33821Y-292212D02*
X19085Y-239306D01*
X-33821Y-286555D02*
X19085Y-233649D01*
X-33821Y-233670D02*
X7942Y-275433D01*
X-33821Y-201702D02*
X-3750Y-171631D01*
X-33821Y-280898D02*
X19085Y-227992D01*
X-33821Y-250641D02*
X-543Y-283918D01*
X-33821Y-250641D02*
X-543Y-283919D01*
X-33821Y-256297D02*
X-3371Y-286747D01*
X-33821Y-297869D02*
X19085Y-244963D01*
X-33821Y-244984D02*
X2285Y-281090D01*
X-33821Y-303526D02*
X19085Y-250620D01*
X-33821Y-171445D02*
X-18425Y-186840D01*
X-33821Y-184732D02*
X-18966Y-169877D01*
X-33821Y-269585D02*
X-4479Y-240242D01*
X-33821Y-190389D02*
X-3750Y-160317D01*
X-33821Y-165788D02*
X-15597Y-184012D01*
X-33821Y-196046D02*
X-3750Y-165974D01*
X-33821Y-273268D02*
X-11857Y-295232D01*
X-33821Y-278925D02*
X-14685Y-298061D01*
X-33821Y-284582D02*
X-17514Y-300889D01*
X-33821Y-261954D02*
X-6200Y-289575D01*
X-33821Y-263928D02*
X-17819Y-247925D01*
X-33821Y-267611D02*
X-9028Y-292404D01*
X-33821Y-343124D02*
X33821Y-275481D01*
X-33821Y-348781D02*
X33821Y-281138D01*
X-33821Y-354437D02*
X33821Y-286795D01*
X-33821Y-326153D02*
X33821Y-258511D01*
X-33821Y-331810D02*
X33821Y-264168D01*
X-33821Y-337467D02*
X33821Y-269825D01*
X-33744Y-371331D02*
X33821Y-303766D01*
X-33821Y-307209D02*
X33017Y-374047D01*
X-32264Y-375508D02*
X33821Y-309423D01*
X-33821Y-360094D02*
X33821Y-292452D01*
X-33821Y-365751D02*
X33821Y-298109D01*
X-33821Y-301552D02*
X33821Y-369194D01*
X-33821Y-318523D02*
X1138Y-353482D01*
X-33821Y-324180D02*
X-3943Y-354058D01*
X-33821Y-329837D02*
X-7660Y-355998D01*
X-33821Y-314840D02*
X19085Y-261933D01*
X-33821Y-309183D02*
X19085Y-256277D01*
X-33821Y-312866D02*
X30718Y-377406D01*
X-33821Y-352464D02*
X-6007Y-380278D01*
X-33821Y-358121D02*
X-11664Y-380278D01*
X-33821Y-363778D02*
X-17321Y-380278D01*
X-33821Y-335493D02*
X-10433Y-358881D01*
X-33821Y-341150D02*
X-12244Y-362727D01*
X-33821Y-346807D02*
X-12565Y-368063D01*
X-26959Y-53419D02*
X-25422Y-51882D01*
X-26959Y-48199D02*
X-25422Y-49736D01*
X-26959Y-59076D02*
X-25422Y-57539D01*
X-26959Y-53856D02*
X-25422Y-55393D01*
X-26959Y-42542D02*
X-25422Y-44079D01*
X-26959Y-42106D02*
X-25422Y-40569D01*
X-26959Y-47762D02*
X-25422Y-46225D01*
X-20285Y-66187D02*
X-19104Y-67368D01*
X-26959Y-70390D02*
X-25422Y-68853D01*
X-26959Y-70827D02*
X-25422Y-72364D01*
X-26959Y-64733D02*
X-25422Y-63196D01*
X-26959Y-59513D02*
X-25422Y-61050D01*
X-26959Y-65170D02*
X-25422Y-66707D01*
X-26959Y-36885D02*
X-25422Y-38422D01*
X-52397Y-22761D02*
X-32096Y-43062D01*
X-55226Y-25589D02*
X-32096Y-48719D01*
X-57350Y-49869D02*
X-35878Y-28397D01*
X-57917Y-46003D02*
X-57619Y-46202D01*
X-57350Y-55526D02*
X-32096Y-30272D01*
X-57350Y-55905D02*
Y-46850D01*
X-57420Y-46499D02*
X-57350Y-46850D01*
X-57420Y-56257D02*
X-57350Y-55905D01*
X-57619Y-56554D02*
X-57420Y-56257D01*
X-57619Y-46202D02*
X-57420Y-46499D01*
X-57917Y-56753D02*
X-57619Y-56554D01*
X-20285Y-75029D02*
X-19104Y-73848D01*
X-26959Y-76483D02*
X-25422Y-78020D01*
X-20285Y-100098D02*
Y11909D01*
X-25422Y-101162D02*
Y12973D01*
X-26959Y-76047D02*
X-25422Y-74510D01*
X-26959Y-104000D02*
Y16259D01*
X-32096Y-105064D02*
Y17323D01*
X-26959Y-87360D02*
X-25422Y-85823D01*
X-26959Y-82140D02*
X-25422Y-83677D01*
X-26959Y-87797D02*
X-25422Y-89334D01*
X-26959Y-81704D02*
X-25422Y-80167D01*
X-40012Y-89099D02*
X-32096Y-81184D01*
X-37343Y-92088D02*
X-32096Y-86840D01*
X-50495Y-82612D02*
X-32096Y-64213D01*
X-53939Y-80399D02*
X-32096Y-58556D01*
X-46943Y-84717D02*
X-32096Y-69870D01*
X-57290Y-78093D02*
X-32096Y-52899D01*
X-57350Y-51749D02*
X-32096Y-77003D01*
X-57989Y-56768D02*
X-32096Y-82660D01*
X-43239Y-86670D02*
X-32096Y-75527D01*
X-43878Y-86301D02*
X-42897Y-86868D01*
X-42765Y-86953D02*
X-40922Y-88270D01*
X-51993Y-81725D02*
X-46695Y-84864D01*
X-57081Y-78256D02*
X-51993Y-81725D01*
X-46695Y-84864D02*
X-43952Y-86261D01*
X-60842Y-42048D02*
X-32096Y-13302D01*
X-65142Y-45933D02*
Y-30315D01*
X-58054Y-28418D02*
X-32096Y-54376D01*
X-59070Y-45933D02*
X-32096Y-18958D01*
X-87853Y-40775D02*
X-57662Y-10583D01*
X-85967Y-44546D02*
X-63562Y-22140D01*
X-83964Y-48199D02*
X-53331Y-17566D01*
X-60842Y-45933D02*
X-58268D01*
X-60842D02*
Y-31205D01*
X-58268Y-45933D02*
X-57917Y-46003D01*
X-81862Y-51753D02*
X-65142Y-35034D01*
X-66535Y-45933D02*
X-65142D01*
X-79590Y-55139D02*
X-65142Y-40691D01*
X-66887Y-46003D02*
X-66535Y-45933D01*
X-90364Y-34881D02*
X-87965Y-40552D01*
X-85210Y-46059D01*
X-95916Y-13184D02*
X-65142Y-43957D01*
X-94717Y-20040D02*
X-67453Y-47303D01*
X-92807Y-27606D02*
X-67453Y-52960D01*
X-67184Y-46202D02*
X-66887Y-46003D01*
X-67383Y-46499D02*
X-67184Y-46202D01*
X-67453Y-55905D02*
X-67383Y-56257D01*
X-67453Y-46850D02*
X-67383Y-46499D01*
X-85210Y-46059D02*
X-82112Y-51380D01*
X-67453Y-55905D02*
Y-46850D01*
X-60842Y-36943D02*
X-32096Y-65689D01*
X-60842Y-31286D02*
X-32096Y-60033D01*
X-60842Y-42600D02*
X-32096Y-71346D01*
X-63551Y-73041D02*
X-32096Y-41586D01*
X-66549Y-70381D02*
X-32096Y-35929D01*
X-89759Y-36311D02*
X-32096Y-93974D01*
X-60469Y-75616D02*
X-32096Y-47243D01*
X-58268Y-56823D02*
X-57917Y-56753D01*
X-61937Y-74472D02*
X-57081Y-78256D01*
X-84573Y-47153D02*
X-47107Y-84620D01*
X-66535Y-56823D02*
X-58268D01*
X-63590D02*
X-32096Y-88317D01*
X-67184Y-56554D02*
X-66887Y-56753D01*
X-67383Y-56257D02*
X-67184Y-56554D01*
X-74739Y-61601D02*
X-67453Y-54315D01*
X-77208Y-58413D02*
X-67453Y-48658D01*
X-82112Y-51380D02*
X-78681Y-56494D01*
X-74933Y-61379D01*
X-69366Y-67542D02*
X-58647Y-56823D01*
X-66887Y-56753D02*
X-66535Y-56823D01*
X-66544Y-70386D02*
X-61937Y-74472D01*
X-72101Y-64620D02*
X-64304Y-56823D01*
X-74933Y-61379D02*
X-70882Y-66016D01*
X-66544Y-70386D01*
X-21360Y-110045D02*
X-20679Y-109364D01*
X-23586Y-106615D02*
X-22310Y-105338D01*
X-20679Y-164208D02*
Y-106969D01*
X-21389Y-110337D02*
X-20679Y-111048D01*
X-24666Y-102982D02*
X-20679Y-106969D01*
X-23435Y-241732D02*
Y-192913D01*
X-24153Y-113230D02*
X-20679Y-116705D01*
X-33821Y-228013D02*
X-23435Y-238400D01*
X-33821Y-241301D02*
X-23435Y-230914D01*
X-26959Y-99111D02*
X-25422Y-100648D01*
X-26959Y-93454D02*
X-25422Y-94991D01*
X-26959Y-93017D02*
X-25422Y-91480D01*
X-26959Y-98674D02*
X-25422Y-97137D01*
X-26959Y-104000D02*
X-24588Y-106372D01*
X-26794Y-104166D02*
X-25077Y-102449D01*
X-31340Y-106884D02*
X-28257Y-109967D01*
X-33821Y-235644D02*
X-23435Y-225257D01*
X-22679Y-243552D02*
X-21572Y-244659D01*
X-33821Y-252614D02*
X-23394Y-242187D01*
X-33821Y-246957D02*
X-23435Y-236571D01*
X-33821Y-258271D02*
X-21315Y-245765D01*
X-33821Y-320496D02*
X-21891Y-308566D01*
X-33821Y-369434D02*
X-22978Y-380278D01*
X-24291Y-380278D02*
X-23622Y-380278D01*
X-33821Y-290239D02*
X-20842Y-303218D01*
X-33821Y-295895D02*
X-22656Y-307061D01*
X-33821Y-320496D02*
X-21891Y-308566D01*
X-32789Y-374599D02*
X-32120Y-375757D01*
X-33301Y-373364D02*
X-32789Y-374599D01*
X-32120Y-375757D02*
X-31306Y-376818D01*
X-33821Y-370747D02*
X-33647Y-372073D01*
X-33821Y-370747D02*
Y-370079D01*
X-33647Y-372073D02*
X-33301Y-373364D01*
X-26908Y-379757D02*
X-25616Y-380103D01*
X-28143Y-379246D02*
X-26908Y-379757D01*
X-25616Y-380103D02*
X-24291Y-380278D01*
X-30361Y-377763D02*
X-29300Y-378577D01*
X-31306Y-376818D02*
X-30361Y-377763D01*
X-29300Y-378577D02*
X-28143Y-379246D01*
X-33821Y-114876D02*
X-20679Y-128018D01*
X-33821Y-122507D02*
X-24601Y-113286D01*
X-33821Y-120533D02*
X-20679Y-133675D01*
X-33821Y-128164D02*
X-20679Y-115021D01*
X-33821Y-116850D02*
X-28031Y-111060D01*
X-33821Y-111193D02*
X-30426Y-107798D01*
X-33821Y-109219D02*
X-20679Y-122362D01*
X-33821Y-145134D02*
X-20679Y-131992D01*
X-33821Y-131847D02*
X-20679Y-144989D01*
X-33821Y-137504D02*
X-20679Y-150646D01*
X-33821Y-126190D02*
X-20679Y-139332D01*
X-33821Y-133820D02*
X-20679Y-120678D01*
X-33821Y-139477D02*
X-20679Y-126335D01*
X-35332Y-95733D02*
X-32096Y-92497D01*
X-36085Y-94108D02*
X-35133Y-96163D01*
X-35058Y-96358D02*
X-34379Y-98519D01*
X-38960Y-90096D02*
X-37515Y-91841D01*
X-40761Y-88401D02*
X-39103Y-89945D01*
X-37393Y-92009D02*
X-36184Y-93925D01*
X-33821Y-103562D02*
X-32085Y-105298D01*
X-33915Y-101106D02*
X-33826Y-102236D01*
X-33821Y-105536D02*
X-32096Y-103811D01*
X-34079Y-100137D02*
X-32096Y-98154D01*
X-34916Y-96811D02*
X-32096Y-99631D01*
X-34330Y-98721D02*
X-33935Y-100951D01*
X-33821Y-162105D02*
X-20679Y-148962D01*
X-33821Y-148817D02*
X-20679Y-161960D01*
X-33821Y-154474D02*
X-21554Y-166741D01*
X-33821Y-143160D02*
X-20679Y-156303D01*
X-33821Y-150791D02*
X-20679Y-137649D01*
X-33821Y-156448D02*
X-20679Y-143305D01*
X-33821Y-177101D02*
X-21254Y-189669D01*
X-33821Y-229987D02*
X-23435Y-219600D01*
X-33821Y-222356D02*
X-23435Y-232743D01*
X-33821Y-173418D02*
X-20679Y-160276D01*
X-33821Y-167761D02*
X-20679Y-154619D01*
X-33821Y-179075D02*
X-21549Y-166804D01*
X-33821Y-207359D02*
X-23435Y-196973D01*
X-33821Y-194072D02*
X-23435Y-204458D01*
X-33821Y-199729D02*
X-23435Y-210115D01*
X-33821Y-188415D02*
X-23435Y-198802D01*
X-33821Y-182758D02*
X-23435Y-193145D01*
X-33821Y-102362D02*
X-33821Y-370079D01*
X-33821Y-224330D02*
X-23435Y-213944D01*
X-33821Y-211042D02*
X-23435Y-221429D01*
X-33821Y-216699D02*
X-23435Y-227086D01*
X-33821Y-205386D02*
X-23435Y-215772D01*
X-33821Y-213016D02*
X-23435Y-202630D01*
X-33821Y-218673D02*
X-23435Y-208287D01*
X-42520Y18898D02*
X-16535Y44882D01*
X-42520Y6299D02*
Y18898D01*
X-16535Y44882D02*
Y57087D01*
X18110Y63779D02*
X26772Y55118D01*
X-9843Y63779D02*
X18110D01*
X26772Y55118D02*
X74016D01*
X-37795Y-7087D02*
Y1969D01*
X-44094Y-21260D02*
Y-13386D01*
X-37795Y-7087D01*
X-16535Y57087D02*
X-9843Y63779D01*
X74016Y55118D02*
X79528Y49606D01*
X11361Y42525D02*
Y43364D01*
X11024Y43701D02*
X11361Y43364D01*
Y42525D02*
X11417Y42468D01*
Y25984D02*
Y42468D01*
X-19291Y-306299D02*
X21654Y-265354D01*
Y-127953D01*
X-10236Y-96063D02*
X21654Y-127953D01*
X-20866Y-192913D02*
X-1181Y-173228D01*
X-20866Y-241732D02*
Y-192913D01*
Y-241732D02*
X-18110Y-244488D01*
X-1181Y-173228D02*
Y-114567D01*
X-16535Y-99213D02*
X-1181Y-114567D01*
X7874Y33465D02*
Y45980D01*
X9055Y47161D01*
Y47638D01*
X-16535Y9055D02*
X7874Y33465D01*
X-16535Y-99213D02*
Y9055D01*
X3937Y39764D02*
Y48342D01*
X5118Y49523D01*
Y50000D01*
X-22853Y12973D02*
X3937Y39764D01*
X-22853Y-101162D02*
Y12973D01*
Y-101162D02*
X-18110Y-105905D01*
Y-166535D02*
Y-105905D01*
X-10236Y4331D02*
X11417Y25984D01*
X-10236Y-96063D02*
Y4331D01*
X2756Y53492D02*
Y53937D01*
X394Y51130D02*
X2756Y53492D01*
X394Y47244D02*
Y51130D01*
X-29528Y17323D02*
X394Y47244D01*
X-29528Y-105064D02*
Y17323D01*
Y-105064D02*
X-24803Y-109789D01*
Y-109843D02*
Y-109789D01*
D22*
X-21466Y66535D02*
X53681D01*
X54356Y65861D01*
X54724D01*
D23*
X-44094Y-21260D02*
D03*
X-39370D02*
D03*
D25*
X56890Y-51378D02*
D03*
Y-46260D02*
D03*
X51772Y-51378D02*
D03*
Y-46260D02*
D03*
X46654Y-51378D02*
D03*
Y-46260D02*
D03*
X41535Y-51378D02*
D03*
Y-46260D02*
D03*
X13386Y-49803D02*
D03*
Y-44685D02*
D03*
X8268Y-49803D02*
D03*
Y-44685D02*
D03*
X3150Y-49803D02*
D03*
Y-44685D02*
D03*
X-1969Y-49803D02*
D03*
Y-44685D02*
D03*
X18898Y-37402D02*
D03*
X16142Y-38976D02*
D03*
X20472Y-50000D02*
D03*
X24016D02*
D03*
X64327Y-39486D02*
D03*
X60236Y-33071D02*
D03*
Y-39764D02*
D03*
Y-36614D02*
D03*
Y-29528D02*
D03*
X56693Y-33071D02*
D03*
X68657Y-39486D02*
D03*
D26*
X-1969Y-64173D02*
D03*
X15354Y-107087D02*
D03*
X86614Y-36220D02*
D03*
X57874Y-14173D02*
D03*
X40945Y48425D02*
D03*
X-55905Y-75984D02*
D03*
X-58661Y-61417D02*
D03*
X-91732Y-17323D02*
D03*
X-80709Y-45276D02*
D03*
X-94882Y3150D02*
D03*
X787Y94488D02*
D03*
X86614Y37008D02*
D03*
X57480Y70079D02*
D03*
X65354Y68110D02*
D03*
X52362Y77953D02*
D03*
X40157Y85433D02*
D03*
X-29921Y-129921D02*
D03*
X26772Y-107087D02*
D03*
X-24409Y-373228D02*
D03*
X26772D02*
D03*
X-24016Y33858D02*
D03*
X-29134Y38189D02*
D03*
X-33071Y32283D02*
D03*
X-37402Y27559D02*
D03*
X-37008Y18504D02*
D03*
X-42520Y22835D02*
D03*
X-28346Y28346D02*
D03*
X-32677Y23622D02*
D03*
X79528Y49606D02*
D03*
X54724Y65861D02*
D03*
X-42520Y6299D02*
D03*
X-37795Y1969D02*
D03*
X9055Y47638D02*
D03*
X11024Y43701D02*
D03*
X2756Y53937D02*
D03*
X5118Y50000D02*
D03*
X-18110Y-166535D02*
D03*
X-24803Y-109843D02*
D03*
X-18110Y-244488D02*
D03*
X-19291Y-306299D02*
D03*
X-34252Y69685D02*
D03*
X24409Y35039D02*
D03*
X-60630Y-49606D02*
D03*
X-60617Y-53554D02*
D03*
X27165Y39845D02*
D03*
X27165Y37008D02*
D03*
X-64173Y-49606D02*
D03*
Y-53543D02*
D03*
X1575Y-93307D02*
D03*
X-394Y-90158D02*
D03*
Y-86614D02*
D03*
Y-83465D02*
D03*
X9449Y-93307D02*
D03*
X3170Y-90191D02*
D03*
X6299Y-90158D02*
D03*
X9449D02*
D03*
X27165Y33858D02*
D03*
X48819Y33071D02*
D03*
Y29134D02*
D03*
Y25591D02*
D03*
Y36614D02*
D03*
X-62205Y-20472D02*
D03*
X-27953Y79528D02*
D03*
X-24803Y69685D02*
D03*
X-13386Y53150D02*
D03*
X28740Y-86221D02*
D03*
Y-83071D02*
D03*
X-1181Y-96850D02*
D03*
X-73622Y14173D02*
D03*
X-35433Y10236D02*
D03*
X-60236Y19291D02*
D03*
X-34252Y15748D02*
D03*
X-20472Y31890D02*
D03*
X22441Y53543D02*
D03*
X-15354Y70079D02*
D03*
X25197Y91339D02*
D03*
X-25591Y91732D02*
D03*
X-15354Y63386D02*
D03*
X-7874Y61024D02*
D03*
X26772Y63386D02*
D03*
X30709Y79528D02*
D03*
X35827Y-46850D02*
D03*
X-41339Y-34252D02*
D03*
X-79134Y-22835D02*
D03*
X-75984D02*
D03*
X-49606Y-36220D02*
D03*
X-46457D02*
D03*
X-43701D02*
D03*
X-63386Y-68898D02*
D03*
Y-65748D02*
D03*
X-19685Y-81496D02*
D03*
Y-77559D02*
D03*
X-6693Y-69685D02*
D03*
X-3543D02*
D03*
X3150Y-74410D02*
D03*
X12205D02*
D03*
X19685Y-71653D02*
D03*
X23622D02*
D03*
X40945Y-71260D02*
D03*
X51181Y-70866D02*
D03*
X64567Y-61811D02*
D03*
X68504Y-61417D02*
D03*
X87795Y-5118D02*
D03*
X73622Y21260D02*
D03*
Y57480D02*
D03*
X-33071Y-16929D02*
D03*
X-25984Y-25591D02*
D03*
X-19685Y-31496D02*
D03*
X-81890Y22441D02*
D03*
X-75984D02*
D03*
X-85827Y22047D02*
D03*
X-12992Y-34252D02*
D03*
X-92520Y22047D02*
D03*
X-22047Y66535D02*
D03*
X-25984Y62205D02*
D03*
X-3937Y81102D02*
D03*
X-787D02*
D03*
X-34252Y79134D02*
D03*
Y86221D02*
D03*
Y73228D02*
D03*
X-65748Y27559D02*
D03*
X-63386Y29921D02*
D03*
X-61417Y32677D02*
D03*
X-59449Y35039D02*
D03*
X-57087Y37795D02*
D03*
X-55118Y40157D02*
D03*
X-50787Y44882D02*
D03*
X-48425Y47638D02*
D03*
X-46063Y50394D02*
D03*
X-44094Y52756D02*
D03*
X-41732Y55512D02*
D03*
X-39370Y57874D02*
D03*
X-37402Y60630D02*
D03*
D27*
X-51181Y25197D02*
X-22441Y53937D01*
Y62870D01*
X-51181Y-18504D02*
Y25197D01*
X-18853Y81102D02*
X-3937D01*
X-30709Y53543D02*
Y69247D01*
X-3937Y81102D02*
X-276D01*
X-55512Y28740D02*
X-30709Y53543D01*
Y69247D02*
X-18853Y81102D01*
X-62992Y-50394D02*
Y-30315D01*
X-51181Y-18504D01*
X-62205Y-20472D02*
X-55512Y-13780D01*
Y28740D01*
M02*
