G04*
G04 #@! TF.GenerationSoftware,Altium Limited,Altium Designer,21.9.2 (33)*
G04*
G04 Layer_Physical_Order=1*
G04 Layer_Color=255*
%FSLAX25Y25*%
%MOIN*%
G70*
G04*
G04 #@! TF.SameCoordinates,C6F11EFD-203B-4413-AD8B-19CE97DDEB68*
G04*
G04*
G04 #@! TF.FilePolarity,Positive*
G04*
G01*
G75*
%ADD11R,0.03150X0.03150*%
%ADD19C,0.00600*%
G04:AMPARAMS|DCode=20|XSize=393.7mil|YSize=393.7mil|CornerRadius=98.43mil|HoleSize=0mil|Usage=FLASHONLY|Rotation=0.000|XOffset=0mil|YOffset=0mil|HoleType=Round|Shape=RoundedRectangle|*
%AMROUNDEDRECTD20*
21,1,0.39370,0.19685,0,0,0.0*
21,1,0.19685,0.39370,0,0,0.0*
1,1,0.19685,0.09843,-0.09843*
1,1,0.19685,-0.09843,-0.09843*
1,1,0.19685,-0.09843,0.09843*
1,1,0.19685,0.09843,0.09843*
%
%ADD20ROUNDEDRECTD20*%
%ADD21C,0.59055*%
%ADD22C,0.01000*%
%ADD23O,0.03150X0.03937*%
%ADD24C,0.24410*%
%ADD25C,0.02402*%
%ADD26C,0.02362*%
G36*
X-16379Y-308788D02*
X-16291Y-308871D01*
X-16207Y-308942D01*
X-16128Y-309000D01*
X-16054Y-309045D01*
X-15984Y-309077D01*
X-15918Y-309097D01*
X-15857Y-309103D01*
X-15800Y-309097D01*
X-15747Y-309078D01*
X-15699Y-309046D01*
X-16621Y-309819D01*
X-16581Y-309778D01*
X-16555Y-309732D01*
X-16543Y-309681D01*
X-16543Y-309625D01*
X-16557Y-309564D01*
X-16585Y-309498D01*
X-16626Y-309427D01*
X-16680Y-309351D01*
X-16748Y-309271D01*
X-16829Y-309186D01*
X-16379Y-308788D01*
D02*
G37*
G36*
X-18195Y-307820D02*
X-18268Y-307754D01*
X-18349Y-307696D01*
X-18438Y-307644D01*
X-18535Y-307599D01*
X-18640Y-307561D01*
X-18752Y-307531D01*
X-18872Y-307508D01*
X-19000Y-307491D01*
X-19136Y-307482D01*
X-19279Y-307480D01*
X-18110Y-306311D01*
X-18108Y-306455D01*
X-18099Y-306591D01*
X-18083Y-306718D01*
X-18059Y-306839D01*
X-18029Y-306951D01*
X-17991Y-307056D01*
X-17947Y-307152D01*
X-17895Y-307241D01*
X-17836Y-307323D01*
X-17770Y-307396D01*
X-18195Y-307820D01*
D02*
G37*
G36*
X-14209Y-248442D02*
X-14121Y-248526D01*
X-14037Y-248597D01*
X-13956Y-248657D01*
X-13878Y-248706D01*
X-13804Y-248743D01*
X-13732Y-248768D01*
X-13664Y-248782D01*
X-13600Y-248784D01*
X-13538Y-248774D01*
X-13480Y-248753D01*
X-14628Y-249301D01*
X-14577Y-249270D01*
X-14541Y-249233D01*
X-14520Y-249190D01*
X-14514Y-249140D01*
X-14522Y-249085D01*
X-14545Y-249023D01*
X-14583Y-248955D01*
X-14635Y-248881D01*
X-14703Y-248801D01*
X-14785Y-248715D01*
X-14209Y-248442D01*
D02*
G37*
G36*
X-17357Y-246143D02*
X-17420Y-246085D01*
X-17494Y-246028D01*
X-17577Y-245973D01*
X-17670Y-245919D01*
X-17774Y-245866D01*
X-18009Y-245765D01*
X-18142Y-245716D01*
X-18436Y-245623D01*
X-16982Y-244837D01*
X-17015Y-244961D01*
X-17037Y-245081D01*
X-17048Y-245195D01*
X-17047Y-245304D01*
X-17035Y-245408D01*
X-17011Y-245507D01*
X-16975Y-245601D01*
X-16929Y-245689D01*
X-16870Y-245772D01*
X-16801Y-245850D01*
X-17357Y-246143D01*
D02*
G37*
G36*
X-14692Y-169923D02*
X-14605Y-170006D01*
X-14522Y-170077D01*
X-14442Y-170135D01*
X-14366Y-170183D01*
X-14292Y-170218D01*
X-14223Y-170242D01*
X-14156Y-170254D01*
X-14094Y-170254D01*
X-14034Y-170243D01*
X-13978Y-170219D01*
X-15080Y-170811D01*
X-15031Y-170778D01*
X-14997Y-170740D01*
X-14977Y-170696D01*
X-14972Y-170646D01*
X-14980Y-170590D01*
X-15003Y-170528D01*
X-15041Y-170461D01*
X-15092Y-170388D01*
X-15158Y-170310D01*
X-15238Y-170225D01*
X-14692Y-169923D01*
D02*
G37*
G36*
X-17290Y-168174D02*
X-17356Y-168114D01*
X-17432Y-168056D01*
X-17517Y-168001D01*
X-17611Y-167948D01*
X-17715Y-167898D01*
X-17951Y-167806D01*
X-18084Y-167763D01*
X-18377Y-167686D01*
X-16965Y-166825D01*
X-16993Y-166954D01*
X-17010Y-167077D01*
X-17017Y-167194D01*
X-17012Y-167306D01*
X-16997Y-167412D01*
X-16971Y-167512D01*
X-16934Y-167607D01*
X-16886Y-167696D01*
X-16828Y-167779D01*
X-16759Y-167856D01*
X-17290Y-168174D01*
D02*
G37*
G36*
X-19031Y-115190D02*
X-18945Y-115272D01*
X-18864Y-115340D01*
X-18790Y-115393D01*
X-18722Y-115430D01*
X-18661Y-115454D01*
X-18605Y-115462D01*
X-18556Y-115455D01*
X-18513Y-115434D01*
X-18476Y-115398D01*
X-18446Y-115347D01*
X-18988Y-116500D01*
X-18967Y-116442D01*
X-18957Y-116380D01*
X-18959Y-116315D01*
X-18973Y-116247D01*
X-18999Y-116176D01*
X-19036Y-116101D01*
X-19084Y-116024D01*
X-19144Y-115943D01*
X-19216Y-115858D01*
X-19299Y-115771D01*
X-19031Y-115190D01*
D02*
G37*
G36*
X-23706Y-111363D02*
X-23780Y-111298D01*
X-23861Y-111239D01*
X-23950Y-111187D01*
X-24047Y-111142D01*
X-24151Y-111105D01*
X-24264Y-111074D01*
X-24384Y-111051D01*
X-24512Y-111035D01*
X-24648Y-111026D01*
X-24791Y-111024D01*
X-23622Y-109854D01*
X-23620Y-109998D01*
X-23611Y-110134D01*
X-23595Y-110262D01*
X-23571Y-110382D01*
X-23541Y-110494D01*
X-23503Y-110599D01*
X-23459Y-110696D01*
X-23407Y-110785D01*
X-23348Y-110866D01*
X-23282Y-110939D01*
X-23706Y-111363D01*
D02*
G37*
G36*
X-33742Y-29170D02*
X-33829Y-29088D01*
X-33916Y-29014D01*
X-34004Y-28949D01*
X-34093Y-28893D01*
X-34182Y-28845D01*
X-34271Y-28807D01*
X-34361Y-28777D01*
X-34452Y-28756D01*
X-34543Y-28744D01*
X-34634Y-28740D01*
X-33465Y-27571D01*
X-33461Y-27662D01*
X-33449Y-27753D01*
X-33428Y-27843D01*
X-33398Y-27933D01*
X-33359Y-28023D01*
X-33312Y-28112D01*
X-33256Y-28200D01*
X-33191Y-28288D01*
X-33117Y-28376D01*
X-33034Y-28463D01*
X-33742Y-29170D01*
D02*
G37*
G36*
X77613Y-13302D02*
X77679Y-13228D01*
X77738Y-13147D01*
X77789Y-13058D01*
X77834Y-12961D01*
X77872Y-12857D01*
X77902Y-12744D01*
X77925Y-12624D01*
X77942Y-12496D01*
X77951Y-12360D01*
X77953Y-12217D01*
X79122Y-13386D01*
X78978Y-13388D01*
X78843Y-13397D01*
X78715Y-13413D01*
X78594Y-13437D01*
X78482Y-13467D01*
X78377Y-13505D01*
X78281Y-13549D01*
X78192Y-13601D01*
X78110Y-13660D01*
X78037Y-13726D01*
X77613Y-13302D01*
D02*
G37*
G36*
X85790Y671D02*
X85873Y758D01*
X85947Y845D01*
X86012Y934D01*
X86068Y1022D01*
X86115Y1111D01*
X86154Y1201D01*
X86184Y1290D01*
X86205Y1381D01*
X86217Y1472D01*
X86221Y1563D01*
X87390Y394D01*
X87299Y390D01*
X87208Y378D01*
X87117Y357D01*
X87027Y327D01*
X86938Y289D01*
X86849Y241D01*
X86760Y185D01*
X86672Y120D01*
X86585Y46D01*
X86497Y-37D01*
X85790Y671D01*
D02*
G37*
G36*
X87902Y3353D02*
X87905Y3233D01*
X87915Y3119D01*
X87931Y3011D01*
X87954Y2909D01*
X87983Y2812D01*
X88019Y2722D01*
X88062Y2637D01*
X88111Y2558D01*
X88166Y2485D01*
X88228Y2418D01*
X86575D01*
X86637Y2485D01*
X86692Y2558D01*
X86741Y2637D01*
X86784Y2722D01*
X86820Y2812D01*
X86849Y2909D01*
X86872Y3011D01*
X86888Y3119D01*
X86898Y3233D01*
X86902Y3353D01*
X87902D01*
D02*
G37*
G36*
X-30121Y72783D02*
X-30112Y72647D01*
X-30095Y72519D01*
X-30072Y72399D01*
X-30042Y72286D01*
X-30004Y72182D01*
X-29959Y72085D01*
X-29908Y71996D01*
X-29849Y71915D01*
X-29783Y71842D01*
X-30207Y71417D01*
X-30281Y71483D01*
X-30362Y71542D01*
X-30451Y71594D01*
X-30548Y71639D01*
X-30652Y71676D01*
X-30765Y71706D01*
X-30885Y71730D01*
X-31013Y71746D01*
X-31149Y71755D01*
X-31292Y71757D01*
X-30123Y72926D01*
X-30121Y72783D01*
D02*
G37*
G36*
X-3187Y69296D02*
X-3232Y69273D01*
X-3271Y69235D01*
X-3305Y69182D01*
X-3334Y69113D01*
X-3357Y69029D01*
X-3376Y68930D01*
X-3389Y68816D01*
X-3397Y68686D01*
X-3399Y68542D01*
X-4399D01*
X-4400Y68686D01*
X-4428Y69113D01*
X-4441Y69182D01*
X-4456Y69235D01*
X-4474Y69273D01*
X-4493Y69296D01*
X-4516Y69303D01*
X-3138D01*
X-3187Y69296D01*
D02*
G37*
G36*
X3858Y69293D02*
X3773Y69263D01*
X3698Y69213D01*
X3633Y69143D01*
X3578Y69053D01*
X3533Y68943D01*
X3498Y68813D01*
X3473Y68663D01*
X3458Y68493D01*
X3453Y68303D01*
X2453D01*
X2448Y68493D01*
X2433Y68663D01*
X2408Y68813D01*
X2373Y68943D01*
X2328Y69053D01*
X2273Y69143D01*
X2208Y69213D01*
X2133Y69263D01*
X2048Y69293D01*
X1953Y69303D01*
X3953D01*
X3858Y69293D01*
D02*
G37*
G36*
X-21137Y67300D02*
X-21064Y67245D01*
X-20985Y67196D01*
X-20900Y67153D01*
X-20810Y67117D01*
X-20713Y67088D01*
X-20611Y67065D01*
X-20503Y67049D01*
X-20389Y67039D01*
X-20268Y67035D01*
Y66035D01*
X-20389Y66032D01*
X-20503Y66022D01*
X-20611Y66006D01*
X-20713Y65983D01*
X-20810Y65954D01*
X-20900Y65918D01*
X-20985Y65875D01*
X-21064Y65826D01*
X-21137Y65771D01*
X-21204Y65709D01*
Y67362D01*
X-21137Y67300D01*
D02*
G37*
G36*
X-1145Y59172D02*
X-1227Y59085D01*
X-1301Y58997D01*
X-1366Y58909D01*
X-1422Y58820D01*
X-1470Y58731D01*
X-1508Y58642D01*
X-1538Y58552D01*
X-1559Y58462D01*
X-1571Y58371D01*
X-1575Y58280D01*
X-2744Y59449D01*
X-2653Y59452D01*
X-2562Y59465D01*
X-2472Y59486D01*
X-2382Y59515D01*
X-2292Y59554D01*
X-2203Y59601D01*
X-2115Y59658D01*
X-2027Y59723D01*
X-1939Y59796D01*
X-1852Y59879D01*
X-1145Y59172D01*
D02*
G37*
G36*
X-25644Y55427D02*
X-25710Y55354D01*
X-25769Y55273D01*
X-25821Y55184D01*
X-25866Y55087D01*
X-25903Y54983D01*
X-25934Y54870D01*
X-25957Y54750D01*
X-25973Y54622D01*
X-25982Y54486D01*
X-25984Y54343D01*
X-27154Y55512D01*
X-27010Y55514D01*
X-26874Y55523D01*
X-26746Y55539D01*
X-26626Y55563D01*
X-26513Y55593D01*
X-26409Y55631D01*
X-26312Y55675D01*
X-26223Y55727D01*
X-26142Y55786D01*
X-26069Y55852D01*
X-25644Y55427D01*
D02*
G37*
G36*
X-28189Y55786D02*
X-28108Y55727D01*
X-28019Y55675D01*
X-27922Y55631D01*
X-27817Y55593D01*
X-27705Y55563D01*
X-27585Y55539D01*
X-27457Y55523D01*
X-27321Y55514D01*
X-27177Y55512D01*
X-28346Y54343D01*
X-28348Y54486D01*
X-28358Y54622D01*
X-28374Y54750D01*
X-28397Y54870D01*
X-28428Y54983D01*
X-28465Y55087D01*
X-28510Y55184D01*
X-28562Y55273D01*
X-28620Y55354D01*
X-28686Y55427D01*
X-28262Y55852D01*
X-28189Y55786D01*
D02*
G37*
G36*
X-4948Y50862D02*
X-5126Y50478D01*
X-5169Y50362D01*
X-5233Y50148D01*
X-5252Y50050D01*
X-5264Y49958D01*
X-5268Y49872D01*
X-5868Y49686D01*
X-5874Y49790D01*
X-5892Y49890D01*
X-5921Y49986D01*
X-5962Y50077D01*
X-6016Y50164D01*
X-6080Y50246D01*
X-6157Y50324D01*
X-6245Y50397D01*
X-6345Y50466D01*
X-6457Y50530D01*
X-4872Y51002D01*
X-4948Y50862D01*
D02*
G37*
G36*
X-5265Y29541D02*
X-5257Y29440D01*
X-5242Y29353D01*
X-5222Y29279D01*
X-5196Y29217D01*
X-5164Y29169D01*
X-5126Y29133D01*
X-5082Y29111D01*
X-5033Y29101D01*
X-4978Y29105D01*
X-6156Y28879D01*
X-6102Y28896D01*
X-6053Y28925D01*
X-6010Y28964D01*
X-5972Y29014D01*
X-5940Y29074D01*
X-5914Y29146D01*
X-5894Y29228D01*
X-5880Y29321D01*
X-5871Y29424D01*
X-5868Y29539D01*
X-5268Y29654D01*
X-5265Y29541D01*
D02*
G37*
G36*
X80079Y30195D02*
X80160Y30136D01*
X80249Y30085D01*
X80346Y30040D01*
X80450Y30002D01*
X80563Y29972D01*
X80683Y29949D01*
X80811Y29932D01*
X80947Y29923D01*
X81090Y29921D01*
X79921Y28752D01*
X79919Y28896D01*
X79910Y29031D01*
X79894Y29159D01*
X79870Y29280D01*
X79840Y29392D01*
X79803Y29497D01*
X79758Y29593D01*
X79706Y29682D01*
X79647Y29763D01*
X79581Y29837D01*
X80006Y30261D01*
X80079Y30195D01*
D02*
G37*
G36*
X71657Y28243D02*
X71669Y28152D01*
X71690Y28062D01*
X71720Y27972D01*
X71759Y27883D01*
X71806Y27794D01*
X71862Y27705D01*
X71927Y27617D01*
X72001Y27529D01*
X72084Y27442D01*
X71377Y26735D01*
X71289Y26818D01*
X71202Y26891D01*
X71114Y26956D01*
X71025Y27013D01*
X70936Y27060D01*
X70847Y27099D01*
X70757Y27129D01*
X70666Y27150D01*
X70575Y27162D01*
X70484Y27165D01*
X71653Y28335D01*
X71657Y28243D01*
D02*
G37*
G36*
X-84706Y16770D02*
X-84796Y16668D01*
X-84875Y16566D01*
X-84943Y16464D01*
X-85001Y16363D01*
X-85049Y16262D01*
X-85086Y16162D01*
X-85112Y16063D01*
X-85128Y15964D01*
X-85133Y15866D01*
X-85733D01*
X-85738Y15964D01*
X-85754Y16063D01*
X-85781Y16162D01*
X-85817Y16262D01*
X-85865Y16363D01*
X-85923Y16464D01*
X-85991Y16566D01*
X-86070Y16668D01*
X-86160Y16770D01*
X-86260Y16873D01*
X-84606D01*
X-84706Y16770D01*
D02*
G37*
D11*
X2953Y70866D02*
D03*
X-2953D02*
D03*
D19*
X90559Y23352D02*
G03*
X90509Y23826I-2278J0D01*
G01*
X91950Y16805D02*
G03*
X91900Y17279I-2278J0D01*
G01*
X86052Y22878D02*
G03*
X90559Y23352I2228J474D01*
G01*
X86052Y22878D02*
G03*
X90559Y23352I2228J474D01*
G01*
D02*
G03*
X90509Y23826I-2278J0D01*
G01*
D02*
G03*
X86052Y22878I-2228J-474D01*
G01*
X90509Y23826D02*
G03*
X86052Y22878I-2228J-474D01*
G01*
X87444Y16332D02*
G03*
X91950Y16805I2228J474D01*
G01*
X87444Y16332D02*
G03*
X91950Y16805I2228J474D01*
G01*
D02*
G03*
X91900Y17279I-2278J0D01*
G01*
D02*
G03*
X87444Y16332I-2228J-474D01*
G01*
X91900Y17279D02*
G03*
X87444Y16332I-2228J-474D01*
G01*
X88802Y11417D02*
G03*
X88392Y12407I-1400J0D01*
G01*
X88802Y11417D02*
G03*
X88392Y12407I-1400J0D01*
G01*
X81609Y49606D02*
G03*
X81609Y49606I-2081J0D01*
G01*
X79023Y28647D02*
G03*
X83183Y28740I2079J93D01*
G01*
D02*
G03*
X81195Y30819I-2081J0D01*
G01*
X82002Y0D02*
G03*
X82002Y0I-13105J0D01*
G01*
X93081Y-16885D02*
G03*
X93131Y-16412I-2228J474D01*
G01*
X89483Y1575D02*
G03*
X88946Y2970I-2081J0D01*
G01*
X87507Y-504D02*
G03*
X89483Y1575I-105J2079D01*
G01*
X93131Y-16412D02*
G03*
X88625Y-15938I-2278J0D01*
G01*
X93131Y-16412D02*
G03*
X88625Y-15938I-2278J0D01*
G01*
D02*
G03*
X93081Y-16885I2228J-474D01*
G01*
X88625Y-15938D02*
G03*
X93081Y-16885I2228J-474D01*
G01*
D02*
G03*
X93131Y-16412I-2228J474D01*
G01*
X91740Y-22958D02*
G03*
X87234Y-22485I-2278J0D01*
G01*
X91740Y-22958D02*
G03*
X87234Y-22485I-2278J0D01*
G01*
D02*
G03*
X91690Y-23432I2228J-474D01*
G01*
D02*
G03*
X91740Y-22958I-2228J474D01*
G01*
X91690Y-23432D02*
G03*
X91740Y-22958I-2228J474D01*
G01*
X87234Y-22485D02*
G03*
X91690Y-23432I2228J-474D01*
G01*
X85858Y2970D02*
G03*
X85323Y1680I1544J-1395D01*
G01*
X84049Y203D02*
G03*
X83639Y-787I990J-990D01*
G01*
X84049Y203D02*
G03*
X83639Y-787I990J-990D01*
G01*
X81215Y-12205D02*
G03*
X77055Y-12112I-2081J0D01*
G01*
X79227Y-14284D02*
G03*
X81215Y-12205I-93J2079D01*
G01*
X86029Y-19494D02*
G03*
X86439Y-18504I-990J990D01*
G01*
X86029Y-19494D02*
G03*
X86439Y-18504I-990J990D01*
G01*
X73955Y-15687D02*
G03*
X73603Y-16535I848J-848D01*
G01*
X56805Y65861D02*
G03*
X56805Y65861I-2081J0D01*
G01*
X52620Y58919D02*
G03*
X51772Y59271I-848J-848D01*
G01*
X52620Y58919D02*
G03*
X51772Y59271I-848J-848D01*
G01*
X11378Y72132D02*
G03*
X13656Y74409I0J2278D01*
G01*
D02*
G03*
X11378Y76687I-2278J0D01*
G01*
D02*
G03*
X9100Y74409I0J-2278D01*
G01*
D02*
G03*
X11378Y72132I2278J0D01*
G01*
X3943Y62986D02*
G03*
X4353Y63976I-990J990D01*
G01*
X3943Y62986D02*
G03*
X4353Y63976I-990J990D01*
G01*
X50900Y29134D02*
G03*
X49494Y31102I-2081J0D01*
G01*
X72551Y28451D02*
G03*
X70367Y26268I-2079J-105D01*
G01*
X50900Y25591D02*
G03*
X49911Y27362I-2081J0D01*
G01*
Y27362D02*
G03*
X50900Y29134I-1092J1772D01*
G01*
X47727Y27362D02*
G03*
X50900Y25591I1092J-1772D01*
G01*
X49911Y34843D02*
G03*
X50900Y36614I-1092J1772D01*
G01*
D02*
G03*
X47727Y34843I-2081J0D01*
G01*
X50900Y33071D02*
G03*
X49911Y34843I-2081J0D01*
G01*
X49494Y31102D02*
G03*
X50900Y33071I-675J1969D01*
G01*
X47727Y34843D02*
G03*
X48144Y31102I1092J-1772D01*
G01*
Y31102D02*
G03*
X47727Y27362I675J-1969D01*
G01*
X73955Y-15687D02*
G03*
X73603Y-16535I848J-848D01*
G01*
X14473Y43701D02*
G03*
X12415Y46857I-3450J0D01*
G01*
Y46857D02*
G03*
X12505Y47638I-3360J781D01*
G01*
X28688Y38426D02*
G03*
X29246Y39845I-1523J1419D01*
G01*
D02*
G03*
X25643Y38426I-2081J0D01*
G01*
X7664Y44481D02*
G03*
X14473Y43701I3360J-781D01*
G01*
X6205Y53937D02*
G03*
X4570Y56871I-3450J0D01*
G01*
X6145Y53293D02*
G03*
X6205Y53937I-3389J644D01*
G01*
X8411Y51027D02*
G03*
X6145Y53293I-3293J-1027D01*
G01*
X12505Y47638D02*
G03*
X8411Y51027I-3450J0D01*
G01*
X1729Y50644D02*
G03*
X5762Y46611I3389J-644D01*
G01*
X5762D02*
G03*
X7664Y44481I3293J1027D01*
G01*
X29247Y37008D02*
G03*
X28688Y38426I-2081J0D01*
G01*
X28526Y35433D02*
G03*
X29247Y37008I-1361J1575D01*
G01*
X25643Y38426D02*
G03*
X25084Y37008I1523J-1419D01*
G01*
D02*
G03*
X25219Y33122I-675J-1969D01*
G01*
X29246Y33858D02*
G03*
X28526Y35433I-2081J0D01*
G01*
X25219Y33122D02*
G03*
X29246Y33858I1946J736D01*
G01*
X62337Y-36614D02*
G03*
X61365Y-34843I-2101J0D01*
G01*
X62337Y-33071D02*
G03*
X61365Y-31299I-2101J0D01*
G01*
X61365Y-34843D02*
G03*
X62337Y-33071I-1129J1772D01*
G01*
X66427Y-39486D02*
G03*
X62250Y-39166I-2101J0D01*
G01*
X62313Y-40084D02*
G03*
X66427Y-39486I2014J598D01*
G01*
X61627Y-38189D02*
G03*
X62337Y-36614I-1390J1575D01*
G01*
X62250Y-39166D02*
G03*
X61627Y-38189I-2014J-598D01*
G01*
X77762Y-45872D02*
G03*
X78172Y-44882I-990J990D01*
G01*
X70758Y-39486D02*
G03*
X70758Y-39486I-2101J0D01*
G01*
X77762Y-45872D02*
G03*
X78172Y-44882I-990J990D01*
G01*
X61365Y-31299D02*
G03*
X62337Y-29528I-1129J1772D01*
G01*
X59107Y-31299D02*
G03*
X58465Y-31942I1129J-1772D01*
G01*
X62337Y-29528D02*
G03*
X59107Y-31299I-2101J0D01*
G01*
X58846Y-38189D02*
G03*
X62313Y-40084I1390J-1575D01*
G01*
X58465Y-34200D02*
G03*
X59107Y-34843I1772J1129D01*
G01*
D02*
G03*
X58846Y-38189I1129J-1772D01*
G01*
X58465Y-31942D02*
G03*
X58465Y-34200I-1772J-1129D01*
G01*
X57480Y-65573D02*
G03*
X58470Y-65163I0J1400D01*
G01*
X57480Y-65573D02*
G03*
X58470Y-65163I0J1400D01*
G01*
X22244Y-51129D02*
G03*
X26116Y-50000I1772J1129D01*
G01*
D02*
G03*
X22244Y-48871I-2101J0D01*
G01*
X20998Y-37402D02*
G03*
X16837Y-36994I-2101J0D01*
G01*
X18203Y-39384D02*
G03*
X20998Y-37402I695J1983D01*
G01*
X16837Y-36994D02*
G03*
X18203Y-39384I-695J-1983D01*
G01*
X22244Y-48871D02*
G03*
X22244Y-51129I-1772J-1129D01*
G01*
X11530Y-93307D02*
G03*
X10809Y-91732I-2081J0D01*
G01*
X23922Y-120079D02*
G03*
X9843Y-105999I-14080J0D01*
G01*
X8088Y-91732D02*
G03*
X11530Y-93307I1361J-1575D01*
G01*
Y-90158D02*
G03*
X7874Y-88797I-2081J0D01*
G01*
X10809Y-91732D02*
G03*
X11530Y-90158I-1361J1575D01*
G01*
X7874Y-88797D02*
G03*
X4720Y-88802I-1575J-1361D01*
G01*
X4749Y-91546D02*
G03*
X7874Y-91518I1550J1388D01*
G01*
X7874D02*
G03*
X8088Y-91732I1575J1361D01*
G01*
X3374Y-92262D02*
G03*
X4749Y-91546I-204J2071D01*
G01*
X3656Y-93307D02*
G03*
X3374Y-92262I-2081J0D01*
G01*
X9843Y-212898D02*
G03*
X23922Y-198819I0J14080D01*
G01*
Y-257874D02*
G03*
X9843Y-243794I-14080J0D01*
G01*
Y-153843D02*
G03*
X23922Y-139764I0J14080D01*
G01*
Y-179134D02*
G03*
X9843Y-165054I-14080J0D01*
G01*
Y-291639D02*
G03*
X23922Y-277559I0J14080D01*
G01*
Y-316929D02*
G03*
X9843Y-302850I-14080J0D01*
G01*
Y-350694D02*
G03*
X23922Y-336614I0J14080D01*
G01*
X-2362Y79742D02*
G03*
X1294Y81102I1575J1361D01*
G01*
D02*
G03*
X-2362Y82463I-2081J0D01*
G01*
X-2362D02*
G03*
X-2362Y79742I-1575J-1361D01*
G01*
X-2909Y67552D02*
G03*
X-2507Y68391I-990J990D01*
G01*
X-2909Y67552D02*
G03*
X-2507Y68391I-990J990D01*
G01*
X-5906Y65135D02*
G03*
X-4916Y65545I0J1400D01*
G01*
X-9100Y74409D02*
G03*
X-11378Y76687I-2278J0D01*
G01*
D02*
G03*
X-13656Y74409I0J-2278D01*
G01*
X-11378Y72132D02*
G03*
X-9100Y74409I0J2278D01*
G01*
X-13656D02*
G03*
X-11378Y72132I2278J0D01*
G01*
X-20652Y68079D02*
G03*
X-20652Y64991I-1395J-1544D01*
G01*
X984Y59271D02*
G03*
X136Y58919I0J-1200D01*
G01*
X984Y59271D02*
G03*
X136Y58919I0J-1200D01*
G01*
X-900Y54987D02*
G03*
X-508Y55052I0J1200D01*
G01*
X-900Y54987D02*
G03*
X-508Y55052I0J1200D01*
G01*
X-5906Y65135D02*
G03*
X-4916Y65545I0J1400D01*
G01*
X-2861Y60346D02*
G03*
X-4641Y57387I105J-2079D01*
G01*
X-508Y55052D02*
G03*
X1729Y50644I3264J-1115D01*
G01*
X35733Y0D02*
G03*
X-3000Y35607I-35733J0D01*
G01*
X-2754Y50171D02*
G03*
X-2456Y51575I-3151J1404D01*
G01*
D02*
G03*
X-5396Y54987I-3450J0D01*
G01*
X-6415D02*
G03*
X-8137Y48944I509J-3412D01*
G01*
X-23903Y62205D02*
G03*
X-27934Y62933I-2081J0D01*
G01*
Y61477D02*
G03*
X-23903Y62205I1950J728D01*
G01*
X-25309Y57387D02*
G03*
X-26158Y57035I0J-1200D01*
G01*
X-25309Y57387D02*
G03*
X-26158Y57035I0J-1200D01*
G01*
X-29244Y54238D02*
G03*
X-25086Y54238I2079J93D01*
G01*
X-8137Y34794D02*
G03*
X35733Y0I8137J-34794D01*
G01*
X-27934Y70768D02*
G03*
X-28285Y71617I-1200J0D01*
G01*
X-29225Y73031D02*
G03*
X-31397Y70859I-2079J-93D01*
G01*
X-27934Y70768D02*
G03*
X-28285Y71617I-1200J0D01*
G01*
X-30334Y56299D02*
G03*
X-29982Y55451I1200J0D01*
G01*
X-30334Y56299D02*
G03*
X-29982Y55451I1200J0D01*
G01*
X-40439Y6299D02*
G03*
X-40439Y6299I-2081J0D01*
G01*
X-83352Y17717D02*
G03*
X-86969Y16312I-2081J0D01*
G01*
X-83897Y16312D02*
G03*
X-83352Y17717I-1536J1405D01*
G01*
X-55793Y0D02*
G03*
X-55793Y0I-13105J0D01*
G01*
X-35714Y1969D02*
G03*
X-35714Y1969I-2081J0D01*
G01*
X-41620Y-20866D02*
G03*
X-46569Y-20866I-2475J0D01*
G01*
Y-21654D02*
G03*
X-44890Y-23997I2475J0D01*
G01*
X-60124Y-20472D02*
G03*
X-60124Y-20472I-2081J0D01*
G01*
X-33010Y-24348D02*
G03*
X-33858Y-23997I-848J-848D01*
G01*
X-33010Y-24348D02*
G03*
X-33858Y-23997I-848J-848D01*
G01*
X-36372Y-26397D02*
G03*
X-34751Y-29638I1726J-1162D01*
G01*
X-43299Y-23997D02*
G03*
X-41620Y-21654I-796J2343D01*
G01*
X-86633Y-9055D02*
G03*
X-86282Y-9904I1200J0D01*
G01*
X-86633Y-9055D02*
G03*
X-86282Y-9904I1200J0D01*
G01*
X-70140Y-26045D02*
G03*
X-69291Y-26397I848J848D01*
G01*
X-70140Y-26045D02*
G03*
X-69291Y-26397I848J848D01*
G01*
X979Y-65163D02*
G03*
X1969Y-65573I990J990D01*
G01*
X979Y-65163D02*
G03*
X1969Y-65573I990J990D01*
G01*
X967Y-85039D02*
G03*
X1687Y-83465I-1361J1575D01*
G01*
D02*
G03*
X-1754Y-85039I-2081J0D01*
G01*
D02*
G03*
X-1486Y-88386I1361J-1575D01*
G01*
X1687Y-86614D02*
G03*
X967Y-85039I-2081J0D01*
G01*
X698Y-88386D02*
G03*
X1687Y-86614I-1092J1772D01*
G01*
X1398Y-89099D02*
G03*
X698Y-88386I-1792J-1059D01*
G01*
X4720Y-88802D02*
G03*
X1398Y-89099I-1550J-1388D01*
G01*
X-1486Y-88386D02*
G03*
X-206Y-92230I1092J-1772D01*
G01*
Y-92230D02*
G03*
X3656Y-93307I1781J-1077D01*
G01*
X-9843Y-165054D02*
G03*
X-14715Y-165924I0J-14080D01*
G01*
X-23922Y-198819D02*
G03*
X-9843Y-212898I14080J0D01*
G01*
Y-105999D02*
G03*
X-20329Y-110684I0J-14080D01*
G01*
X-23922Y-139764D02*
G03*
X-9843Y-153843I14080J0D01*
G01*
X-14715Y-165924D02*
G03*
X-20022Y-169407I-3395J-611D01*
G01*
X12711Y-228346D02*
G03*
X12711Y-228346I-12711J0D01*
G01*
X-9843Y-243794D02*
G03*
X-14664Y-244646I0J-14080D01*
G01*
X12711Y-366142D02*
G03*
X12711Y-366142I-12711J0D01*
G01*
X-9843Y-302850D02*
G03*
X-16375Y-304457I0J-14080D01*
G01*
X-23922Y-277559D02*
G03*
X-9843Y-291639I14080J0D01*
G01*
X-14661Y-244488D02*
G03*
X-19512Y-247640I-3450J0D01*
G01*
X-23922Y-336614D02*
G03*
X-9843Y-350694I14080J0D01*
G01*
X-16375Y-304457D02*
G03*
X-21463Y-308979I-2916J-1843D01*
G01*
X-21365Y-109561D02*
G03*
X-25085Y-113281I-3438J-282D01*
G01*
X-23057Y-115221D02*
G03*
X-23922Y-120079I13215J-4858D01*
G01*
X-59964Y-51578D02*
G03*
X-58549Y-49606I-666J1972D01*
G01*
X-58536Y-53554D02*
G03*
X-59964Y-51578I-2081J0D01*
G01*
X-58549Y-49606D02*
G03*
X-62402Y-48514I-2081J0D01*
G01*
X-62398Y-54630D02*
G03*
X-58536Y-53554I1781J1076D01*
G01*
X-62402Y-48514D02*
G03*
X-64849Y-51575I-1772J-1092D01*
G01*
Y-51575D02*
G03*
X-62398Y-54630I675J-1969D01*
G01*
X-19512Y-247640D02*
G03*
X-23922Y-257874I9670J-10234D01*
G01*
X-20022Y-169407D02*
G03*
X-23922Y-179134I10179J-9727D01*
G01*
X-21463Y-308979D02*
G03*
X-23922Y-316929I11620J-7950D01*
G01*
X91605Y31478D02*
X93419Y25594D01*
X94857Y19607D01*
X89419Y37235D02*
X91605Y31478D01*
X90354Y24296D02*
X93003Y26945D01*
X90601Y18886D02*
X94173Y22457D01*
X86873Y42841D02*
X89419Y37235D01*
X83975Y48274D02*
X86873Y42841D01*
X83158Y28413D02*
X90124Y35379D01*
X81605Y49488D02*
X82607Y50489D01*
X83150Y28368D02*
X86614Y24904D01*
X83429Y17370D02*
X87337Y21279D01*
X94857Y19607D02*
X95911Y13541D01*
X89833Y21685D02*
X95476Y16041D01*
X88801Y11430D02*
X95171Y17799D01*
X90945Y14916D02*
X96350Y9511D01*
X95911Y13541D02*
X96578Y7419D01*
X88802Y5773D02*
X95976Y12947D01*
X88802Y11403D02*
X96756Y3448D01*
X86257Y14542D02*
X87592Y15877D01*
X88802Y3455D02*
Y11417D01*
X86002Y3455D02*
Y10837D01*
X80739Y53512D02*
X83975Y48274D01*
X77175Y58534D02*
X80739Y53512D01*
X53352Y80793D02*
X80909Y53236D01*
X56798Y66033D02*
X91716Y31115D01*
X80641Y47848D02*
X87893Y40596D01*
X80314Y31226D02*
X88452Y39364D01*
X74657Y36883D02*
X84696Y46922D01*
X77485Y34054D02*
X86664Y43233D01*
X73300Y63319D02*
X77175Y58534D01*
X63343Y48197D02*
X75612Y60465D01*
X40584Y87905D02*
X77769Y50719D01*
X52620Y58919D02*
X80562Y30977D01*
X69000Y42540D02*
X80421Y53960D01*
X71828Y39711D02*
X79646Y47529D01*
X66171Y45368D02*
X78073Y57269D01*
X51275Y56871D02*
X78865Y29280D01*
X80600Y20199D02*
X91669Y31268D01*
X48990Y56871D02*
X87783Y18078D01*
X37677Y56871D02*
X86002Y8546D01*
X23166Y94009D02*
X94001Y23174D01*
X32020Y56871D02*
X85882Y3009D01*
X79465Y7750D02*
X84277Y12562D01*
X72791Y28007D02*
X88392Y12407D01*
X70812Y26027D02*
X86002Y10837D01*
X77772Y23027D02*
X81429Y26685D01*
X72444Y29013D02*
X75788Y32357D01*
X74943Y25856D02*
X78616Y29529D01*
X72885Y12483D02*
X78620Y18219D01*
X76635Y10577D02*
X81449Y15390D01*
X67803Y13059D02*
X75792Y21047D01*
X96578Y7419D02*
X96854Y1268D01*
X89181Y495D02*
X96531Y7846D01*
X96739Y-4888D02*
X96854Y1268D01*
X88802Y5746D02*
X96788Y-2241D01*
X86439Y-7903D02*
X96800Y2458D01*
X96233Y-11025D02*
X96739Y-4888D01*
X88830Y61D02*
X96513Y-7623D01*
X91444Y-14212D02*
X96377Y-9280D01*
X86439Y-1367D02*
X87062Y-744D01*
X86439Y-2246D02*
X88481Y-204D01*
X86439Y-8862D02*
X92051Y-14474D01*
X86439Y-14519D02*
X88590Y-16670D01*
X95338Y-17117D02*
X96233Y-11025D01*
X92791Y-15214D02*
X95225Y-17648D01*
X90421Y-20892D02*
X95534Y-15779D01*
X94058Y-23140D02*
X95338Y-17117D01*
X90595Y-18675D02*
X94233Y-22313D01*
X92397Y-29069D02*
X94058Y-23140D01*
X86439Y-18504D02*
Y-1367D01*
X90948Y-24685D02*
X93039Y-26776D01*
X84049Y203D02*
X85083Y1236D01*
X81959Y-1070D02*
X85546Y2517D01*
X81376Y4004D02*
X86002Y8630D01*
X81938Y1295D02*
X83681Y-448D01*
X86439Y-3206D02*
X95980Y-12746D01*
X86439Y-13560D02*
X96770Y-3230D01*
X81425Y-3848D02*
X83639Y-6063D01*
X79551Y-7631D02*
X83639Y-11719D01*
X78444Y-10241D02*
X83639Y-5046D01*
X76753Y-10490D02*
X77368Y-11104D01*
X73039Y-12433D02*
X75124Y-14518D01*
X73955Y-15687D02*
X76897Y-12745D01*
X76003Y-25560D02*
X83639Y-17924D01*
X78172Y-27485D02*
X88653Y-17003D01*
X76003Y-18339D02*
X83639Y-10703D01*
X76003Y-23996D02*
X83639Y-16360D01*
X85893Y-19630D02*
X87735Y-21472D01*
X78172Y-27351D02*
X86029Y-19494D01*
X83065Y-22458D02*
X91692Y-31085D01*
X80234Y-13971D02*
X83639Y-17376D01*
Y-17924D02*
Y-787D01*
X76003Y-17032D02*
X78594Y-14442D01*
X61081Y-27604D02*
X77170Y-11515D01*
X76821Y-16215D02*
X81085Y-20479D01*
X76003Y-21054D02*
X78256Y-23307D01*
X76003Y-25560D02*
Y-17032D01*
X49836Y83058D02*
X55012Y79724D01*
X44458Y86057D02*
X49836Y83058D01*
X55012Y79724D02*
X59967Y76067D01*
X38900Y88708D02*
X44458Y86057D01*
X31168Y91664D02*
X54897Y67935D01*
X59967Y76067D02*
X64679Y72104D01*
X69129Y67848D01*
X54803Y67940D02*
X61576Y74714D01*
X21377Y94474D02*
X27337Y92925D01*
X33185Y91000D01*
X15331Y95641D02*
X21377Y94474D01*
X12638Y76687D02*
X28494Y92544D01*
X33185Y91000D02*
X38900Y88708D01*
X13656Y72132D02*
Y74409D01*
X13362Y75528D02*
X13656Y75235D01*
Y74409D02*
Y76687D01*
X69129Y67848D02*
X73300Y63319D01*
X51790Y59271D02*
X64648Y72129D01*
X54858Y56682D02*
X67542Y69366D01*
X34819Y59271D02*
X55162Y79614D01*
X40476Y59271D02*
X58417Y77211D01*
X57686Y53853D02*
X70353Y66520D01*
X60515Y51025D02*
X73065Y63575D01*
X46133Y59271D02*
X52645Y65782D01*
X23506Y59271D02*
X48203Y83968D01*
X29163Y59271D02*
X51730Y81838D01*
X17849Y59271D02*
X44571Y85993D01*
X16007Y95511D02*
X52474Y59044D01*
X26363Y56871D02*
X46741Y36492D01*
X13656Y75235D02*
X29620Y59271D01*
X20706Y56871D02*
X47171Y30405D01*
X11378Y76687D02*
X13656D01*
X12397Y76447D02*
X12638Y76687D01*
X12203D02*
X12497Y76394D01*
X9224Y96422D02*
X15331Y95641D01*
X3635Y73341D02*
X24068Y93774D01*
X11378Y72132D02*
X13656D01*
X9100D02*
X11378D01*
X9100Y76687D02*
X11378D01*
X3079Y96813D02*
X9224Y96422D01*
X9100Y74409D02*
Y76687D01*
Y73149D02*
X9341Y73390D01*
X9100Y72132D02*
Y74409D01*
X5428Y69477D02*
X9100Y73149D01*
X9471Y96390D02*
X46590Y59271D01*
X6535D02*
X36810Y89546D01*
X12192Y59271D02*
X40748Y87826D01*
X3412Y96792D02*
X40933Y59271D01*
X5428Y72149D02*
X18306Y59271D01*
X11102Y72132D02*
X23963Y59271D01*
X12455Y48220D02*
X21106Y56871D01*
X9619Y51041D02*
X15449Y56871D01*
X9392D02*
X25368Y40895D01*
X4373Y68391D02*
X5428D01*
Y73341D01*
X1553Y64556D02*
Y68203D01*
X4353Y63976D02*
Y68203D01*
Y67567D02*
X12649Y59271D01*
X3610Y62653D02*
X6992Y59271D01*
X50739Y29936D02*
X64474Y43671D01*
X50334Y35188D02*
X61646Y46499D01*
X48029Y38540D02*
X58818Y49328D01*
X43333Y56871D02*
X69867Y30338D01*
X49959Y34812D02*
X50246Y35099D01*
X29224Y36705D02*
X49390Y56871D01*
X50800Y32434D02*
X70193Y13040D01*
X35566Y3449D02*
X70131Y38014D01*
X35671Y-2103D02*
X72960Y35186D01*
X34633Y-8798D02*
X69806Y26375D01*
X30546Y-18541D02*
X72963Y23876D01*
X68025Y-13076D02*
X73603Y-18654D01*
X30213Y19080D02*
X73603Y-24311D01*
X34562Y9074D02*
X73603Y-29967D01*
X31679Y16532D02*
X47078Y31931D01*
X34757Y8296D02*
X67303Y40843D01*
X29562Y20073D02*
X46893Y37404D01*
X29246Y37017D02*
X58408Y7855D01*
X50090Y27486D02*
X65050Y12527D01*
X48359Y23561D02*
X61266Y10654D01*
X33428Y12625D02*
X46773Y25969D01*
X35584Y-3262D02*
X59795Y-27474D01*
X14382Y44490D02*
X26763Y56871D01*
X28390Y41528D02*
X43733Y56871D01*
X4570D02*
X51275D01*
X23926Y37064D02*
X25483Y38620D01*
X6197Y53276D02*
X9792Y56871D01*
X6169Y54437D02*
X9555Y51051D01*
X24339Y26163D02*
X53161Y54985D01*
X15049Y56871D02*
X46789Y25131D01*
X27111Y23278D02*
X55989Y52156D01*
X9887Y34338D02*
X32419Y56871D01*
X14057Y32852D02*
X38076Y56871D01*
X28413Y32193D02*
X56465Y4142D01*
X13573Y41377D02*
X55822Y-873D01*
X12468Y48138D02*
X23635Y36971D01*
X5239Y35347D02*
X10234Y40343D01*
X17829Y30967D02*
X22385Y35523D01*
X21248Y28729D02*
X25354Y32834D01*
X80236Y-25287D02*
X90205Y-35256D01*
X78172Y-33141D02*
X87396Y-23917D01*
X78172Y-28879D02*
X88524Y-39231D01*
X61721Y-38278D02*
X73603Y-26396D01*
X78172Y-38798D02*
X94119Y-22851D01*
X90364Y-34881D02*
X92397Y-29069D01*
X87965Y-40552D02*
X90364Y-34881D01*
X68226Y-37430D02*
X73603Y-32053D01*
X62290Y-29968D02*
X73603Y-41281D01*
X62146Y-32196D02*
X73603Y-20739D01*
X61450Y-34785D02*
X64067Y-37402D01*
X85210Y-46059D02*
X87965Y-40552D01*
X78172Y-34536D02*
X86705Y-43070D01*
X78172Y-40193D02*
X84779Y-46800D01*
X78172Y-44455D02*
X91773Y-30854D01*
X82112Y-51380D02*
X85210Y-46059D01*
X78681Y-56494D02*
X82112Y-51380D01*
X77954Y-45632D02*
X82697Y-50375D01*
X75149Y-48484D02*
X80479Y-53814D01*
X73603Y-42810D02*
Y-16535D01*
X78172Y-44882D02*
Y-27351D01*
X61965Y-40957D02*
X68711Y-47702D01*
X72321Y-51313D02*
X78169Y-57161D01*
X68203Y-41537D02*
X71539Y-44874D01*
X69493Y-54141D02*
X75713Y-60362D01*
X35658Y2321D02*
X73603Y-35624D01*
X31749Y-16397D02*
X65882Y-50531D01*
X29645Y-19951D02*
X63054Y-53359D01*
X23805Y-47910D02*
X61148Y-10567D01*
X27205Y-23167D02*
X60225Y-56188D01*
X57538Y-31148D02*
X58313Y-30373D01*
X34796Y-8131D02*
X58522Y-31857D01*
X33484Y-12476D02*
X54680Y-33672D01*
X19386Y-35358D02*
X55839Y1094D01*
X56092Y-35084D02*
X58223Y-37215D01*
X22418Y-60611D02*
X69968Y-13061D01*
X39388Y-60611D02*
X58750Y-41249D01*
X50702Y-60611D02*
X73603Y-37710D01*
X16761Y-60611D02*
X64894Y-12478D01*
X18946Y-109338D02*
X88136Y-40148D01*
X55802Y-60611D02*
X73603Y-42810D01*
X58470Y-65163D02*
X77762Y-45872D01*
X45045Y-60611D02*
X64083Y-41573D01*
X52691Y-81249D02*
X81198Y-52743D01*
X24445Y-26064D02*
X57397Y-59016D01*
X21366Y-28642D02*
X53335Y-60611D01*
X5447D02*
X58321Y-7737D01*
X17959Y-30892D02*
X47678Y-60611D01*
X28074D02*
X54770Y-33916D01*
X33731Y-60611D02*
X58186Y-36156D01*
X20340Y-38929D02*
X42021Y-60611D01*
X26090Y-50336D02*
X36365Y-60611D01*
X74933Y-61379D02*
X78681Y-56494D01*
X66664Y-56969D02*
X73133Y-63438D01*
X70882Y-66016D02*
X74933Y-61379D01*
X63836Y-59798D02*
X70469Y-66431D01*
X61007Y-62626D02*
X67651Y-69270D01*
X66544Y-70386D02*
X70882Y-66016D01*
X61937Y-74472D02*
X66544Y-70386D01*
X58135Y-65411D02*
X64724Y-72000D01*
X57081Y-78256D02*
X61937Y-74472D01*
X35670Y-65573D02*
X51885Y-81789D01*
X30013Y-65573D02*
X48333Y-83893D01*
X52640Y-65573D02*
X61713Y-74646D01*
X51993Y-81725D02*
X57081Y-78256D01*
X46984Y-65573D02*
X58534Y-77124D01*
X41327Y-65573D02*
X55255Y-79501D01*
X46696Y-84863D02*
X51993Y-81725D01*
X43954Y-86259D02*
X46696Y-84863D01*
X42898Y-86866D02*
X43879Y-86300D01*
X24356Y-65573D02*
X44675Y-85892D01*
X40924Y-88268D02*
X42767Y-86951D01*
X39105Y-89943D02*
X40762Y-88400D01*
X37516Y-91839D02*
X38962Y-90095D01*
X36186Y-93923D02*
X37394Y-92007D01*
X35134Y-96162D02*
X36086Y-94106D01*
X34380Y-98517D02*
X35059Y-96356D01*
X33936Y-100950D02*
X34331Y-98719D01*
X33827Y-102234D02*
X33916Y-101104D01*
X33821Y-370079D02*
X33822Y-102360D01*
X23922Y-183557D02*
X33822Y-173658D01*
X23922Y-189214D02*
X33822Y-179314D01*
X23922Y-126989D02*
X33822Y-117089D01*
X23922Y-127364D02*
X33822Y-137265D01*
X18699Y-65573D02*
X41198Y-88072D01*
X13043Y-65573D02*
X38328Y-90859D01*
X11149Y-94507D02*
X40083Y-65573D01*
X3253Y-60611D02*
X55802D01*
X7386Y-65573D02*
X36033Y-94221D01*
X10929Y-106041D02*
X51397Y-65573D01*
X15459Y-107168D02*
X57053Y-65573D01*
X1969D02*
X57480D01*
X5314Y-105999D02*
X45740Y-65573D01*
X11104Y-88896D02*
X34426Y-65573D01*
X10866Y-91681D02*
X33822Y-114637D01*
X1704Y-65548D02*
X34450Y-98295D01*
X8819Y-95290D02*
X33822Y-120294D01*
X23382Y-116216D02*
X33822Y-105775D01*
X23922Y-121332D02*
X33822Y-111432D01*
X21603Y-112338D02*
X34139Y-99801D01*
X23037Y-115166D02*
X33822Y-125951D01*
X23922Y-132646D02*
X33822Y-122746D01*
X23922Y-138303D02*
X33822Y-128402D01*
X23922Y-133021D02*
X33822Y-142921D01*
X23922Y-121708D02*
X33822Y-131608D01*
X22932Y-144949D02*
X33822Y-134059D01*
X23922Y-138678D02*
X33822Y-148578D01*
X17520Y-167332D02*
X33822Y-151030D01*
X8484Y-165054D02*
X33822Y-139716D01*
X13624Y-165571D02*
X33822Y-145373D01*
X23344Y-143757D02*
X33822Y-154235D01*
X21536Y-147606D02*
X33822Y-159892D01*
X18855Y-150581D02*
X33822Y-165549D01*
X15342Y-152725D02*
X33822Y-171205D01*
X22721Y-173444D02*
X33822Y-162344D01*
X23872Y-177950D02*
X33822Y-168001D01*
X20535Y-169974D02*
X33822Y-156687D01*
X10772Y-153813D02*
X33822Y-176862D01*
X23894Y-178248D02*
X33822Y-188176D01*
X23922Y-183933D02*
X33822Y-193833D01*
X21758Y-51661D02*
X30708Y-60611D01*
X23922Y-189590D02*
X33822Y-199489D01*
X23922Y-195247D02*
X33822Y-205146D01*
X23922Y-194871D02*
X33822Y-184971D01*
X23803Y-200647D02*
X33822Y-190628D01*
X14201Y-32790D02*
X17370Y-35960D01*
X23922Y-139764D02*
Y-120079D01*
Y-198819D02*
Y-179134D01*
X16743Y-40989D02*
X23680Y-47926D01*
X23787Y-200768D02*
X33822Y-210803D01*
X22449Y-205088D02*
X33822Y-216460D01*
X20133Y-208428D02*
X33822Y-222117D01*
X11896Y-223868D02*
X33822Y-201942D01*
X12706Y-228715D02*
X33822Y-207599D01*
X16995Y-210947D02*
X33822Y-227774D01*
X17794Y-246254D02*
X33822Y-230226D01*
X12944Y-212553D02*
X33822Y-233430D01*
X13976Y-244415D02*
X33822Y-224570D01*
X20743Y-248962D02*
X33822Y-235883D01*
X22858Y-252504D02*
X33821Y-241540D01*
X12678Y-229258D02*
X33821Y-250401D01*
X11508Y-233744D02*
X33821Y-256058D01*
X23922Y-262753D02*
X33821Y-252854D01*
X23922Y-262753D02*
X33821Y-252854D01*
X23902Y-257117D02*
X33821Y-247197D01*
X23916Y-257466D02*
X33821Y-267371D01*
X11104Y-60611D02*
X19744Y-51971D01*
X10046Y-34292D02*
X14129Y-38375D01*
X6266Y-88077D02*
X28769Y-65573D01*
X5417Y-35320D02*
X18811Y-48714D01*
X1643Y-87043D02*
X23112Y-65573D01*
X2835Y-94963D02*
X14755Y-106884D01*
X5669Y-92141D02*
X7465Y-93937D01*
X9825Y-220282D02*
X33822Y-196285D01*
X7633Y-212898D02*
X33821Y-239087D01*
X5146Y-153843D02*
X33822Y-182519D01*
X3283Y-243794D02*
X33822Y-213256D01*
X10923Y-221845D02*
X33821Y-244744D01*
X8940Y-243794D02*
X33822Y-218913D01*
X9212Y-237105D02*
X33821Y-261715D01*
X2827Y-165054D02*
X15028Y-152854D01*
X6826Y-217624D02*
X11671Y-212779D01*
X2837Y-215956D02*
X5895Y-212898D01*
X6002Y-239551D02*
X10250Y-243800D01*
X1976Y-212898D02*
X6501Y-217424D01*
X1732Y-240939D02*
X4588Y-243794D01*
X23922Y-274067D02*
X33821Y-264168D01*
X23922Y-263129D02*
X33821Y-273028D01*
X23922Y-268786D02*
X33821Y-278685D01*
X23922Y-268410D02*
X33821Y-258511D01*
X23722Y-279924D02*
X33821Y-269825D01*
X23922Y-274443D02*
X33821Y-284342D01*
X23922Y-319322D02*
X33821Y-309423D01*
X23726Y-279903D02*
X33821Y-289999D01*
X23609Y-313978D02*
X33821Y-303766D01*
X23922Y-324979D02*
X33821Y-315080D01*
X23922Y-336614D02*
Y-316929D01*
Y-277559D02*
Y-257874D01*
X23536Y-313654D02*
X33821Y-323940D01*
X23922Y-325354D02*
X33821Y-335253D01*
X23922Y-336292D02*
X33821Y-326393D01*
X23922Y-319697D02*
X33821Y-329596D01*
X23922Y-330635D02*
X33821Y-320736D01*
X23922Y-331011D02*
X33821Y-340910D01*
X33821Y-370079D02*
X33821Y-370747D01*
X33646Y-372073D02*
X33821Y-370747D01*
X23922Y-336668D02*
X33821Y-346567D01*
X23061Y-341463D02*
X33821Y-352224D01*
X33300Y-373364D02*
X33646Y-372073D01*
X32789Y-374599D02*
X33300Y-373364D01*
X32120Y-375757D02*
X32789Y-374599D01*
X25328Y-380141D02*
X33684Y-371785D01*
X31306Y-376818D02*
X32120Y-375757D01*
X30361Y-377763D02*
X31306Y-376818D01*
X29300Y-378577D02*
X30361Y-377763D01*
X28142Y-379246D02*
X29300Y-378577D01*
X26907Y-379757D02*
X28142Y-379246D01*
X25616Y-380103D02*
X26907Y-379757D01*
X23622Y-380278D02*
X24290D01*
X25616Y-380103D01*
X22295Y-284129D02*
X33821Y-295655D01*
X19910Y-287401D02*
X33821Y-301312D01*
X16233Y-304383D02*
X33821Y-286795D01*
X6453Y-302850D02*
X33821Y-275481D01*
X11951Y-303008D02*
X33821Y-281138D01*
X19546Y-306727D02*
X33821Y-292452D01*
X22038Y-309893D02*
X33821Y-298109D01*
X16705Y-289853D02*
X33821Y-306969D01*
X12568Y-291372D02*
X33821Y-312626D01*
X7177Y-291639D02*
X33821Y-318283D01*
X7177Y-291639D02*
X33821Y-318283D01*
X21760Y-344111D02*
X33821Y-332050D01*
X5522Y-354693D02*
X9521Y-350694D01*
X8852Y-357019D02*
X17339Y-348532D01*
X21061Y-345121D02*
X33821Y-357881D01*
X18216Y-347933D02*
X33821Y-363537D01*
X12614Y-364571D02*
X33821Y-343364D01*
X11268Y-360260D02*
X33821Y-337707D01*
X11676Y-371166D02*
X33821Y-349021D01*
X14521Y-349894D02*
X33821Y-369194D01*
X19535Y-380278D02*
X33821Y-365991D01*
X8221Y-380278D02*
X33821Y-354678D01*
X13878Y-380278D02*
X33821Y-360335D01*
X12660Y-365004D02*
X27265Y-379609D01*
X12084Y-370085D02*
X22277Y-380278D01*
X9663Y-350694D02*
X33017Y-374047D01*
X4007Y-350694D02*
X30718Y-377406D01*
X7261Y-376575D02*
X10963Y-380278D01*
X10144Y-373801D02*
X16620Y-380278D01*
X2564D02*
X5024Y-377818D01*
X3414Y-378386D02*
X5306Y-380278D01*
X1053Y82073D02*
X14702Y95722D01*
X-3079Y96813D02*
X3079Y96813D01*
X-2022Y73341D02*
X19477Y94841D01*
X-3533Y83144D02*
X9686Y96363D01*
X-7633Y96523D02*
X12203Y76687D01*
X861Y82373D02*
X9100Y74134D01*
X478Y73341D02*
X5428D01*
X-1617Y79194D02*
X4236Y73341D01*
X-9224Y96422D02*
X-3079Y96813D01*
X-9989Y76687D02*
X-5979Y80698D01*
X-10274Y76402D02*
X-9989Y76687D01*
X-5428Y73341D02*
X-478D01*
X-9100Y72132D02*
Y74409D01*
Y76687D01*
Y75363D02*
X-5428Y71691D01*
X478Y68391D02*
Y73341D01*
X-478Y72398D02*
X478Y71442D01*
X873Y59266D02*
X32750Y91143D01*
X-478Y68391D02*
Y73341D01*
X-2266Y96813D02*
X35276Y59271D01*
X-478Y69228D02*
X478Y70184D01*
Y68391D02*
X1532D01*
X-2128D02*
X1553Y64710D01*
X-6663Y57387D02*
X1553Y65602D01*
X-5428Y69332D02*
Y73341D01*
X-7428Y67935D02*
X-5428Y69936D01*
X-6485Y67935D02*
X-5428Y68993D01*
X-2507Y68391D02*
X-478D01*
X-4916Y65545D02*
X-2909Y67552D01*
X-17622Y95199D02*
X-5188Y82765D01*
X-15331Y95641D02*
X-9224Y96422D01*
X-12739Y95973D02*
X483Y82751D01*
X-29565Y74082D02*
X-7090Y96558D01*
X-22311Y94231D02*
X-1421Y73341D01*
X-10424Y76687D02*
X-9100Y75363D01*
X-26801Y93064D02*
X-10424Y76687D01*
X-11378D02*
X-9100D01*
X-21377Y94474D02*
X-15331Y95641D01*
X-27337Y92925D02*
X-21377Y94474D01*
X-35502Y79459D02*
X-20274Y94687D01*
X-35502Y73802D02*
X-13419Y95886D01*
X-13656Y76687D02*
X-11378D01*
X-13656Y74409D02*
Y76687D01*
X-31085Y91691D02*
X-13656Y74262D01*
X-13084Y67935D02*
X-1758Y79262D01*
X-27934Y70057D02*
X-1177Y96813D01*
X-27934Y64400D02*
X4396Y96729D01*
X-11378Y72132D02*
X-9100D01*
X-11525D02*
X-7329Y67935D01*
X-20167D02*
X-6485D01*
X-12320Y57387D02*
X-1315Y68391D01*
X-13656Y73021D02*
X-13371Y73306D01*
X-13656Y72132D02*
Y74409D01*
X-35502Y84794D02*
X-18643Y67935D01*
X-35230Y90180D02*
X-12986Y67935D01*
X-13656Y72132D02*
X-11378D01*
X-18741Y67935D02*
X-13656Y73021D01*
X-29204Y72840D02*
X-23882Y67518D01*
X781Y59825D02*
X1335Y59271D01*
X-2417Y60587D02*
X1553Y64556D01*
X-437Y58607D02*
X3943Y62986D01*
X984Y59271D02*
X51772D01*
X-681Y58102D02*
X136Y58919D01*
X-4927Y65534D02*
X-1199Y61805D01*
X-10186Y65135D02*
X-4482Y59431D01*
X-15843Y65135D02*
X-8094Y57387D01*
X-3965Y54427D02*
X-3406Y54987D01*
X-5396D02*
X-900D01*
X-11351D02*
X-9139Y52775D01*
X-2843Y49893D02*
X-333Y52402D01*
X-2461Y51753D02*
X19080Y30213D01*
X-3000Y44079D02*
X1842Y48921D01*
X-3000Y46636D02*
X9074Y34562D01*
X-32Y35733D02*
X7591Y43356D01*
X-3000Y38422D02*
X5128Y46550D01*
X-3000Y40979D02*
X2321Y35658D01*
X-3000Y35607D02*
Y49542D01*
X-8137Y34794D02*
Y48944D01*
X-12620Y-44738D02*
X-3449Y-35566D01*
X-14357Y32722D02*
X-8137Y38942D01*
X-15449Y-41909D02*
X-8296Y-34757D01*
X-20167Y65135D02*
X-5906D01*
X-21065Y64701D02*
X-13751Y57387D01*
X-17977D02*
X-10228Y65135D01*
X-23925Y61904D02*
X-19408Y57387D01*
X-23633D02*
X-15885Y65135D01*
X-17008Y54987D02*
X-8137Y46116D01*
X-22665Y54987D02*
X-8137Y40459D01*
X-25309Y57387D02*
X-4641D01*
X-24812Y54987D02*
X-6415D01*
X-23966Y62711D02*
X-22216Y64461D01*
X-27934Y60256D02*
X-25065Y57387D01*
X-26625Y56568D02*
X-26158Y57035D01*
X-25965Y52631D02*
X-8137Y34802D01*
X-41897Y62905D02*
X-12476Y33484D01*
X-44478Y59829D02*
X-16397Y31749D01*
X-60044Y9662D02*
X-14720Y54987D01*
X-57530Y6520D02*
X-9063Y54987D01*
X-18277Y-39081D02*
X-12625Y-33428D01*
X-56011Y2381D02*
X-8758Y49635D01*
X-56282Y-3546D02*
X-8137Y44599D01*
X-47059Y56753D02*
X-19951Y29645D01*
X-49640Y53677D02*
X-23167Y27205D01*
X-52221Y50602D02*
X-26064Y24445D01*
X-63446Y11917D02*
X-20377Y54987D01*
X-23934Y-33424D02*
X-20073Y-29562D01*
X-21106Y-36252D02*
X-16532Y-31679D01*
X-29591Y-27767D02*
X-26163Y-24339D01*
X-26763Y-30595D02*
X-23278Y-27111D01*
X-33186Y91000D02*
X-27337Y92925D01*
X-29067Y72398D02*
X-28285Y71617D01*
X-35502Y85116D02*
X-27868Y92750D01*
X-27934Y65913D02*
X-26285Y64264D01*
X-27934Y58743D02*
X-26491Y60186D01*
X-27934Y62933D02*
Y70768D01*
X-35502Y79137D02*
X-31382Y75018D01*
X-35502Y73481D02*
X-30334Y68313D01*
X-35502Y90071D02*
X-33186Y91000D01*
X-35502Y71107D02*
Y90071D01*
X-35540Y70627D02*
X-35288Y70928D01*
X-30764Y70701D02*
X-30334Y70271D01*
X-36735Y69057D02*
X-30334Y62656D01*
X-39316Y65981D02*
X-30334Y56999D01*
X-27934Y56796D02*
X-27706Y56568D01*
X-27934Y56796D02*
Y61477D01*
X-30334Y56299D02*
Y70271D01*
X-29982Y55451D02*
X-29403Y54871D01*
X-54802Y47526D02*
X-28642Y21366D01*
X-57383Y44450D02*
X-30892Y17959D01*
X-67949Y13070D02*
X-28379Y52640D01*
X-47918Y55729D02*
X-32448Y71200D01*
X-59964Y41374D02*
X-32790Y14201D01*
X-62545Y38298D02*
X-34292Y10046D01*
X-65126Y35222D02*
X-35320Y5417D01*
X-40463Y6616D02*
X-32722Y14357D01*
X-37409Y4013D02*
X-35184Y6238D01*
X-67707Y32146D02*
X-43624Y8063D01*
X-74689Y23825D02*
X-35717Y70271D01*
X-75417Y23103D02*
X-75014Y23583D01*
X-75171Y11505D02*
X-30334Y56343D01*
X-93966Y23318D02*
X-75881Y23493D01*
X-84233Y13757D02*
X-30334Y67657D01*
X-75881Y23493D02*
X-75417Y23103D01*
X-76022Y23491D02*
X-65061Y12531D01*
X-84232Y19416D02*
X-80196Y23451D01*
X-81625Y23437D02*
X-71105Y12918D01*
X-94700Y20261D02*
X-91620Y23341D01*
X-92830Y23329D02*
X-87496Y17994D01*
X-94857Y19607D02*
X-93966Y23318D01*
X-95929Y13375D02*
X-85908Y23396D01*
X-95911Y13541D02*
X-94857Y19607D01*
X-94839Y19681D02*
X-86633Y11475D01*
X-70288Y29070D02*
X-35228Y-5990D01*
X-84233Y-8558D02*
Y15753D01*
X-72868Y25995D02*
X-32878Y-13996D01*
X-87228Y23383D02*
X-75286Y11442D01*
X-84233Y8101D02*
X-30334Y62000D01*
X-84233Y2444D02*
X-80403Y6274D01*
X-84233Y14732D02*
X-78461Y8960D01*
X-84233Y9075D02*
X-80750Y5592D01*
X-95681Y14866D02*
X-86633Y5818D01*
Y-9055D02*
Y15753D01*
X-96578Y7419D02*
X-95911Y13541D01*
X-96594Y7053D02*
X-87132Y16515D01*
X-96314Y9842D02*
X-86633Y161D01*
X-96748Y-4414D02*
X-86633Y5701D01*
X-96854Y1268D02*
X-96578Y7419D01*
X-96851Y1139D02*
X-86633Y11357D01*
X-36197Y636D02*
X-35733Y172D01*
X-40756Y5195D02*
X-39127Y3567D01*
X-60586Y-19164D02*
X-39840Y1582D01*
X-59762Y-23997D02*
X-35733Y32D01*
X-43066Y-18615D02*
X-34338Y-9887D01*
X-41620Y-21654D02*
Y-20866D01*
X-55980Y-2207D02*
X-34191Y-23997D01*
X-54105D02*
X-35347Y-5239D01*
X-57456Y-6389D02*
X-45195Y-18650D01*
X-67760Y-13055D02*
X-62413Y-18402D01*
X-69935Y-22856D02*
X-42836Y4242D01*
X-46569Y-21654D02*
Y-20866D01*
X-48448Y-23997D02*
X-46532Y-22081D01*
X-37135Y-23997D02*
X-30967Y-17829D01*
X-32419Y-24939D02*
X-28729Y-21248D01*
X-43299Y-23997D02*
X-33858D01*
X-42791D02*
X-32852Y-14057D01*
X-69291Y-26397D02*
X-36372D01*
X-37448D02*
X-36687Y-27157D01*
X-59938Y-9563D02*
X-45504Y-23997D01*
X-63306Y-11852D02*
X-51161Y-23997D01*
X-60134Y-20681D02*
X-56818Y-23997D01*
X-41674Y-22170D02*
X-39848Y-23997D01*
X-60663Y-47526D02*
X-39535Y-26397D01*
X-68794Y-23997D02*
X-44890D01*
X-65419D02*
X-63513Y-22091D01*
X-84233Y-2239D02*
X-80626Y-5845D01*
X-84077Y-8714D02*
X-80815Y-5452D01*
X-81249Y-11542D02*
X-78560Y-8853D01*
X-84233Y3418D02*
X-81953Y1138D01*
X-84233Y-3213D02*
X-81968Y-948D01*
X-75592Y-17199D02*
X-71279Y-12887D01*
X-72763Y-20028D02*
X-65351Y-12616D01*
X-78420Y-14371D02*
X-75417Y-11368D01*
X-94837Y-19474D02*
X-85774Y-10411D01*
X-96705Y4577D02*
X-86633Y-5496D01*
X-96345Y-9668D02*
X-86633Y44D01*
X-96854Y1268D02*
X-96739Y-4888D01*
X-96233Y-11025D01*
X-95696Y-14676D02*
X-86633Y-5613D01*
X-96233Y-11025D02*
X-95338Y-17117D01*
X-84233Y-7896D02*
X-68132Y-23997D01*
X-84233Y-8558D02*
X-68794Y-23997D01*
X-74743Y-11729D02*
X-62475Y-23997D01*
X-86282Y-9904D02*
X-70140Y-26045D01*
X-89547Y-36811D02*
X-74461Y-21725D01*
X-87853Y-40775D02*
X-71632Y-24553D01*
X-85967Y-44546D02*
X-67819Y-26397D01*
X-92555Y-28506D02*
X-80117Y-16068D01*
X-91118Y-32725D02*
X-77289Y-18896D01*
X-95338Y-17117D02*
X-94058Y-23140D01*
X-93792Y-24086D02*
X-82946Y-13239D01*
X-90364Y-34881D02*
X-87965Y-40552D01*
X-85210Y-46059D01*
X-94058Y-23140D02*
X-92397Y-29070D01*
X-90364Y-34881D01*
X1522Y-58880D02*
X56414Y-3987D01*
X-4135Y-53223D02*
X18541Y-30546D01*
X-5990Y-35228D02*
X19394Y-60611D01*
X-6964Y-50394D02*
X8798Y-34633D01*
X-13996Y-32878D02*
X13737Y-60611D01*
X172Y-35733D02*
X25051Y-60611D01*
X1057Y-81972D02*
X17456Y-65573D01*
X-9792Y-47566D02*
X2103Y-35671D01*
X-1307Y-56051D02*
X14481Y-40263D01*
X1321Y-87793D02*
X1998Y-88470D01*
X-6000Y-105999D02*
X7555Y-92444D01*
X-343Y-105999D02*
X10649Y-95008D01*
X-9843Y-105999D02*
X9843D01*
X-6168Y-153843D02*
X5043Y-165054D01*
X-2830D02*
X8381Y-153843D01*
X-511D02*
X10728Y-165082D01*
X-9843Y-153843D02*
X9843D01*
X-9843Y-165054D02*
X9843D01*
X-11793Y-106135D02*
X-142Y-94484D01*
X-11989Y-153679D02*
X-613Y-165054D01*
X-8487D02*
X2725Y-153843D01*
X-17842Y-163096D02*
X-8589Y-153843D01*
X-14769Y-165679D02*
X-2932Y-153843D01*
X-54418Y-26397D02*
X7925Y-88740D01*
X-33010Y-24348D02*
X3253Y-60611D01*
X-43104Y-26397D02*
X33822Y-103323D01*
X-56367Y3836D02*
X8080Y-60611D01*
X-96812Y-974D02*
X8214Y-105999D01*
X-34079Y-100137D02*
X937Y-65121D01*
X-33821Y-105536D02*
X6142Y-65573D01*
X-34306Y-29878D02*
X979Y-65163D01*
X-35332Y-95733D02*
X-1892Y-62293D01*
X-53939Y-80399D02*
X-18862Y-45322D01*
X-50495Y-82612D02*
X-16034Y-48151D01*
X-60075Y-26397D02*
X-2377Y-84095D01*
X-65732Y-26397D02*
X-2425Y-89704D01*
X-40012Y-89099D02*
X-7548Y-56636D01*
X-37343Y-92088D02*
X-4720Y-59465D01*
X-46943Y-84717D02*
X-13205Y-50979D01*
X-43239Y-86670D02*
X-10377Y-53808D01*
X-48761Y-26397D02*
X33822Y-108980D01*
X-58704Y-50395D02*
X-3100Y-105999D01*
X-33821Y-111193D02*
X11799Y-65573D01*
X-96575Y-6867D02*
X2557Y-105999D01*
X-59467Y-55289D02*
X-8757Y-105999D01*
X-23586Y-106615D02*
X-1886Y-84915D01*
X-21164Y-109849D02*
X-2302Y-90988D01*
X-33821Y-137504D02*
X-6270Y-165054D01*
X-64932Y-55481D02*
X-13836Y-106577D01*
X-89759Y-36311D02*
X-17684Y-108385D01*
X-33821Y-173418D02*
X-13706Y-153303D01*
X-33821Y-143160D02*
X-11791Y-165190D01*
X-33821Y-167761D02*
X-17584Y-151524D01*
X-9843Y-243794D02*
X9843D01*
X-2815Y-215951D02*
X238Y-212898D01*
X-2374Y-243794D02*
X368Y-241052D01*
X-9843Y-212898D02*
X9843D01*
X-4861Y-302850D02*
X6350Y-291639D01*
X-4137D02*
X7074Y-302850D01*
X-9843Y-291639D02*
X9843D01*
X-9794D02*
X1417Y-302850D01*
X-3681Y-212898D02*
X-911Y-215668D01*
X-9338Y-212898D02*
X-5398Y-216839D01*
X-16879Y-211014D02*
X-8759Y-219135D01*
X-16834Y-241283D02*
X-10723Y-235173D01*
X-8031Y-243794D02*
X-4479Y-240242D01*
X-4712Y-240152D02*
X-1069Y-243794D01*
X-14470Y-244577D02*
X-8065Y-238172D01*
X1520Y-291639D02*
X13117Y-303236D01*
X796Y-302850D02*
X12207Y-291439D01*
X-1650Y-350694D02*
X1138Y-353482D01*
X-9843Y-302850D02*
X9843D01*
X-10534Y-302867D02*
X694Y-291639D01*
X1081Y-353477D02*
X3864Y-350694D01*
X-1922Y-378707D02*
X-350Y-380278D01*
X-9843Y-350694D02*
X9843D01*
X-7307D02*
X-3943Y-354058D01*
X-13428Y-350230D02*
X-7660Y-355998D01*
X-17024Y-303699D02*
X-4963Y-291639D01*
X-6077Y-354977D02*
X-1793Y-350694D01*
X-3093Y-380278D02*
X-1570Y-378755D01*
X-14406Y-380278D02*
X-9122Y-374993D01*
X-8750Y-380278D02*
X-5882Y-377410D01*
X-33821Y-241301D02*
X-5419Y-212898D01*
X-33821Y-235644D02*
X-11026Y-212849D01*
X-33821Y-216699D02*
X-6726Y-243794D01*
X-33821Y-199729D02*
X-11205Y-222345D01*
X-33821Y-211042D02*
X-11806Y-233058D01*
X-18197Y-288892D02*
X-4239Y-302850D01*
X-17024Y-303699D02*
X-4963Y-291639D01*
X-33821Y-278925D02*
X-9896Y-302850D01*
X-33821Y-222356D02*
X-12186Y-243991D01*
X-33821Y-246957D02*
X-12395Y-225532D01*
X-33821Y-205386D02*
X-12593Y-226614D01*
X-33821Y-229987D02*
X-15532Y-211698D01*
X-33821Y-303526D02*
X-18754Y-288459D01*
X-33821Y-252614D02*
X-12390Y-231184D01*
X-33821Y-284582D02*
X-14692Y-303711D01*
X-32264Y-375508D02*
X-7450Y-350694D01*
X-33821Y-352464D02*
X-6007Y-380278D01*
X-33821Y-314840D02*
X-10600Y-291618D01*
X-33821Y-335493D02*
X-10433Y-358881D01*
X-20063Y-380278D02*
X-11449Y-371663D01*
X-23622Y-380278D02*
X23622Y-380278D01*
X-29513Y-378414D02*
X-11164Y-360065D01*
X-33821Y-358121D02*
X-11664Y-380278D01*
X-33821Y-346807D02*
X-12565Y-368063D01*
X-33821Y-309183D02*
X-15213Y-290574D01*
X-33821Y-341150D02*
X-12244Y-362727D01*
X-33744Y-371331D02*
X-12794Y-350381D01*
X-25554Y-380111D02*
X-12665Y-367222D01*
X-33821Y-365751D02*
X-16879Y-348809D01*
X-33821Y-363778D02*
X-17321Y-380278D01*
X-21341Y-109672D02*
X-20329Y-110684D01*
X-33821Y-116850D02*
X-28031Y-111060D01*
X-34916Y-96811D02*
X-25298Y-106429D01*
X-33821Y-109219D02*
X-23891Y-119149D01*
X-24974Y-113304D02*
X-23057Y-115221D01*
X-33821Y-122507D02*
X-24796Y-113482D01*
X-33821Y-114876D02*
X-23922Y-124775D01*
X-37393Y-92009D02*
X-36184Y-93925D01*
X-36085Y-94108D02*
X-35133Y-96163D01*
X-40761Y-88401D02*
X-39103Y-89945D01*
X-38960Y-90096D02*
X-37515Y-91841D01*
X-33915Y-101106D02*
X-33826Y-102236D01*
X-33821Y-103562D02*
X-28191Y-109193D01*
X-35058Y-96358D02*
X-34379Y-98519D01*
X-34330Y-98721D02*
X-33935Y-100951D01*
X-33821Y-162105D02*
X-20583Y-148867D01*
X-33821Y-156448D02*
X-22753Y-145380D01*
X-33821Y-148817D02*
X-19330Y-163309D01*
X-33821Y-128164D02*
X-23786Y-118129D01*
X-33821Y-131847D02*
X-23757Y-141910D01*
X-33821Y-165788D02*
X-23576Y-176033D01*
X-33821Y-179075D02*
X-21549Y-166804D01*
X-33821Y-154474D02*
X-21554Y-166741D01*
X-33821Y-160131D02*
X-21970Y-171982D01*
X-33821Y-133820D02*
X-23922Y-123921D01*
Y-139764D02*
Y-120079D01*
X-33821Y-120533D02*
X-23922Y-130432D01*
X-33821Y-102362D02*
X-33821Y-370079D01*
X-33821Y-145134D02*
X-23922Y-135235D01*
X-33821Y-150791D02*
X-23880Y-140850D01*
X-33821Y-126190D02*
X-23922Y-136089D01*
X-33821Y-139477D02*
X-23922Y-129578D01*
X-59369Y-51888D02*
X-36301Y-28820D01*
X-79590Y-55139D02*
X-50848Y-26397D01*
X-77208Y-58413D02*
X-45191Y-26397D01*
X-95916Y-13184D02*
X-61419Y-47681D01*
X-81862Y-51753D02*
X-56505Y-26397D01*
X-83964Y-48199D02*
X-62162Y-26397D01*
X-85210Y-46059D02*
X-82112Y-51380D01*
X-94717Y-20040D02*
X-66050Y-48706D01*
X-92807Y-27606D02*
X-66111Y-54302D01*
X-82112Y-51380D02*
X-78681Y-56494D01*
X-74933Y-61379D01*
X-60469Y-75616D02*
X-24519Y-39666D01*
X-63551Y-73041D02*
X-27347Y-36837D01*
X-57290Y-78093D02*
X-21691Y-42494D01*
X-69366Y-67542D02*
X-33004Y-31180D01*
X-66549Y-70381D02*
X-30176Y-34009D01*
X-43878Y-86301D02*
X-42897Y-86868D01*
X-42765Y-86953D02*
X-40922Y-88270D01*
X-51993Y-81725D02*
X-46695Y-84864D01*
X-43952Y-86261D01*
X-74739Y-61601D02*
X-66197Y-53060D01*
X-72101Y-64620D02*
X-62283Y-54802D01*
X-74933Y-61379D02*
X-70882Y-66016D01*
X-84573Y-47153D02*
X-47107Y-84620D01*
X-61937Y-74472D02*
X-57081Y-78256D01*
X-51993Y-81725D01*
X-70882Y-66016D02*
X-66544Y-70386D01*
X-61937Y-74472D01*
X-33821Y-295895D02*
X-22656Y-307061D01*
X-33821Y-297869D02*
X-21462Y-285510D01*
X-33821Y-290239D02*
X-20842Y-303218D01*
X-33821Y-320496D02*
X-21891Y-308566D01*
X-33821Y-301552D02*
X-23122Y-312251D01*
X-33821Y-320496D02*
X-21891Y-308566D01*
X-23922Y-198819D02*
Y-179134D01*
Y-277559D02*
Y-257874D01*
X-33821Y-307209D02*
X-23922Y-317108D01*
X-33821Y-312866D02*
X-23922Y-322765D01*
X-33821Y-331810D02*
X-23922Y-321911D01*
X-33821Y-324180D02*
X-23922Y-334079D01*
X-33821Y-326153D02*
X-23905Y-316237D01*
X-33821Y-318523D02*
X-23922Y-328422D01*
X-33821Y-343124D02*
X-23922Y-333225D01*
Y-336614D02*
Y-316929D01*
X-33821Y-348781D02*
X-23763Y-338723D01*
X-33821Y-337467D02*
X-23922Y-327568D01*
X-33821Y-329837D02*
X-23458Y-340200D01*
X-25616Y-380103D02*
X-24291Y-380278D01*
X-23622Y-380278D01*
X-33821Y-354437D02*
X-22388Y-343005D01*
X-26908Y-379757D02*
X-25616Y-380103D01*
X-32789Y-374599D02*
X-32120Y-375757D01*
X-31306Y-376818D01*
X-33647Y-372073D02*
X-33301Y-373364D01*
X-32789Y-374599D01*
X-29300Y-378577D02*
X-28143Y-379246D01*
X-26908Y-379757D01*
X-31306Y-376818D02*
X-30361Y-377763D01*
X-29300Y-378577D01*
X-33821Y-218673D02*
X-21644Y-206497D01*
X-33821Y-213016D02*
X-23405Y-202600D01*
X-33821Y-224330D02*
X-19003Y-209511D01*
X-33821Y-184732D02*
X-22861Y-173772D01*
X-33821Y-194072D02*
X-22038Y-205855D01*
X-33821Y-239327D02*
X-22136Y-251011D01*
X-33821Y-244984D02*
X-23656Y-255149D01*
X-33821Y-228013D02*
X-20137Y-241697D01*
X-33821Y-233670D02*
X-19685Y-247806D01*
X-33821Y-190389D02*
X-23922Y-180490D01*
X-33821Y-182758D02*
X-23922Y-192657D01*
X-33821Y-171445D02*
X-23922Y-181344D01*
X-33821Y-177101D02*
X-23922Y-187001D01*
X-33821Y-201702D02*
X-23922Y-191804D01*
X-33821Y-207359D02*
X-23922Y-197460D01*
X-33821Y-196046D02*
X-23922Y-186147D01*
X-33821Y-188415D02*
X-23922Y-198314D01*
X-33821Y-280898D02*
X-23922Y-270999D01*
X-33821Y-267611D02*
X-23922Y-277510D01*
X-33821Y-273268D02*
X-21175Y-285914D01*
X-33821Y-258271D02*
X-21315Y-245765D01*
X-33821Y-263928D02*
X-23140Y-253247D01*
X-33821Y-360094D02*
X-20044Y-346318D01*
X-33821Y-369434D02*
X-22978Y-380278D01*
X-33821Y-286555D02*
X-23922Y-276656D01*
X-33821Y-292212D02*
X-23302Y-281693D01*
X-33821Y-256297D02*
X-23922Y-266196D01*
X-33821Y-269585D02*
X-23922Y-259686D01*
X-33821Y-250641D02*
X-23922Y-260540D01*
X-33821Y-250641D02*
X-23922Y-260540D01*
X-33821Y-370747D02*
Y-370079D01*
Y-370747D02*
X-33647Y-372073D01*
X-33821Y-261954D02*
X-23922Y-271853D01*
X-33821Y-275242D02*
X-23922Y-265343D01*
X-31304Y72938D02*
X-29134Y70768D01*
Y56299D02*
Y70768D01*
X-69291Y-25197D02*
X-33858D01*
X-85433Y-9055D02*
Y17717D01*
Y-9055D02*
X-69291Y-25197D01*
X74803Y-16535D02*
X79134Y-12205D01*
X56299Y-61811D02*
X74803Y-43307D01*
Y-16535D01*
X-29134Y56299D02*
X-27559Y54724D01*
X984Y58071D02*
X51772D01*
X81102Y28740D01*
X-33858Y-25197D02*
X2756Y-61811D01*
X56299D01*
X-19291Y-306299D02*
X-14567Y-311024D01*
Y-314567D02*
Y-311024D01*
X-900Y56187D02*
X984Y58071D01*
X-27559Y54331D02*
Y54724D01*
X-25309Y56187D02*
X-900D01*
X-27165Y54331D02*
X-25309Y56187D01*
X-5906Y51575D02*
X-5568Y51238D01*
X-4944Y26378D02*
X-787D01*
X-5568Y27003D02*
Y51238D01*
Y27003D02*
X-4944Y26378D01*
X-18110Y-166929D02*
Y-166535D01*
Y-166929D02*
X-9449Y-175591D01*
X-4724D01*
X-24803Y-109843D02*
X-18439Y-116207D01*
X-11483D02*
X-11024Y-115748D01*
X-18439Y-116207D02*
X-11483D01*
X-18110Y-244965D02*
X-11501Y-251575D01*
X-18110Y-244965D02*
Y-244488D01*
X-11501Y-251575D02*
X-11417D01*
X-14961Y-122835D02*
X-13494Y-121368D01*
D20*
X0Y-326772D02*
D03*
Y-267717D02*
D03*
Y-188976D02*
D03*
Y-129921D02*
D03*
D21*
Y0D02*
D03*
D22*
X76772Y-26772D02*
X85039Y-18504D01*
X76772Y-44882D02*
Y-26772D01*
X85039Y-18504D02*
Y-787D01*
X87402Y1575D01*
Y11417D01*
X70472Y28346D02*
X87402Y11417D01*
X1969Y-64173D02*
X57480D01*
X-34646Y-27559D02*
X1969Y-64173D01*
X57480D02*
X76772Y-44882D01*
X-5906Y66535D02*
X-3899Y68542D01*
Y69920D02*
X-2953Y70866D01*
X-22047Y66535D02*
X-5906D01*
X-3899Y68542D02*
Y69920D01*
X2953Y63976D02*
Y70866D01*
X-2756Y58268D02*
X2953Y63976D01*
D23*
X-44094Y-21260D02*
D03*
X-39370D02*
D03*
D24*
X-68898Y0D02*
D03*
X68898D02*
D03*
D25*
X56890Y-51378D02*
D03*
Y-46260D02*
D03*
X51772Y-51378D02*
D03*
Y-46260D02*
D03*
X46654Y-51378D02*
D03*
Y-46260D02*
D03*
X41535Y-51378D02*
D03*
Y-46260D02*
D03*
X13386Y-49803D02*
D03*
Y-44685D02*
D03*
X8268Y-49803D02*
D03*
Y-44685D02*
D03*
X3150Y-49803D02*
D03*
Y-44685D02*
D03*
X-1969Y-49803D02*
D03*
Y-44685D02*
D03*
X18898Y-37402D02*
D03*
X16142Y-38976D02*
D03*
X20472Y-50000D02*
D03*
X24016D02*
D03*
X64327Y-39486D02*
D03*
X60236Y-33071D02*
D03*
Y-39764D02*
D03*
Y-36614D02*
D03*
Y-29528D02*
D03*
X56693Y-33071D02*
D03*
X68657Y-39486D02*
D03*
D26*
X-1969Y-64173D02*
D03*
X15354Y-107087D02*
D03*
X86614Y-36220D02*
D03*
X57874Y-14173D02*
D03*
X40945Y48425D02*
D03*
X-55905Y-75984D02*
D03*
X-58661Y-61417D02*
D03*
X-91732Y-17323D02*
D03*
X-80709Y-45276D02*
D03*
X-94882Y3150D02*
D03*
X787Y94488D02*
D03*
X86614Y37008D02*
D03*
X57480Y70079D02*
D03*
X65354Y68110D02*
D03*
X52362Y77953D02*
D03*
X40157Y85433D02*
D03*
X-29921Y-129921D02*
D03*
X26772Y-107087D02*
D03*
X-24409Y-373228D02*
D03*
X26772D02*
D03*
X-64173Y14173D02*
D03*
X-24016Y33858D02*
D03*
X-29134Y38189D02*
D03*
X-33071Y32283D02*
D03*
X-37402Y27559D02*
D03*
X-37008Y18504D02*
D03*
X-42520Y22835D02*
D03*
X-28346Y28346D02*
D03*
X-32677Y23622D02*
D03*
X15354Y70472D02*
D03*
X-41339Y-31102D02*
D03*
X79528Y49606D02*
D03*
X54724Y65861D02*
D03*
X-31304Y72938D02*
D03*
X81102Y28740D02*
D03*
X79134Y-12205D02*
D03*
X-42520Y6299D02*
D03*
X70472Y28346D02*
D03*
X-85433Y17717D02*
D03*
X-34646Y-27559D02*
D03*
X87402Y1575D02*
D03*
X-37795Y1969D02*
D03*
X-5906Y51575D02*
D03*
X9055Y47638D02*
D03*
X11024Y43701D02*
D03*
X2756Y53937D02*
D03*
X5118Y50000D02*
D03*
X-18110Y-166535D02*
D03*
X-24803Y-109843D02*
D03*
X-18110Y-244488D02*
D03*
X-19291Y-306299D02*
D03*
X-34252Y69685D02*
D03*
X24409Y35039D02*
D03*
X-60630Y-49606D02*
D03*
X-60617Y-53554D02*
D03*
X27165Y39845D02*
D03*
X27165Y37008D02*
D03*
X-52756Y42126D02*
D03*
X-64173Y-49606D02*
D03*
Y-53543D02*
D03*
X1575Y-93307D02*
D03*
X-394Y-90158D02*
D03*
Y-86614D02*
D03*
Y-83465D02*
D03*
X9449Y-93307D02*
D03*
X3170Y-90191D02*
D03*
X6299Y-90158D02*
D03*
X9449D02*
D03*
X27165Y33858D02*
D03*
X48819Y33071D02*
D03*
Y29134D02*
D03*
Y25591D02*
D03*
Y36614D02*
D03*
X-62205Y-20472D02*
D03*
X-27953Y79528D02*
D03*
X-24803Y69685D02*
D03*
X-13386Y53150D02*
D03*
X28740Y-86221D02*
D03*
Y-83071D02*
D03*
X-1181Y-96850D02*
D03*
X-73622Y14173D02*
D03*
X-35433Y10236D02*
D03*
X-60236Y19291D02*
D03*
X-34252Y15748D02*
D03*
X-20472Y31890D02*
D03*
X22441Y53543D02*
D03*
X-15354Y70079D02*
D03*
X25197Y91339D02*
D03*
X-25591Y91732D02*
D03*
X-15354Y63386D02*
D03*
X-7874Y61024D02*
D03*
X26772Y63386D02*
D03*
X30709Y79528D02*
D03*
X35827Y-46850D02*
D03*
X-41339Y-34252D02*
D03*
X-79134Y-22835D02*
D03*
X-75984D02*
D03*
X-49606Y-36220D02*
D03*
X-46457D02*
D03*
X-43701D02*
D03*
X-63386Y-68898D02*
D03*
Y-65748D02*
D03*
X-19685Y-81496D02*
D03*
Y-77559D02*
D03*
X-6693Y-69685D02*
D03*
X-3543D02*
D03*
X3150Y-74410D02*
D03*
X12205D02*
D03*
X19685Y-71653D02*
D03*
X23622D02*
D03*
X40945Y-71260D02*
D03*
X51181Y-70866D02*
D03*
X64567Y-61811D02*
D03*
X68504Y-61417D02*
D03*
X87795Y-5118D02*
D03*
X73622Y21260D02*
D03*
Y57480D02*
D03*
X-33071Y-16929D02*
D03*
X-25984Y-25591D02*
D03*
X-19685Y-31496D02*
D03*
X-81890Y22441D02*
D03*
X-75984D02*
D03*
X-85827Y22047D02*
D03*
X-27165Y54331D02*
D03*
X-12992Y-34252D02*
D03*
X-2756Y58268D02*
D03*
X-92520Y22047D02*
D03*
X-22047Y66535D02*
D03*
X-25984Y62205D02*
D03*
X-3937Y81102D02*
D03*
X-787D02*
D03*
X-34252Y79134D02*
D03*
Y86221D02*
D03*
Y73228D02*
D03*
X-65748Y27559D02*
D03*
X-63386Y29921D02*
D03*
X-61417Y32677D02*
D03*
X-59449Y35039D02*
D03*
X-57087Y37795D02*
D03*
X-55118Y40157D02*
D03*
X-50787Y44882D02*
D03*
X-48425Y47638D02*
D03*
X-46063Y50394D02*
D03*
X-44094Y52756D02*
D03*
X-41732Y55512D02*
D03*
X-39370Y57874D02*
D03*
X-37402Y60630D02*
D03*
M02*
