G04*
G04 #@! TF.GenerationSoftware,Altium Limited,Altium Designer,21.9.2 (33)*
G04*
G04 Layer_Color=16711935*
%FSLAX25Y25*%
%MOIN*%
G70*
G04*
G04 #@! TF.SameCoordinates,C6F11EFD-203B-4413-AD8B-19CE97DDEB68*
G04*
G04*
G04 #@! TF.FilePolarity,Negative*
G04*
G01*
G75*
%ADD12C,0.07087*%
%ADD14C,0.00299*%
%ADD15R,0.00299X0.00299*%
%ADD16O,0.03449X0.04236*%
%ADD17C,0.24709*%
%ADD18C,0.02701*%
%ADD40C,0.03937*%
%ADD57R,0.05500X0.09843*%
%ADD77R,0.05417X0.01953*%
G04:AMPARAMS|DCode=78|XSize=29.72mil|YSize=28.35mil|CornerRadius=5.32mil|HoleSize=0mil|Usage=FLASHONLY|Rotation=180.000|XOffset=0mil|YOffset=0mil|HoleType=Round|Shape=RoundedRectangle|*
%AMROUNDEDRECTD78*
21,1,0.02972,0.01772,0,0,180.0*
21,1,0.01909,0.02835,0,0,180.0*
1,1,0.01063,-0.00955,0.00886*
1,1,0.01063,0.00955,0.00886*
1,1,0.01063,0.00955,-0.00886*
1,1,0.01063,-0.00955,-0.00886*
%
%ADD78ROUNDEDRECTD78*%
G04:AMPARAMS|DCode=79|XSize=50.63mil|YSize=25.83mil|CornerRadius=4.35mil|HoleSize=0mil|Usage=FLASHONLY|Rotation=270.000|XOffset=0mil|YOffset=0mil|HoleType=Round|Shape=RoundedRectangle|*
%AMROUNDEDRECTD79*
21,1,0.05063,0.01713,0,0,270.0*
21,1,0.04193,0.02583,0,0,270.0*
1,1,0.00870,-0.00856,-0.02097*
1,1,0.00870,-0.00856,0.02097*
1,1,0.00870,0.00856,0.02097*
1,1,0.00870,0.00856,-0.02097*
%
%ADD79ROUNDEDRECTD79*%
G04:AMPARAMS|DCode=80|XSize=26.61mil|YSize=50.24mil|CornerRadius=0mil|HoleSize=0mil|Usage=FLASHONLY|Rotation=258.000|XOffset=0mil|YOffset=0mil|HoleType=Round|Shape=Rectangle|*
%AMROTATEDRECTD80*
4,1,4,-0.02180,0.01824,0.02734,0.00779,0.02180,-0.01824,-0.02734,-0.00779,-0.02180,0.01824,0.0*
%
%ADD80ROTATEDRECTD80*%

G04:AMPARAMS|DCode=81|XSize=54.17mil|YSize=28.58mil|CornerRadius=0mil|HoleSize=0mil|Usage=FLASHONLY|Rotation=168.000|XOffset=0mil|YOffset=0mil|HoleType=Round|Shape=Rectangle|*
%AMROTATEDRECTD81*
4,1,4,0.02947,0.00835,0.02352,-0.01961,-0.02947,-0.00835,-0.02352,0.01961,0.02947,0.00835,0.0*
%
%ADD81ROTATEDRECTD81*%

G04:AMPARAMS|DCode=82|XSize=26.61mil|YSize=50.24mil|CornerRadius=0mil|HoleSize=0mil|Usage=FLASHONLY|Rotation=282.000|XOffset=0mil|YOffset=0mil|HoleType=Round|Shape=Rectangle|*
%AMROTATEDRECTD82*
4,1,4,-0.02734,0.00779,0.02180,0.01824,0.02734,-0.00779,-0.02180,-0.01824,-0.02734,0.00779,0.0*
%
%ADD82ROTATEDRECTD82*%

G04:AMPARAMS|DCode=83|XSize=54.17mil|YSize=28.58mil|CornerRadius=0mil|HoleSize=0mil|Usage=FLASHONLY|Rotation=192.000|XOffset=0mil|YOffset=0mil|HoleType=Round|Shape=Rectangle|*
%AMROTATEDRECTD83*
4,1,4,0.02352,0.01961,0.02947,-0.00835,-0.02352,-0.01961,-0.02947,0.00835,0.02352,0.01961,0.0*
%
%ADD83ROTATEDRECTD83*%

G04:AMPARAMS|DCode=84|XSize=29.72mil|YSize=28.35mil|CornerRadius=5.32mil|HoleSize=0mil|Usage=FLASHONLY|Rotation=230.000|XOffset=0mil|YOffset=0mil|HoleType=Round|Shape=RoundedRectangle|*
%AMROUNDEDRECTD84*
21,1,0.02972,0.01772,0,0,230.0*
21,1,0.01909,0.02835,0,0,230.0*
1,1,0.01063,-0.01292,-0.00162*
1,1,0.01063,-0.00065,0.01301*
1,1,0.01063,0.01292,0.00162*
1,1,0.01063,0.00065,-0.01301*
%
%ADD84ROUNDEDRECTD84*%
%ADD85R,0.02169X0.02268*%
%ADD86R,0.02268X0.02169*%
G04:AMPARAMS|DCode=87|XSize=21.69mil|YSize=22.68mil|CornerRadius=0mil|HoleSize=0mil|Usage=FLASHONLY|Rotation=230.000|XOffset=0mil|YOffset=0mil|HoleType=Round|Shape=Rectangle|*
%AMROTATEDRECTD87*
4,1,4,-0.00171,0.01560,0.01566,0.00102,0.00171,-0.01560,-0.01566,-0.00102,-0.00171,0.01560,0.0*
%
%ADD87ROTATEDRECTD87*%

G04:AMPARAMS|DCode=88|XSize=54.17mil|YSize=42.36mil|CornerRadius=6.42mil|HoleSize=0mil|Usage=FLASHONLY|Rotation=50.000|XOffset=0mil|YOffset=0mil|HoleType=Round|Shape=RoundedRectangle|*
%AMROUNDEDRECTD88*
21,1,0.05417,0.02953,0,0,50.0*
21,1,0.04134,0.04236,0,0,50.0*
1,1,0.01284,0.02460,0.00634*
1,1,0.01284,-0.00198,-0.02532*
1,1,0.01284,-0.02460,-0.00634*
1,1,0.01284,0.00198,0.02532*
%
%ADD88ROUNDEDRECTD88*%
%ADD89R,0.07386X0.05614*%
%ADD90R,0.22740X0.06598*%
%ADD91R,0.01480X0.04630*%
%ADD92R,0.06598X0.06205*%
%ADD93R,0.06598X0.05024*%
%ADD94R,0.05614X0.07386*%
%ADD95R,0.10142X0.06992*%
G04:AMPARAMS|DCode=96|XSize=38.42mil|YSize=60.08mil|CornerRadius=3.45mil|HoleSize=0mil|Usage=FLASHONLY|Rotation=90.000|XOffset=0mil|YOffset=0mil|HoleType=Round|Shape=RoundedRectangle|*
%AMROUNDEDRECTD96*
21,1,0.03842,0.05319,0,0,90.0*
21,1,0.03154,0.06008,0,0,90.0*
1,1,0.00689,0.02659,0.01577*
1,1,0.00689,0.02659,-0.01577*
1,1,0.00689,-0.02659,-0.01577*
1,1,0.00689,-0.02659,0.01577*
%
%ADD96ROUNDEDRECTD96*%
G04:AMPARAMS|DCode=97|XSize=127.01mil|YSize=60.08mil|CornerRadius=3.49mil|HoleSize=0mil|Usage=FLASHONLY|Rotation=90.000|XOffset=0mil|YOffset=0mil|HoleType=Round|Shape=RoundedRectangle|*
%AMROUNDEDRECTD97*
21,1,0.12701,0.05309,0,0,90.0*
21,1,0.12002,0.06008,0,0,90.0*
1,1,0.00699,0.02655,0.06001*
1,1,0.00699,0.02655,-0.06001*
1,1,0.00699,-0.02655,-0.06001*
1,1,0.00699,-0.02655,0.06001*
%
%ADD97ROUNDEDRECTD97*%
%ADD98R,0.02454X0.01850*%
%ADD99P,0.04877X4X275.0*%
G04:AMPARAMS|DCode=100|XSize=34.49mil|YSize=18.74mil|CornerRadius=0mil|HoleSize=0mil|Usage=FLASHONLY|Rotation=230.000|XOffset=0mil|YOffset=0mil|HoleType=Round|Shape=Rectangle|*
%AMROTATEDRECTD100*
4,1,4,0.00391,0.01923,0.01826,0.00719,-0.00391,-0.01923,-0.01826,-0.00719,0.00391,0.01923,0.0*
%
%ADD100ROTATEDRECTD100*%

G04:AMPARAMS|DCode=101|XSize=18.74mil|YSize=34.49mil|CornerRadius=0mil|HoleSize=0mil|Usage=FLASHONLY|Rotation=230.000|XOffset=0mil|YOffset=0mil|HoleType=Round|Shape=Rectangle|*
%AMROTATEDRECTD101*
4,1,4,-0.00719,0.01826,0.01923,-0.00391,0.00719,-0.01826,-0.01923,0.00391,-0.00719,0.01826,0.0*
%
%ADD101ROTATEDRECTD101*%

%ADD102P,0.07105X4X275.0*%
G04:AMPARAMS|DCode=103|XSize=21.69mil|YSize=22.68mil|CornerRadius=0mil|HoleSize=0mil|Usage=FLASHONLY|Rotation=315.000|XOffset=0mil|YOffset=0mil|HoleType=Round|Shape=Rectangle|*
%AMROTATEDRECTD103*
4,1,4,-0.01569,-0.00035,0.00035,0.01569,0.01569,0.00035,-0.00035,-0.01569,-0.01569,-0.00035,0.0*
%
%ADD103ROTATEDRECTD103*%

G04:AMPARAMS|DCode=104|XSize=29.72mil|YSize=28.35mil|CornerRadius=5.32mil|HoleSize=0mil|Usage=FLASHONLY|Rotation=320.000|XOffset=0mil|YOffset=0mil|HoleType=Round|Shape=RoundedRectangle|*
%AMROUNDEDRECTD104*
21,1,0.02972,0.01772,0,0,320.0*
21,1,0.01909,0.02835,0,0,320.0*
1,1,0.01063,0.00162,-0.01292*
1,1,0.01063,-0.01301,-0.00065*
1,1,0.01063,-0.00162,0.01292*
1,1,0.01063,0.01301,0.00065*
%
%ADD104ROUNDEDRECTD104*%
G04:AMPARAMS|DCode=105|XSize=75.83mil|YSize=56.14mil|CornerRadius=8.14mil|HoleSize=0mil|Usage=FLASHONLY|Rotation=180.000|XOffset=0mil|YOffset=0mil|HoleType=Round|Shape=RoundedRectangle|*
%AMROUNDEDRECTD105*
21,1,0.07583,0.03986,0,0,180.0*
21,1,0.05955,0.05614,0,0,180.0*
1,1,0.01628,-0.02977,0.01993*
1,1,0.01628,0.02977,0.01993*
1,1,0.01628,0.02977,-0.01993*
1,1,0.01628,-0.02977,-0.01993*
%
%ADD105ROUNDEDRECTD105*%
%ADD106R,0.10142X0.06992*%
G04:AMPARAMS|DCode=107|XSize=50.63mil|YSize=25.83mil|CornerRadius=4.35mil|HoleSize=0mil|Usage=FLASHONLY|Rotation=180.000|XOffset=0mil|YOffset=0mil|HoleType=Round|Shape=RoundedRectangle|*
%AMROUNDEDRECTD107*
21,1,0.05063,0.01713,0,0,180.0*
21,1,0.04193,0.02583,0,0,180.0*
1,1,0.00870,-0.02097,0.00856*
1,1,0.00870,0.02097,0.00856*
1,1,0.00870,0.02097,-0.00856*
1,1,0.00870,-0.02097,-0.00856*
%
%ADD107ROUNDEDRECTD107*%
G04:AMPARAMS|DCode=108|XSize=29.72mil|YSize=28.35mil|CornerRadius=5.32mil|HoleSize=0mil|Usage=FLASHONLY|Rotation=270.000|XOffset=0mil|YOffset=0mil|HoleType=Round|Shape=RoundedRectangle|*
%AMROUNDEDRECTD108*
21,1,0.02972,0.01772,0,0,270.0*
21,1,0.01909,0.02835,0,0,270.0*
1,1,0.01063,-0.00886,-0.00955*
1,1,0.01063,-0.00886,0.00955*
1,1,0.01063,0.00886,0.00955*
1,1,0.01063,0.00886,-0.00955*
%
%ADD108ROUNDEDRECTD108*%
G04:AMPARAMS|DCode=109|XSize=74.25mil|YSize=54.96mil|CornerRadius=7.99mil|HoleSize=0mil|Usage=FLASHONLY|Rotation=180.000|XOffset=0mil|YOffset=0mil|HoleType=Round|Shape=RoundedRectangle|*
%AMROUNDEDRECTD109*
21,1,0.07425,0.03898,0,0,180.0*
21,1,0.05827,0.05496,0,0,180.0*
1,1,0.01598,-0.02913,0.01949*
1,1,0.01598,0.02913,0.01949*
1,1,0.01598,0.02913,-0.01949*
1,1,0.01598,-0.02913,-0.01949*
%
%ADD109ROUNDEDRECTD109*%
%ADD110R,0.08173X0.08961*%
%ADD111R,0.08961X0.10811*%
%ADD112R,0.05299X0.03299*%
%ADD113R,0.03842X0.03055*%
G04:AMPARAMS|DCode=114|XSize=38.42mil|YSize=30.55mil|CornerRadius=4.94mil|HoleSize=0mil|Usage=FLASHONLY|Rotation=270.000|XOffset=0mil|YOffset=0mil|HoleType=Round|Shape=RoundedRectangle|*
%AMROUNDEDRECTD114*
21,1,0.03842,0.02067,0,0,270.0*
21,1,0.02854,0.03055,0,0,270.0*
1,1,0.00988,-0.01034,-0.01427*
1,1,0.00988,-0.01034,0.01427*
1,1,0.00988,0.01034,0.01427*
1,1,0.00988,0.01034,-0.01427*
%
%ADD114ROUNDEDRECTD114*%
%ADD115R,0.03055X0.03842*%
G04:AMPARAMS|DCode=116|XSize=38.42mil|YSize=30.55mil|CornerRadius=4.94mil|HoleSize=0mil|Usage=FLASHONLY|Rotation=0.000|XOffset=0mil|YOffset=0mil|HoleType=Round|Shape=RoundedRectangle|*
%AMROUNDEDRECTD116*
21,1,0.03842,0.02067,0,0,0.0*
21,1,0.02854,0.03055,0,0,0.0*
1,1,0.00988,0.01427,-0.01034*
1,1,0.00988,-0.01427,-0.01034*
1,1,0.00988,-0.01427,0.01034*
1,1,0.00988,0.01427,0.01034*
%
%ADD116ROUNDEDRECTD116*%
%ADD117R,0.08961X0.08173*%
G36*
X-29737Y37599D02*
X-33280Y33377D01*
X-37502Y36920D01*
X-35604Y39182D01*
X-31999Y39497D01*
X-29737Y37599D01*
D02*
G37*
G36*
X14479Y-33288D02*
X14489Y-33288D01*
X14499Y-33290D01*
X14509Y-33292D01*
X14519Y-33294D01*
X14529Y-33297D01*
X14539Y-33301D01*
X14549Y-33304D01*
X14558Y-33309D01*
X14567Y-33314D01*
X14576Y-33319D01*
X14584Y-33325D01*
X14592Y-33331D01*
X14600Y-33338D01*
X14608Y-33345D01*
X14615Y-33353D01*
X14622Y-33360D01*
X14628Y-33369D01*
X14634Y-33377D01*
X14639Y-33386D01*
X14644Y-33395D01*
X14648Y-33404D01*
X14652Y-33414D01*
X14656Y-33423D01*
X14659Y-33433D01*
X14661Y-33443D01*
X14663Y-33453D01*
X14664Y-33464D01*
X14665Y-33474D01*
X14665Y-33484D01*
Y-39744D01*
X14665Y-39754D01*
X14664Y-39765D01*
X14663Y-39775D01*
X14661Y-39785D01*
X14659Y-39795D01*
X14656Y-39805D01*
X14652Y-39815D01*
X14648Y-39824D01*
X14644Y-39833D01*
X14639Y-39843D01*
X14634Y-39851D01*
X14628Y-39860D01*
X14622Y-39868D01*
X14615Y-39876D01*
X14608Y-39883D01*
X14600Y-39890D01*
X14592Y-39897D01*
X14584Y-39903D01*
X14576Y-39909D01*
X14567Y-39915D01*
X14558Y-39919D01*
X14549Y-39924D01*
X14539Y-39928D01*
X14529Y-39931D01*
X14519Y-39934D01*
X14509Y-39937D01*
X14499Y-39939D01*
X14489Y-39940D01*
X14479Y-39941D01*
X14469Y-39941D01*
X11949D01*
X11938Y-39941D01*
X11928Y-39940D01*
X11918Y-39939D01*
X11908Y-39937D01*
X11898Y-39934D01*
X11888Y-39931D01*
X11878Y-39928D01*
X11869Y-39924D01*
X11859Y-39919D01*
X11850Y-39915D01*
X11842Y-39909D01*
X11833Y-39903D01*
X11825Y-39897D01*
X11817Y-39890D01*
X11810Y-39883D01*
X11802Y-39876D01*
X11796Y-39868D01*
X11789Y-39860D01*
X11784Y-39851D01*
X11778Y-39843D01*
X11773Y-39833D01*
X11769Y-39824D01*
X11765Y-39815D01*
X11762Y-39805D01*
X11759Y-39795D01*
X11756Y-39785D01*
X11754Y-39775D01*
X11753Y-39765D01*
X11752Y-39754D01*
X11752Y-39744D01*
Y-33484D01*
X11752Y-33474D01*
X11753Y-33464D01*
X11754Y-33453D01*
X11756Y-33443D01*
X11759Y-33433D01*
X11762Y-33423D01*
X11765Y-33414D01*
X11769Y-33404D01*
X11773Y-33395D01*
X11778Y-33386D01*
X11784Y-33377D01*
X11789Y-33369D01*
X11796Y-33360D01*
X11802Y-33353D01*
X11810Y-33345D01*
X11817Y-33338D01*
X11825Y-33331D01*
X11833Y-33325D01*
X11842Y-33319D01*
X11850Y-33314D01*
X11859Y-33309D01*
X11869Y-33304D01*
X11878Y-33301D01*
X11888Y-33297D01*
X11898Y-33294D01*
X11908Y-33292D01*
X11918Y-33290D01*
X11928Y-33288D01*
X11938Y-33288D01*
X11949Y-33287D01*
X14469D01*
X14479Y-33288D01*
D02*
G37*
G36*
X9479D02*
X9489Y-33288D01*
X9499Y-33290D01*
X9509Y-33292D01*
X9519Y-33294D01*
X9529Y-33297D01*
X9539Y-33301D01*
X9549Y-33304D01*
X9558Y-33309D01*
X9567Y-33314D01*
X9576Y-33319D01*
X9584Y-33325D01*
X9592Y-33331D01*
X9600Y-33338D01*
X9608Y-33345D01*
X9615Y-33353D01*
X9622Y-33360D01*
X9628Y-33369D01*
X9634Y-33377D01*
X9639Y-33386D01*
X9644Y-33395D01*
X9648Y-33404D01*
X9652Y-33414D01*
X9656Y-33423D01*
X9659Y-33433D01*
X9661Y-33443D01*
X9663Y-33453D01*
X9664Y-33464D01*
X9665Y-33474D01*
X9665Y-33484D01*
Y-39744D01*
X9665Y-39754D01*
X9664Y-39765D01*
X9663Y-39775D01*
X9661Y-39785D01*
X9659Y-39795D01*
X9656Y-39805D01*
X9652Y-39815D01*
X9648Y-39824D01*
X9644Y-39833D01*
X9639Y-39843D01*
X9634Y-39851D01*
X9628Y-39860D01*
X9622Y-39868D01*
X9615Y-39876D01*
X9608Y-39883D01*
X9600Y-39890D01*
X9592Y-39897D01*
X9584Y-39903D01*
X9576Y-39909D01*
X9567Y-39915D01*
X9558Y-39919D01*
X9549Y-39924D01*
X9539Y-39928D01*
X9529Y-39931D01*
X9519Y-39934D01*
X9509Y-39937D01*
X9499Y-39939D01*
X9489Y-39940D01*
X9479Y-39941D01*
X9469Y-39941D01*
X6949D01*
X6938Y-39941D01*
X6928Y-39940D01*
X6918Y-39939D01*
X6908Y-39937D01*
X6898Y-39934D01*
X6888Y-39931D01*
X6878Y-39928D01*
X6869Y-39924D01*
X6859Y-39919D01*
X6850Y-39915D01*
X6842Y-39909D01*
X6833Y-39903D01*
X6825Y-39897D01*
X6817Y-39890D01*
X6810Y-39883D01*
X6803Y-39876D01*
X6796Y-39868D01*
X6790Y-39860D01*
X6784Y-39851D01*
X6778Y-39843D01*
X6773Y-39833D01*
X6769Y-39824D01*
X6765Y-39815D01*
X6762Y-39805D01*
X6759Y-39795D01*
X6756Y-39785D01*
X6754Y-39775D01*
X6753Y-39765D01*
X6752Y-39754D01*
X6752Y-39744D01*
Y-33484D01*
X6752Y-33474D01*
X6753Y-33464D01*
X6754Y-33453D01*
X6756Y-33443D01*
X6759Y-33433D01*
X6762Y-33423D01*
X6765Y-33414D01*
X6769Y-33404D01*
X6773Y-33395D01*
X6778Y-33386D01*
X6784Y-33377D01*
X6790Y-33369D01*
X6796Y-33360D01*
X6803Y-33353D01*
X6810Y-33345D01*
X6817Y-33338D01*
X6825Y-33331D01*
X6833Y-33325D01*
X6842Y-33319D01*
X6850Y-33314D01*
X6859Y-33309D01*
X6869Y-33304D01*
X6878Y-33301D01*
X6888Y-33297D01*
X6898Y-33294D01*
X6908Y-33292D01*
X6918Y-33290D01*
X6928Y-33288D01*
X6938Y-33288D01*
X6949Y-33287D01*
X9469D01*
X9479Y-33288D01*
D02*
G37*
G36*
X4479D02*
X4489Y-33288D01*
X4499Y-33290D01*
X4509Y-33292D01*
X4519Y-33294D01*
X4529Y-33297D01*
X4539Y-33301D01*
X4549Y-33304D01*
X4558Y-33309D01*
X4567Y-33314D01*
X4576Y-33319D01*
X4584Y-33325D01*
X4592Y-33331D01*
X4600Y-33338D01*
X4608Y-33345D01*
X4615Y-33353D01*
X4622Y-33360D01*
X4628Y-33369D01*
X4634Y-33377D01*
X4639Y-33386D01*
X4644Y-33395D01*
X4648Y-33404D01*
X4652Y-33414D01*
X4656Y-33423D01*
X4659Y-33433D01*
X4661Y-33443D01*
X4663Y-33453D01*
X4664Y-33464D01*
X4665Y-33474D01*
X4665Y-33484D01*
Y-39744D01*
X4665Y-39754D01*
X4664Y-39765D01*
X4663Y-39775D01*
X4661Y-39785D01*
X4659Y-39795D01*
X4656Y-39805D01*
X4652Y-39815D01*
X4648Y-39824D01*
X4644Y-39833D01*
X4639Y-39843D01*
X4634Y-39851D01*
X4628Y-39860D01*
X4622Y-39868D01*
X4615Y-39876D01*
X4608Y-39883D01*
X4600Y-39890D01*
X4592Y-39897D01*
X4584Y-39903D01*
X4576Y-39909D01*
X4567Y-39915D01*
X4558Y-39919D01*
X4549Y-39924D01*
X4539Y-39928D01*
X4529Y-39931D01*
X4519Y-39934D01*
X4509Y-39937D01*
X4499Y-39939D01*
X4489Y-39940D01*
X4479Y-39941D01*
X4468Y-39941D01*
X1949D01*
X1939Y-39941D01*
X1928Y-39940D01*
X1918Y-39939D01*
X1908Y-39937D01*
X1898Y-39934D01*
X1888Y-39931D01*
X1878Y-39928D01*
X1869Y-39924D01*
X1859Y-39919D01*
X1850Y-39915D01*
X1842Y-39909D01*
X1833Y-39903D01*
X1825Y-39897D01*
X1817Y-39890D01*
X1810Y-39883D01*
X1802Y-39876D01*
X1796Y-39868D01*
X1790Y-39860D01*
X1784Y-39851D01*
X1778Y-39843D01*
X1773Y-39833D01*
X1769Y-39824D01*
X1765Y-39815D01*
X1762Y-39805D01*
X1759Y-39795D01*
X1756Y-39785D01*
X1754Y-39775D01*
X1753Y-39765D01*
X1752Y-39754D01*
X1752Y-39744D01*
Y-33484D01*
X1752Y-33474D01*
X1753Y-33464D01*
X1754Y-33453D01*
X1756Y-33443D01*
X1759Y-33433D01*
X1762Y-33423D01*
X1765Y-33414D01*
X1769Y-33404D01*
X1773Y-33395D01*
X1778Y-33386D01*
X1784Y-33377D01*
X1790Y-33369D01*
X1796Y-33360D01*
X1802Y-33353D01*
X1810Y-33345D01*
X1817Y-33338D01*
X1825Y-33331D01*
X1833Y-33325D01*
X1842Y-33319D01*
X1850Y-33314D01*
X1859Y-33309D01*
X1869Y-33304D01*
X1878Y-33301D01*
X1888Y-33297D01*
X1898Y-33294D01*
X1908Y-33292D01*
X1918Y-33290D01*
X1928Y-33288D01*
X1939Y-33288D01*
X1949Y-33287D01*
X4468D01*
X4479Y-33288D01*
D02*
G37*
G36*
X-521D02*
X-511Y-33288D01*
X-501Y-33290D01*
X-491Y-33292D01*
X-481Y-33294D01*
X-471Y-33297D01*
X-461Y-33301D01*
X-451Y-33304D01*
X-442Y-33309D01*
X-433Y-33314D01*
X-424Y-33319D01*
X-416Y-33325D01*
X-408Y-33331D01*
X-400Y-33338D01*
X-392Y-33345D01*
X-385Y-33353D01*
X-378Y-33360D01*
X-372Y-33369D01*
X-366Y-33377D01*
X-361Y-33386D01*
X-356Y-33395D01*
X-352Y-33404D01*
X-348Y-33414D01*
X-344Y-33423D01*
X-341Y-33433D01*
X-339Y-33443D01*
X-337Y-33453D01*
X-336Y-33464D01*
X-335Y-33474D01*
X-335Y-33484D01*
Y-39744D01*
X-335Y-39754D01*
X-336Y-39765D01*
X-337Y-39775D01*
X-339Y-39785D01*
X-341Y-39795D01*
X-344Y-39805D01*
X-348Y-39815D01*
X-352Y-39824D01*
X-356Y-39833D01*
X-361Y-39843D01*
X-366Y-39851D01*
X-372Y-39860D01*
X-378Y-39868D01*
X-385Y-39876D01*
X-392Y-39883D01*
X-400Y-39890D01*
X-408Y-39897D01*
X-416Y-39903D01*
X-424Y-39909D01*
X-433Y-39915D01*
X-442Y-39919D01*
X-451Y-39924D01*
X-461Y-39928D01*
X-471Y-39931D01*
X-481Y-39934D01*
X-491Y-39937D01*
X-501Y-39939D01*
X-511Y-39940D01*
X-521Y-39941D01*
X-532Y-39941D01*
X-3051D01*
X-3062Y-39941D01*
X-3072Y-39940D01*
X-3082Y-39939D01*
X-3092Y-39937D01*
X-3102Y-39934D01*
X-3112Y-39931D01*
X-3122Y-39928D01*
X-3131Y-39924D01*
X-3141Y-39919D01*
X-3150Y-39915D01*
X-3158Y-39909D01*
X-3167Y-39903D01*
X-3175Y-39897D01*
X-3183Y-39890D01*
X-3190Y-39883D01*
X-3198Y-39876D01*
X-3204Y-39868D01*
X-3210Y-39860D01*
X-3216Y-39851D01*
X-3222Y-39843D01*
X-3227Y-39833D01*
X-3231Y-39824D01*
X-3235Y-39815D01*
X-3238Y-39805D01*
X-3241Y-39795D01*
X-3244Y-39785D01*
X-3246Y-39775D01*
X-3247Y-39765D01*
X-3248Y-39754D01*
X-3248Y-39744D01*
Y-33484D01*
X-3248Y-33474D01*
X-3247Y-33464D01*
X-3246Y-33453D01*
X-3244Y-33443D01*
X-3241Y-33433D01*
X-3238Y-33423D01*
X-3235Y-33414D01*
X-3231Y-33404D01*
X-3227Y-33395D01*
X-3222Y-33386D01*
X-3216Y-33377D01*
X-3210Y-33369D01*
X-3204Y-33360D01*
X-3198Y-33353D01*
X-3190Y-33345D01*
X-3183Y-33338D01*
X-3175Y-33331D01*
X-3167Y-33325D01*
X-3158Y-33319D01*
X-3150Y-33314D01*
X-3141Y-33309D01*
X-3131Y-33304D01*
X-3122Y-33301D01*
X-3112Y-33297D01*
X-3102Y-33294D01*
X-3092Y-33292D01*
X-3082Y-33290D01*
X-3072Y-33288D01*
X-3062Y-33288D01*
X-3051Y-33287D01*
X-532D01*
X-521Y-33288D01*
D02*
G37*
G36*
X57983Y-34863D02*
X57993Y-34863D01*
X58003Y-34865D01*
X58013Y-34866D01*
X58023Y-34869D01*
X58033Y-34872D01*
X58043Y-34875D01*
X58052Y-34879D01*
X58062Y-34884D01*
X58071Y-34889D01*
X58080Y-34894D01*
X58088Y-34900D01*
X58096Y-34906D01*
X58104Y-34913D01*
X58112Y-34920D01*
X58119Y-34927D01*
X58125Y-34935D01*
X58132Y-34943D01*
X58138Y-34952D01*
X58143Y-34961D01*
X58148Y-34970D01*
X58152Y-34979D01*
X58156Y-34988D01*
X58160Y-34998D01*
X58163Y-35008D01*
X58165Y-35018D01*
X58167Y-35028D01*
X58168Y-35039D01*
X58169Y-35049D01*
X58169Y-35059D01*
Y-41319D01*
X58169Y-41329D01*
X58168Y-41339D01*
X58167Y-41350D01*
X58165Y-41360D01*
X58163Y-41370D01*
X58160Y-41380D01*
X58156Y-41389D01*
X58152Y-41399D01*
X58148Y-41408D01*
X58143Y-41417D01*
X58138Y-41426D01*
X58132Y-41435D01*
X58125Y-41443D01*
X58119Y-41451D01*
X58112Y-41458D01*
X58104Y-41465D01*
X58096Y-41472D01*
X58088Y-41478D01*
X58080Y-41484D01*
X58071Y-41489D01*
X58062Y-41494D01*
X58052Y-41499D01*
X58043Y-41503D01*
X58033Y-41506D01*
X58023Y-41509D01*
X58013Y-41511D01*
X58003Y-41513D01*
X57993Y-41515D01*
X57983Y-41515D01*
X57973Y-41516D01*
X55453D01*
X55443Y-41515D01*
X55432Y-41515D01*
X55422Y-41513D01*
X55412Y-41511D01*
X55402Y-41509D01*
X55392Y-41506D01*
X55382Y-41503D01*
X55373Y-41499D01*
X55363Y-41494D01*
X55354Y-41489D01*
X55346Y-41484D01*
X55337Y-41478D01*
X55329Y-41472D01*
X55321Y-41465D01*
X55314Y-41458D01*
X55307Y-41451D01*
X55300Y-41443D01*
X55294Y-41435D01*
X55288Y-41426D01*
X55282Y-41417D01*
X55277Y-41408D01*
X55273Y-41399D01*
X55269Y-41389D01*
X55265Y-41380D01*
X55263Y-41370D01*
X55260Y-41360D01*
X55258Y-41350D01*
X55257Y-41339D01*
X55256Y-41329D01*
X55256Y-41319D01*
Y-35059D01*
X55256Y-35049D01*
X55257Y-35039D01*
X55258Y-35028D01*
X55260Y-35018D01*
X55263Y-35008D01*
X55265Y-34998D01*
X55269Y-34988D01*
X55273Y-34979D01*
X55277Y-34970D01*
X55282Y-34961D01*
X55288Y-34952D01*
X55294Y-34943D01*
X55300Y-34935D01*
X55307Y-34927D01*
X55314Y-34920D01*
X55321Y-34913D01*
X55329Y-34906D01*
X55337Y-34900D01*
X55346Y-34894D01*
X55354Y-34889D01*
X55363Y-34884D01*
X55373Y-34879D01*
X55382Y-34875D01*
X55392Y-34872D01*
X55402Y-34869D01*
X55412Y-34866D01*
X55422Y-34865D01*
X55432Y-34863D01*
X55443Y-34863D01*
X55453Y-34862D01*
X57973D01*
X57983Y-34863D01*
D02*
G37*
G36*
X52983D02*
X52993Y-34863D01*
X53003Y-34865D01*
X53013Y-34866D01*
X53023Y-34869D01*
X53033Y-34872D01*
X53043Y-34875D01*
X53053Y-34879D01*
X53062Y-34884D01*
X53071Y-34889D01*
X53080Y-34894D01*
X53088Y-34900D01*
X53096Y-34906D01*
X53104Y-34913D01*
X53112Y-34920D01*
X53119Y-34927D01*
X53125Y-34935D01*
X53132Y-34943D01*
X53137Y-34952D01*
X53143Y-34961D01*
X53148Y-34970D01*
X53152Y-34979D01*
X53156Y-34988D01*
X53160Y-34998D01*
X53163Y-35008D01*
X53165Y-35018D01*
X53167Y-35028D01*
X53168Y-35039D01*
X53169Y-35049D01*
X53169Y-35059D01*
Y-41319D01*
X53169Y-41329D01*
X53168Y-41339D01*
X53167Y-41350D01*
X53165Y-41360D01*
X53163Y-41370D01*
X53160Y-41380D01*
X53156Y-41389D01*
X53152Y-41399D01*
X53148Y-41408D01*
X53143Y-41417D01*
X53137Y-41426D01*
X53132Y-41435D01*
X53125Y-41443D01*
X53119Y-41451D01*
X53112Y-41458D01*
X53104Y-41465D01*
X53096Y-41472D01*
X53088Y-41478D01*
X53080Y-41484D01*
X53071Y-41489D01*
X53062Y-41494D01*
X53053Y-41499D01*
X53043Y-41503D01*
X53033Y-41506D01*
X53023Y-41509D01*
X53013Y-41511D01*
X53003Y-41513D01*
X52993Y-41515D01*
X52983Y-41515D01*
X52973Y-41516D01*
X50453D01*
X50442Y-41515D01*
X50432Y-41515D01*
X50422Y-41513D01*
X50412Y-41511D01*
X50402Y-41509D01*
X50392Y-41506D01*
X50382Y-41503D01*
X50373Y-41499D01*
X50363Y-41494D01*
X50354Y-41489D01*
X50346Y-41484D01*
X50337Y-41478D01*
X50329Y-41472D01*
X50321Y-41465D01*
X50314Y-41458D01*
X50306Y-41451D01*
X50300Y-41443D01*
X50293Y-41435D01*
X50288Y-41426D01*
X50282Y-41417D01*
X50277Y-41408D01*
X50273Y-41399D01*
X50269Y-41389D01*
X50266Y-41380D01*
X50263Y-41370D01*
X50260Y-41360D01*
X50258Y-41350D01*
X50257Y-41339D01*
X50256Y-41329D01*
X50256Y-41319D01*
Y-35059D01*
X50256Y-35049D01*
X50257Y-35039D01*
X50258Y-35028D01*
X50260Y-35018D01*
X50263Y-35008D01*
X50266Y-34998D01*
X50269Y-34988D01*
X50273Y-34979D01*
X50277Y-34970D01*
X50282Y-34961D01*
X50288Y-34952D01*
X50293Y-34943D01*
X50300Y-34935D01*
X50306Y-34927D01*
X50314Y-34920D01*
X50321Y-34913D01*
X50329Y-34906D01*
X50337Y-34900D01*
X50346Y-34894D01*
X50354Y-34889D01*
X50363Y-34884D01*
X50373Y-34879D01*
X50382Y-34875D01*
X50392Y-34872D01*
X50402Y-34869D01*
X50412Y-34866D01*
X50422Y-34865D01*
X50432Y-34863D01*
X50442Y-34863D01*
X50453Y-34862D01*
X52973D01*
X52983Y-34863D01*
D02*
G37*
G36*
X47983D02*
X47993Y-34863D01*
X48003Y-34865D01*
X48013Y-34866D01*
X48023Y-34869D01*
X48033Y-34872D01*
X48043Y-34875D01*
X48052Y-34879D01*
X48062Y-34884D01*
X48071Y-34889D01*
X48080Y-34894D01*
X48088Y-34900D01*
X48096Y-34906D01*
X48104Y-34913D01*
X48112Y-34920D01*
X48119Y-34927D01*
X48125Y-34935D01*
X48132Y-34943D01*
X48138Y-34952D01*
X48143Y-34961D01*
X48148Y-34970D01*
X48152Y-34979D01*
X48156Y-34988D01*
X48160Y-34998D01*
X48163Y-35008D01*
X48165Y-35018D01*
X48167Y-35028D01*
X48168Y-35039D01*
X48169Y-35049D01*
X48169Y-35059D01*
Y-41319D01*
X48169Y-41329D01*
X48168Y-41339D01*
X48167Y-41350D01*
X48165Y-41360D01*
X48163Y-41370D01*
X48160Y-41380D01*
X48156Y-41389D01*
X48152Y-41399D01*
X48148Y-41408D01*
X48143Y-41417D01*
X48138Y-41426D01*
X48132Y-41435D01*
X48125Y-41443D01*
X48119Y-41451D01*
X48112Y-41458D01*
X48104Y-41465D01*
X48096Y-41472D01*
X48088Y-41478D01*
X48080Y-41484D01*
X48071Y-41489D01*
X48062Y-41494D01*
X48052Y-41499D01*
X48043Y-41503D01*
X48033Y-41506D01*
X48023Y-41509D01*
X48013Y-41511D01*
X48003Y-41513D01*
X47993Y-41515D01*
X47983Y-41515D01*
X47972Y-41516D01*
X45453D01*
X45443Y-41515D01*
X45432Y-41515D01*
X45422Y-41513D01*
X45412Y-41511D01*
X45402Y-41509D01*
X45392Y-41506D01*
X45382Y-41503D01*
X45373Y-41499D01*
X45363Y-41494D01*
X45354Y-41489D01*
X45346Y-41484D01*
X45337Y-41478D01*
X45329Y-41472D01*
X45321Y-41465D01*
X45314Y-41458D01*
X45307Y-41451D01*
X45300Y-41443D01*
X45294Y-41435D01*
X45288Y-41426D01*
X45282Y-41417D01*
X45277Y-41408D01*
X45273Y-41399D01*
X45269Y-41389D01*
X45266Y-41380D01*
X45263Y-41370D01*
X45260Y-41360D01*
X45258Y-41350D01*
X45257Y-41339D01*
X45256Y-41329D01*
X45256Y-41319D01*
Y-35059D01*
X45256Y-35049D01*
X45257Y-35039D01*
X45258Y-35028D01*
X45260Y-35018D01*
X45263Y-35008D01*
X45266Y-34998D01*
X45269Y-34988D01*
X45273Y-34979D01*
X45277Y-34970D01*
X45282Y-34961D01*
X45288Y-34952D01*
X45294Y-34943D01*
X45300Y-34935D01*
X45307Y-34927D01*
X45314Y-34920D01*
X45321Y-34913D01*
X45329Y-34906D01*
X45337Y-34900D01*
X45346Y-34894D01*
X45354Y-34889D01*
X45363Y-34884D01*
X45373Y-34879D01*
X45382Y-34875D01*
X45392Y-34872D01*
X45402Y-34869D01*
X45412Y-34866D01*
X45422Y-34865D01*
X45432Y-34863D01*
X45443Y-34863D01*
X45453Y-34862D01*
X47972D01*
X47983Y-34863D01*
D02*
G37*
G36*
X42983D02*
X42993Y-34863D01*
X43003Y-34865D01*
X43013Y-34866D01*
X43023Y-34869D01*
X43033Y-34872D01*
X43043Y-34875D01*
X43053Y-34879D01*
X43062Y-34884D01*
X43071Y-34889D01*
X43080Y-34894D01*
X43088Y-34900D01*
X43096Y-34906D01*
X43104Y-34913D01*
X43112Y-34920D01*
X43119Y-34927D01*
X43125Y-34935D01*
X43132Y-34943D01*
X43137Y-34952D01*
X43143Y-34961D01*
X43148Y-34970D01*
X43152Y-34979D01*
X43156Y-34988D01*
X43160Y-34998D01*
X43163Y-35008D01*
X43165Y-35018D01*
X43167Y-35028D01*
X43168Y-35039D01*
X43169Y-35049D01*
X43169Y-35059D01*
Y-41319D01*
X43169Y-41329D01*
X43168Y-41339D01*
X43167Y-41350D01*
X43165Y-41360D01*
X43163Y-41370D01*
X43160Y-41380D01*
X43156Y-41389D01*
X43152Y-41399D01*
X43148Y-41408D01*
X43143Y-41417D01*
X43137Y-41426D01*
X43132Y-41435D01*
X43125Y-41443D01*
X43119Y-41451D01*
X43112Y-41458D01*
X43104Y-41465D01*
X43096Y-41472D01*
X43088Y-41478D01*
X43080Y-41484D01*
X43071Y-41489D01*
X43062Y-41494D01*
X43053Y-41499D01*
X43043Y-41503D01*
X43033Y-41506D01*
X43023Y-41509D01*
X43013Y-41511D01*
X43003Y-41513D01*
X42993Y-41515D01*
X42983Y-41515D01*
X42972Y-41516D01*
X40453D01*
X40442Y-41515D01*
X40432Y-41515D01*
X40422Y-41513D01*
X40412Y-41511D01*
X40402Y-41509D01*
X40392Y-41506D01*
X40382Y-41503D01*
X40373Y-41499D01*
X40363Y-41494D01*
X40354Y-41489D01*
X40346Y-41484D01*
X40337Y-41478D01*
X40329Y-41472D01*
X40321Y-41465D01*
X40314Y-41458D01*
X40306Y-41451D01*
X40300Y-41443D01*
X40293Y-41435D01*
X40288Y-41426D01*
X40282Y-41417D01*
X40277Y-41408D01*
X40273Y-41399D01*
X40269Y-41389D01*
X40266Y-41380D01*
X40263Y-41370D01*
X40260Y-41360D01*
X40258Y-41350D01*
X40257Y-41339D01*
X40256Y-41329D01*
X40256Y-41319D01*
Y-35059D01*
X40256Y-35049D01*
X40257Y-35039D01*
X40258Y-35028D01*
X40260Y-35018D01*
X40263Y-35008D01*
X40266Y-34998D01*
X40269Y-34988D01*
X40273Y-34979D01*
X40277Y-34970D01*
X40282Y-34961D01*
X40288Y-34952D01*
X40293Y-34943D01*
X40300Y-34935D01*
X40306Y-34927D01*
X40314Y-34920D01*
X40321Y-34913D01*
X40329Y-34906D01*
X40337Y-34900D01*
X40346Y-34894D01*
X40354Y-34889D01*
X40363Y-34884D01*
X40373Y-34879D01*
X40382Y-34875D01*
X40392Y-34872D01*
X40402Y-34869D01*
X40412Y-34866D01*
X40422Y-34865D01*
X40432Y-34863D01*
X40442Y-34863D01*
X40453Y-34862D01*
X42972D01*
X42983Y-34863D01*
D02*
G37*
G36*
X12402Y-52579D02*
X-984D01*
Y-41909D01*
X12402D01*
Y-52579D01*
D02*
G37*
G36*
X55905Y-54154D02*
X42520D01*
Y-43484D01*
X55905D01*
Y-54154D01*
D02*
G37*
G36*
X14479Y-54548D02*
X14489Y-54548D01*
X14499Y-54550D01*
X14509Y-54552D01*
X14519Y-54554D01*
X14529Y-54557D01*
X14539Y-54560D01*
X14549Y-54564D01*
X14558Y-54569D01*
X14567Y-54574D01*
X14576Y-54579D01*
X14584Y-54585D01*
X14592Y-54591D01*
X14600Y-54598D01*
X14608Y-54605D01*
X14615Y-54612D01*
X14622Y-54620D01*
X14628Y-54628D01*
X14634Y-54637D01*
X14639Y-54646D01*
X14644Y-54655D01*
X14648Y-54664D01*
X14652Y-54673D01*
X14656Y-54683D01*
X14659Y-54693D01*
X14661Y-54703D01*
X14663Y-54713D01*
X14664Y-54724D01*
X14665Y-54734D01*
X14665Y-54744D01*
Y-61004D01*
X14665Y-61014D01*
X14664Y-61024D01*
X14663Y-61035D01*
X14661Y-61045D01*
X14659Y-61055D01*
X14656Y-61065D01*
X14652Y-61075D01*
X14648Y-61084D01*
X14644Y-61093D01*
X14639Y-61102D01*
X14634Y-61111D01*
X14628Y-61120D01*
X14622Y-61128D01*
X14615Y-61136D01*
X14608Y-61143D01*
X14600Y-61150D01*
X14592Y-61157D01*
X14584Y-61163D01*
X14576Y-61169D01*
X14567Y-61174D01*
X14558Y-61179D01*
X14549Y-61184D01*
X14539Y-61188D01*
X14529Y-61191D01*
X14519Y-61194D01*
X14509Y-61197D01*
X14499Y-61198D01*
X14489Y-61200D01*
X14479Y-61200D01*
X14469Y-61201D01*
X11949D01*
X11938Y-61200D01*
X11928Y-61200D01*
X11918Y-61198D01*
X11908Y-61197D01*
X11898Y-61194D01*
X11888Y-61191D01*
X11878Y-61188D01*
X11869Y-61184D01*
X11859Y-61179D01*
X11850Y-61174D01*
X11842Y-61169D01*
X11833Y-61163D01*
X11825Y-61157D01*
X11817Y-61150D01*
X11810Y-61143D01*
X11802Y-61136D01*
X11796Y-61128D01*
X11789Y-61120D01*
X11784Y-61111D01*
X11778Y-61102D01*
X11773Y-61093D01*
X11769Y-61084D01*
X11765Y-61075D01*
X11762Y-61065D01*
X11759Y-61055D01*
X11756Y-61045D01*
X11754Y-61035D01*
X11753Y-61024D01*
X11752Y-61014D01*
X11752Y-61004D01*
Y-54744D01*
X11752Y-54734D01*
X11753Y-54724D01*
X11754Y-54713D01*
X11756Y-54703D01*
X11759Y-54693D01*
X11762Y-54683D01*
X11765Y-54673D01*
X11769Y-54664D01*
X11773Y-54655D01*
X11778Y-54646D01*
X11784Y-54637D01*
X11789Y-54628D01*
X11796Y-54620D01*
X11802Y-54612D01*
X11810Y-54605D01*
X11817Y-54598D01*
X11825Y-54591D01*
X11833Y-54585D01*
X11842Y-54579D01*
X11850Y-54574D01*
X11859Y-54569D01*
X11869Y-54564D01*
X11878Y-54560D01*
X11888Y-54557D01*
X11898Y-54554D01*
X11908Y-54552D01*
X11918Y-54550D01*
X11928Y-54548D01*
X11938Y-54548D01*
X11949Y-54547D01*
X14469D01*
X14479Y-54548D01*
D02*
G37*
G36*
X9479D02*
X9489Y-54548D01*
X9499Y-54550D01*
X9509Y-54552D01*
X9519Y-54554D01*
X9529Y-54557D01*
X9539Y-54560D01*
X9549Y-54564D01*
X9558Y-54569D01*
X9567Y-54574D01*
X9576Y-54579D01*
X9584Y-54585D01*
X9592Y-54591D01*
X9600Y-54598D01*
X9608Y-54605D01*
X9615Y-54612D01*
X9622Y-54620D01*
X9628Y-54628D01*
X9634Y-54637D01*
X9639Y-54646D01*
X9644Y-54655D01*
X9648Y-54664D01*
X9652Y-54673D01*
X9656Y-54683D01*
X9659Y-54693D01*
X9661Y-54703D01*
X9663Y-54713D01*
X9664Y-54724D01*
X9665Y-54734D01*
X9665Y-54744D01*
Y-61004D01*
X9665Y-61014D01*
X9664Y-61024D01*
X9663Y-61035D01*
X9661Y-61045D01*
X9659Y-61055D01*
X9656Y-61065D01*
X9652Y-61075D01*
X9648Y-61084D01*
X9644Y-61093D01*
X9639Y-61102D01*
X9634Y-61111D01*
X9628Y-61120D01*
X9622Y-61128D01*
X9615Y-61136D01*
X9608Y-61143D01*
X9600Y-61150D01*
X9592Y-61157D01*
X9584Y-61163D01*
X9576Y-61169D01*
X9567Y-61174D01*
X9558Y-61179D01*
X9549Y-61184D01*
X9539Y-61188D01*
X9529Y-61191D01*
X9519Y-61194D01*
X9509Y-61197D01*
X9499Y-61198D01*
X9489Y-61200D01*
X9479Y-61200D01*
X9469Y-61201D01*
X6949D01*
X6938Y-61200D01*
X6928Y-61200D01*
X6918Y-61198D01*
X6908Y-61197D01*
X6898Y-61194D01*
X6888Y-61191D01*
X6878Y-61188D01*
X6869Y-61184D01*
X6859Y-61179D01*
X6850Y-61174D01*
X6842Y-61169D01*
X6833Y-61163D01*
X6825Y-61157D01*
X6817Y-61150D01*
X6810Y-61143D01*
X6803Y-61136D01*
X6796Y-61128D01*
X6790Y-61120D01*
X6784Y-61111D01*
X6778Y-61102D01*
X6773Y-61093D01*
X6769Y-61084D01*
X6765Y-61075D01*
X6762Y-61065D01*
X6759Y-61055D01*
X6756Y-61045D01*
X6754Y-61035D01*
X6753Y-61024D01*
X6752Y-61014D01*
X6752Y-61004D01*
Y-54744D01*
X6752Y-54734D01*
X6753Y-54724D01*
X6754Y-54713D01*
X6756Y-54703D01*
X6759Y-54693D01*
X6762Y-54683D01*
X6765Y-54673D01*
X6769Y-54664D01*
X6773Y-54655D01*
X6778Y-54646D01*
X6784Y-54637D01*
X6790Y-54628D01*
X6796Y-54620D01*
X6803Y-54612D01*
X6810Y-54605D01*
X6817Y-54598D01*
X6825Y-54591D01*
X6833Y-54585D01*
X6842Y-54579D01*
X6850Y-54574D01*
X6859Y-54569D01*
X6869Y-54564D01*
X6878Y-54560D01*
X6888Y-54557D01*
X6898Y-54554D01*
X6908Y-54552D01*
X6918Y-54550D01*
X6928Y-54548D01*
X6938Y-54548D01*
X6949Y-54547D01*
X9469D01*
X9479Y-54548D01*
D02*
G37*
G36*
X4479D02*
X4489Y-54548D01*
X4499Y-54550D01*
X4509Y-54552D01*
X4519Y-54554D01*
X4529Y-54557D01*
X4539Y-54560D01*
X4549Y-54564D01*
X4558Y-54569D01*
X4567Y-54574D01*
X4576Y-54579D01*
X4584Y-54585D01*
X4592Y-54591D01*
X4600Y-54598D01*
X4608Y-54605D01*
X4615Y-54612D01*
X4622Y-54620D01*
X4628Y-54628D01*
X4634Y-54637D01*
X4639Y-54646D01*
X4644Y-54655D01*
X4648Y-54664D01*
X4652Y-54673D01*
X4656Y-54683D01*
X4659Y-54693D01*
X4661Y-54703D01*
X4663Y-54713D01*
X4664Y-54724D01*
X4665Y-54734D01*
X4665Y-54744D01*
Y-61004D01*
X4665Y-61014D01*
X4664Y-61024D01*
X4663Y-61035D01*
X4661Y-61045D01*
X4659Y-61055D01*
X4656Y-61065D01*
X4652Y-61075D01*
X4648Y-61084D01*
X4644Y-61093D01*
X4639Y-61102D01*
X4634Y-61111D01*
X4628Y-61120D01*
X4622Y-61128D01*
X4615Y-61136D01*
X4608Y-61143D01*
X4600Y-61150D01*
X4592Y-61157D01*
X4584Y-61163D01*
X4576Y-61169D01*
X4567Y-61174D01*
X4558Y-61179D01*
X4549Y-61184D01*
X4539Y-61188D01*
X4529Y-61191D01*
X4519Y-61194D01*
X4509Y-61197D01*
X4499Y-61198D01*
X4489Y-61200D01*
X4479Y-61200D01*
X4468Y-61201D01*
X1949D01*
X1939Y-61200D01*
X1928Y-61200D01*
X1918Y-61198D01*
X1908Y-61197D01*
X1898Y-61194D01*
X1888Y-61191D01*
X1878Y-61188D01*
X1869Y-61184D01*
X1859Y-61179D01*
X1850Y-61174D01*
X1842Y-61169D01*
X1833Y-61163D01*
X1825Y-61157D01*
X1817Y-61150D01*
X1810Y-61143D01*
X1802Y-61136D01*
X1796Y-61128D01*
X1790Y-61120D01*
X1784Y-61111D01*
X1778Y-61102D01*
X1773Y-61093D01*
X1769Y-61084D01*
X1765Y-61075D01*
X1762Y-61065D01*
X1759Y-61055D01*
X1756Y-61045D01*
X1754Y-61035D01*
X1753Y-61024D01*
X1752Y-61014D01*
X1752Y-61004D01*
Y-54744D01*
X1752Y-54734D01*
X1753Y-54724D01*
X1754Y-54713D01*
X1756Y-54703D01*
X1759Y-54693D01*
X1762Y-54683D01*
X1765Y-54673D01*
X1769Y-54664D01*
X1773Y-54655D01*
X1778Y-54646D01*
X1784Y-54637D01*
X1790Y-54628D01*
X1796Y-54620D01*
X1802Y-54612D01*
X1810Y-54605D01*
X1817Y-54598D01*
X1825Y-54591D01*
X1833Y-54585D01*
X1842Y-54579D01*
X1850Y-54574D01*
X1859Y-54569D01*
X1869Y-54564D01*
X1878Y-54560D01*
X1888Y-54557D01*
X1898Y-54554D01*
X1908Y-54552D01*
X1918Y-54550D01*
X1928Y-54548D01*
X1939Y-54548D01*
X1949Y-54547D01*
X4468D01*
X4479Y-54548D01*
D02*
G37*
G36*
X-521D02*
X-511Y-54548D01*
X-501Y-54550D01*
X-491Y-54552D01*
X-481Y-54554D01*
X-471Y-54557D01*
X-461Y-54560D01*
X-451Y-54564D01*
X-442Y-54569D01*
X-433Y-54574D01*
X-424Y-54579D01*
X-416Y-54585D01*
X-408Y-54591D01*
X-400Y-54598D01*
X-392Y-54605D01*
X-385Y-54612D01*
X-378Y-54620D01*
X-372Y-54628D01*
X-366Y-54637D01*
X-361Y-54646D01*
X-356Y-54655D01*
X-352Y-54664D01*
X-348Y-54673D01*
X-344Y-54683D01*
X-341Y-54693D01*
X-339Y-54703D01*
X-337Y-54713D01*
X-336Y-54724D01*
X-335Y-54734D01*
X-335Y-54744D01*
Y-61004D01*
X-335Y-61014D01*
X-336Y-61024D01*
X-337Y-61035D01*
X-339Y-61045D01*
X-341Y-61055D01*
X-344Y-61065D01*
X-348Y-61075D01*
X-352Y-61084D01*
X-356Y-61093D01*
X-361Y-61102D01*
X-366Y-61111D01*
X-372Y-61120D01*
X-378Y-61128D01*
X-385Y-61136D01*
X-392Y-61143D01*
X-400Y-61150D01*
X-408Y-61157D01*
X-416Y-61163D01*
X-424Y-61169D01*
X-433Y-61174D01*
X-442Y-61179D01*
X-451Y-61184D01*
X-461Y-61188D01*
X-471Y-61191D01*
X-481Y-61194D01*
X-491Y-61197D01*
X-501Y-61198D01*
X-511Y-61200D01*
X-521Y-61200D01*
X-532Y-61201D01*
X-3051D01*
X-3062Y-61200D01*
X-3072Y-61200D01*
X-3082Y-61198D01*
X-3092Y-61197D01*
X-3102Y-61194D01*
X-3112Y-61191D01*
X-3122Y-61188D01*
X-3131Y-61184D01*
X-3141Y-61179D01*
X-3150Y-61174D01*
X-3158Y-61169D01*
X-3167Y-61163D01*
X-3175Y-61157D01*
X-3183Y-61150D01*
X-3190Y-61143D01*
X-3198Y-61136D01*
X-3204Y-61128D01*
X-3210Y-61120D01*
X-3216Y-61111D01*
X-3222Y-61102D01*
X-3227Y-61093D01*
X-3231Y-61084D01*
X-3235Y-61075D01*
X-3238Y-61065D01*
X-3241Y-61055D01*
X-3244Y-61045D01*
X-3246Y-61035D01*
X-3247Y-61024D01*
X-3248Y-61014D01*
X-3248Y-61004D01*
Y-54744D01*
X-3248Y-54734D01*
X-3247Y-54724D01*
X-3246Y-54713D01*
X-3244Y-54703D01*
X-3241Y-54693D01*
X-3238Y-54683D01*
X-3235Y-54673D01*
X-3231Y-54664D01*
X-3227Y-54655D01*
X-3222Y-54646D01*
X-3216Y-54637D01*
X-3210Y-54628D01*
X-3204Y-54620D01*
X-3198Y-54612D01*
X-3190Y-54605D01*
X-3183Y-54598D01*
X-3175Y-54591D01*
X-3167Y-54585D01*
X-3158Y-54579D01*
X-3150Y-54574D01*
X-3141Y-54569D01*
X-3131Y-54564D01*
X-3122Y-54560D01*
X-3112Y-54557D01*
X-3102Y-54554D01*
X-3092Y-54552D01*
X-3082Y-54550D01*
X-3072Y-54548D01*
X-3062Y-54548D01*
X-3051Y-54547D01*
X-532D01*
X-521Y-54548D01*
D02*
G37*
G36*
X57983Y-56122D02*
X57993Y-56123D01*
X58003Y-56125D01*
X58013Y-56126D01*
X58023Y-56129D01*
X58033Y-56132D01*
X58043Y-56135D01*
X58052Y-56139D01*
X58062Y-56143D01*
X58071Y-56148D01*
X58080Y-56154D01*
X58088Y-56160D01*
X58096Y-56166D01*
X58104Y-56173D01*
X58112Y-56180D01*
X58119Y-56187D01*
X58125Y-56195D01*
X58132Y-56203D01*
X58138Y-56212D01*
X58143Y-56221D01*
X58148Y-56230D01*
X58152Y-56239D01*
X58156Y-56248D01*
X58160Y-56258D01*
X58163Y-56268D01*
X58165Y-56278D01*
X58167Y-56288D01*
X58168Y-56298D01*
X58169Y-56309D01*
X58169Y-56319D01*
Y-62579D01*
X58169Y-62589D01*
X58168Y-62599D01*
X58167Y-62609D01*
X58165Y-62620D01*
X58163Y-62630D01*
X58160Y-62640D01*
X58156Y-62649D01*
X58152Y-62659D01*
X58148Y-62668D01*
X58143Y-62677D01*
X58138Y-62686D01*
X58132Y-62694D01*
X58125Y-62703D01*
X58119Y-62710D01*
X58112Y-62718D01*
X58104Y-62725D01*
X58096Y-62732D01*
X58088Y-62738D01*
X58080Y-62744D01*
X58071Y-62749D01*
X58062Y-62754D01*
X58052Y-62759D01*
X58043Y-62762D01*
X58033Y-62766D01*
X58023Y-62769D01*
X58013Y-62771D01*
X58003Y-62773D01*
X57993Y-62774D01*
X57983Y-62775D01*
X57973Y-62776D01*
X55453D01*
X55443Y-62775D01*
X55432Y-62774D01*
X55422Y-62773D01*
X55412Y-62771D01*
X55402Y-62769D01*
X55392Y-62766D01*
X55382Y-62762D01*
X55373Y-62759D01*
X55363Y-62754D01*
X55354Y-62749D01*
X55346Y-62744D01*
X55337Y-62738D01*
X55329Y-62732D01*
X55321Y-62725D01*
X55314Y-62718D01*
X55307Y-62710D01*
X55300Y-62703D01*
X55294Y-62694D01*
X55288Y-62686D01*
X55282Y-62677D01*
X55277Y-62668D01*
X55273Y-62659D01*
X55269Y-62649D01*
X55265Y-62640D01*
X55263Y-62630D01*
X55260Y-62620D01*
X55258Y-62609D01*
X55257Y-62599D01*
X55256Y-62589D01*
X55256Y-62579D01*
Y-56319D01*
X55256Y-56309D01*
X55257Y-56298D01*
X55258Y-56288D01*
X55260Y-56278D01*
X55263Y-56268D01*
X55265Y-56258D01*
X55269Y-56248D01*
X55273Y-56239D01*
X55277Y-56230D01*
X55282Y-56221D01*
X55288Y-56212D01*
X55294Y-56203D01*
X55300Y-56195D01*
X55307Y-56187D01*
X55314Y-56180D01*
X55321Y-56173D01*
X55329Y-56166D01*
X55337Y-56160D01*
X55346Y-56154D01*
X55354Y-56148D01*
X55363Y-56143D01*
X55373Y-56139D01*
X55382Y-56135D01*
X55392Y-56132D01*
X55402Y-56129D01*
X55412Y-56126D01*
X55422Y-56125D01*
X55432Y-56123D01*
X55443Y-56122D01*
X55453Y-56122D01*
X57973D01*
X57983Y-56122D01*
D02*
G37*
G36*
X52983D02*
X52993Y-56123D01*
X53003Y-56125D01*
X53013Y-56126D01*
X53023Y-56129D01*
X53033Y-56132D01*
X53043Y-56135D01*
X53053Y-56139D01*
X53062Y-56143D01*
X53071Y-56148D01*
X53080Y-56154D01*
X53088Y-56160D01*
X53096Y-56166D01*
X53104Y-56173D01*
X53112Y-56180D01*
X53119Y-56187D01*
X53125Y-56195D01*
X53132Y-56203D01*
X53137Y-56212D01*
X53143Y-56221D01*
X53148Y-56230D01*
X53152Y-56239D01*
X53156Y-56248D01*
X53160Y-56258D01*
X53163Y-56268D01*
X53165Y-56278D01*
X53167Y-56288D01*
X53168Y-56298D01*
X53169Y-56309D01*
X53169Y-56319D01*
Y-62579D01*
X53169Y-62589D01*
X53168Y-62599D01*
X53167Y-62609D01*
X53165Y-62620D01*
X53163Y-62630D01*
X53160Y-62640D01*
X53156Y-62649D01*
X53152Y-62659D01*
X53148Y-62668D01*
X53143Y-62677D01*
X53137Y-62686D01*
X53132Y-62694D01*
X53125Y-62703D01*
X53119Y-62710D01*
X53112Y-62718D01*
X53104Y-62725D01*
X53096Y-62732D01*
X53088Y-62738D01*
X53080Y-62744D01*
X53071Y-62749D01*
X53062Y-62754D01*
X53053Y-62759D01*
X53043Y-62762D01*
X53033Y-62766D01*
X53023Y-62769D01*
X53013Y-62771D01*
X53003Y-62773D01*
X52993Y-62774D01*
X52983Y-62775D01*
X52973Y-62776D01*
X50453D01*
X50442Y-62775D01*
X50432Y-62774D01*
X50422Y-62773D01*
X50412Y-62771D01*
X50402Y-62769D01*
X50392Y-62766D01*
X50382Y-62762D01*
X50373Y-62759D01*
X50363Y-62754D01*
X50354Y-62749D01*
X50346Y-62744D01*
X50337Y-62738D01*
X50329Y-62732D01*
X50321Y-62725D01*
X50314Y-62718D01*
X50306Y-62710D01*
X50300Y-62703D01*
X50293Y-62694D01*
X50288Y-62686D01*
X50282Y-62677D01*
X50277Y-62668D01*
X50273Y-62659D01*
X50269Y-62649D01*
X50266Y-62640D01*
X50263Y-62630D01*
X50260Y-62620D01*
X50258Y-62609D01*
X50257Y-62599D01*
X50256Y-62589D01*
X50256Y-62579D01*
Y-56319D01*
X50256Y-56309D01*
X50257Y-56298D01*
X50258Y-56288D01*
X50260Y-56278D01*
X50263Y-56268D01*
X50266Y-56258D01*
X50269Y-56248D01*
X50273Y-56239D01*
X50277Y-56230D01*
X50282Y-56221D01*
X50288Y-56212D01*
X50293Y-56203D01*
X50300Y-56195D01*
X50306Y-56187D01*
X50314Y-56180D01*
X50321Y-56173D01*
X50329Y-56166D01*
X50337Y-56160D01*
X50346Y-56154D01*
X50354Y-56148D01*
X50363Y-56143D01*
X50373Y-56139D01*
X50382Y-56135D01*
X50392Y-56132D01*
X50402Y-56129D01*
X50412Y-56126D01*
X50422Y-56125D01*
X50432Y-56123D01*
X50442Y-56122D01*
X50453Y-56122D01*
X52973D01*
X52983Y-56122D01*
D02*
G37*
G36*
X47983D02*
X47993Y-56123D01*
X48003Y-56125D01*
X48013Y-56126D01*
X48023Y-56129D01*
X48033Y-56132D01*
X48043Y-56135D01*
X48052Y-56139D01*
X48062Y-56143D01*
X48071Y-56148D01*
X48080Y-56154D01*
X48088Y-56160D01*
X48096Y-56166D01*
X48104Y-56173D01*
X48112Y-56180D01*
X48119Y-56187D01*
X48125Y-56195D01*
X48132Y-56203D01*
X48138Y-56212D01*
X48143Y-56221D01*
X48148Y-56230D01*
X48152Y-56239D01*
X48156Y-56248D01*
X48160Y-56258D01*
X48163Y-56268D01*
X48165Y-56278D01*
X48167Y-56288D01*
X48168Y-56298D01*
X48169Y-56309D01*
X48169Y-56319D01*
Y-62579D01*
X48169Y-62589D01*
X48168Y-62599D01*
X48167Y-62609D01*
X48165Y-62620D01*
X48163Y-62630D01*
X48160Y-62640D01*
X48156Y-62649D01*
X48152Y-62659D01*
X48148Y-62668D01*
X48143Y-62677D01*
X48138Y-62686D01*
X48132Y-62694D01*
X48125Y-62703D01*
X48119Y-62710D01*
X48112Y-62718D01*
X48104Y-62725D01*
X48096Y-62732D01*
X48088Y-62738D01*
X48080Y-62744D01*
X48071Y-62749D01*
X48062Y-62754D01*
X48052Y-62759D01*
X48043Y-62762D01*
X48033Y-62766D01*
X48023Y-62769D01*
X48013Y-62771D01*
X48003Y-62773D01*
X47993Y-62774D01*
X47983Y-62775D01*
X47972Y-62776D01*
X45453D01*
X45443Y-62775D01*
X45432Y-62774D01*
X45422Y-62773D01*
X45412Y-62771D01*
X45402Y-62769D01*
X45392Y-62766D01*
X45382Y-62762D01*
X45373Y-62759D01*
X45363Y-62754D01*
X45354Y-62749D01*
X45346Y-62744D01*
X45337Y-62738D01*
X45329Y-62732D01*
X45321Y-62725D01*
X45314Y-62718D01*
X45307Y-62710D01*
X45300Y-62703D01*
X45294Y-62694D01*
X45288Y-62686D01*
X45282Y-62677D01*
X45277Y-62668D01*
X45273Y-62659D01*
X45269Y-62649D01*
X45266Y-62640D01*
X45263Y-62630D01*
X45260Y-62620D01*
X45258Y-62609D01*
X45257Y-62599D01*
X45256Y-62589D01*
X45256Y-62579D01*
Y-56319D01*
X45256Y-56309D01*
X45257Y-56298D01*
X45258Y-56288D01*
X45260Y-56278D01*
X45263Y-56268D01*
X45266Y-56258D01*
X45269Y-56248D01*
X45273Y-56239D01*
X45277Y-56230D01*
X45282Y-56221D01*
X45288Y-56212D01*
X45294Y-56203D01*
X45300Y-56195D01*
X45307Y-56187D01*
X45314Y-56180D01*
X45321Y-56173D01*
X45329Y-56166D01*
X45337Y-56160D01*
X45346Y-56154D01*
X45354Y-56148D01*
X45363Y-56143D01*
X45373Y-56139D01*
X45382Y-56135D01*
X45392Y-56132D01*
X45402Y-56129D01*
X45412Y-56126D01*
X45422Y-56125D01*
X45432Y-56123D01*
X45443Y-56122D01*
X45453Y-56122D01*
X47972D01*
X47983Y-56122D01*
D02*
G37*
G36*
X42983D02*
X42993Y-56123D01*
X43003Y-56125D01*
X43013Y-56126D01*
X43023Y-56129D01*
X43033Y-56132D01*
X43043Y-56135D01*
X43053Y-56139D01*
X43062Y-56143D01*
X43071Y-56148D01*
X43080Y-56154D01*
X43088Y-56160D01*
X43096Y-56166D01*
X43104Y-56173D01*
X43112Y-56180D01*
X43119Y-56187D01*
X43125Y-56195D01*
X43132Y-56203D01*
X43137Y-56212D01*
X43143Y-56221D01*
X43148Y-56230D01*
X43152Y-56239D01*
X43156Y-56248D01*
X43160Y-56258D01*
X43163Y-56268D01*
X43165Y-56278D01*
X43167Y-56288D01*
X43168Y-56298D01*
X43169Y-56309D01*
X43169Y-56319D01*
Y-62579D01*
X43169Y-62589D01*
X43168Y-62599D01*
X43167Y-62609D01*
X43165Y-62620D01*
X43163Y-62630D01*
X43160Y-62640D01*
X43156Y-62649D01*
X43152Y-62659D01*
X43148Y-62668D01*
X43143Y-62677D01*
X43137Y-62686D01*
X43132Y-62694D01*
X43125Y-62703D01*
X43119Y-62710D01*
X43112Y-62718D01*
X43104Y-62725D01*
X43096Y-62732D01*
X43088Y-62738D01*
X43080Y-62744D01*
X43071Y-62749D01*
X43062Y-62754D01*
X43053Y-62759D01*
X43043Y-62762D01*
X43033Y-62766D01*
X43023Y-62769D01*
X43013Y-62771D01*
X43003Y-62773D01*
X42993Y-62774D01*
X42983Y-62775D01*
X42972Y-62776D01*
X40453D01*
X40442Y-62775D01*
X40432Y-62774D01*
X40422Y-62773D01*
X40412Y-62771D01*
X40402Y-62769D01*
X40392Y-62766D01*
X40382Y-62762D01*
X40373Y-62759D01*
X40363Y-62754D01*
X40354Y-62749D01*
X40346Y-62744D01*
X40337Y-62738D01*
X40329Y-62732D01*
X40321Y-62725D01*
X40314Y-62718D01*
X40306Y-62710D01*
X40300Y-62703D01*
X40293Y-62694D01*
X40288Y-62686D01*
X40282Y-62677D01*
X40277Y-62668D01*
X40273Y-62659D01*
X40269Y-62649D01*
X40266Y-62640D01*
X40263Y-62630D01*
X40260Y-62620D01*
X40258Y-62609D01*
X40257Y-62599D01*
X40256Y-62589D01*
X40256Y-62579D01*
Y-56319D01*
X40256Y-56309D01*
X40257Y-56298D01*
X40258Y-56288D01*
X40260Y-56278D01*
X40263Y-56268D01*
X40266Y-56258D01*
X40269Y-56248D01*
X40273Y-56239D01*
X40277Y-56230D01*
X40282Y-56221D01*
X40288Y-56212D01*
X40293Y-56203D01*
X40300Y-56195D01*
X40306Y-56187D01*
X40314Y-56180D01*
X40321Y-56173D01*
X40329Y-56166D01*
X40337Y-56160D01*
X40346Y-56154D01*
X40354Y-56148D01*
X40363Y-56143D01*
X40373Y-56139D01*
X40382Y-56135D01*
X40392Y-56132D01*
X40402Y-56129D01*
X40412Y-56126D01*
X40422Y-56125D01*
X40432Y-56123D01*
X40442Y-56122D01*
X40453Y-56122D01*
X42972D01*
X42983Y-56122D01*
D02*
G37*
D12*
X7874Y-366142D02*
G03*
X7874Y-366142I-7874J0D01*
G01*
Y-228346D02*
G03*
X7874Y-228346I-7874J0D01*
G01*
D14*
X90853Y-16412D02*
D03*
X89462Y-22958D02*
D03*
X88281Y23352D02*
D03*
X89672Y16805D02*
D03*
X0Y-366142D02*
D03*
Y-228346D02*
D03*
D15*
X11378Y74409D02*
D03*
X-11378D02*
D03*
D16*
X-44094Y-21260D02*
D03*
X-39370D02*
D03*
D17*
X-68898Y0D02*
D03*
X68898D02*
D03*
D18*
X56890Y-51378D02*
D03*
Y-46260D02*
D03*
X51772Y-51378D02*
D03*
Y-46260D02*
D03*
X46654Y-51378D02*
D03*
Y-46260D02*
D03*
X41535Y-51378D02*
D03*
Y-46260D02*
D03*
X13386Y-49803D02*
D03*
Y-44685D02*
D03*
X8268Y-49803D02*
D03*
Y-44685D02*
D03*
X3150Y-49803D02*
D03*
Y-44685D02*
D03*
X-1969Y-49803D02*
D03*
Y-44685D02*
D03*
D40*
X5512Y16142D02*
D03*
X9843Y22441D02*
D03*
X76772Y-44488D02*
D03*
X-38976Y-78740D02*
D03*
X30315Y85039D02*
D03*
X-72441Y-20079D02*
D03*
X-79921Y-14961D02*
D03*
X-12205Y-24803D02*
D03*
X30709Y-33858D02*
D03*
X-84646Y-22047D02*
D03*
D57*
X48819Y43307D02*
D03*
X60630D02*
D03*
X48819Y18898D02*
D03*
X60630D02*
D03*
X24016Y40157D02*
D03*
X35827D02*
D03*
X24016Y15748D02*
D03*
X35827D02*
D03*
X5906Y-122441D02*
D03*
X-5906D02*
D03*
X5906Y-98032D02*
D03*
X-5906D02*
D03*
D77*
X92323Y5020D02*
D03*
Y-1673D02*
D03*
Y-5020D02*
D03*
Y1673D02*
D03*
D78*
X73622Y49724D02*
D03*
Y53425D02*
D03*
X73622Y28228D02*
D03*
Y24528D02*
D03*
X-27953Y72165D02*
D03*
Y75866D02*
D03*
X-9843Y59724D02*
D03*
Y56024D02*
D03*
X-76772Y13898D02*
D03*
Y17598D02*
D03*
D79*
X73425Y43917D02*
D03*
X77165D02*
D03*
X80905D02*
D03*
X73425Y34035D02*
D03*
X77165D02*
D03*
X80905D02*
D03*
D80*
X86543Y-12074D02*
D03*
X83760Y-25168D02*
D03*
D81*
X94564Y-11264D02*
D03*
X90758Y-29171D02*
D03*
D82*
X82579Y25561D02*
D03*
X85362Y12468D02*
D03*
D83*
X89576Y29564D02*
D03*
X93383Y11657D02*
D03*
D84*
X-24567Y64952D02*
D03*
X-27402Y67331D02*
D03*
D85*
X-54772Y-19291D02*
D03*
X-50740D02*
D03*
X20031Y65354D02*
D03*
X24063D02*
D03*
X-6252Y64567D02*
D03*
X-10283D02*
D03*
X-11764Y-11024D02*
D03*
X-15795D02*
D03*
X-11764Y-15354D02*
D03*
X-15795D02*
D03*
X-7433Y-67323D02*
D03*
X-11465D02*
D03*
D86*
X-5906Y56252D02*
D03*
Y60283D02*
D03*
X-81496Y17764D02*
D03*
Y13732D02*
D03*
X-11417Y-59402D02*
D03*
Y-63433D02*
D03*
X-25984Y-85780D02*
D03*
Y-89811D02*
D03*
D87*
X7366Y37826D02*
D03*
X9957Y40914D02*
D03*
X4216Y40582D02*
D03*
X6808Y43670D02*
D03*
X1067Y42944D02*
D03*
X3658Y46032D02*
D03*
X-2083Y45306D02*
D03*
X508Y48395D02*
D03*
X-5233Y48062D02*
D03*
X-2641Y51151D02*
D03*
D88*
X-15245Y57832D02*
D03*
X-20975Y62640D02*
D03*
D89*
X-77559Y-27264D02*
D03*
Y-38091D02*
D03*
D90*
X-27953Y-43898D02*
D03*
Y-62402D02*
D03*
D91*
X8957Y70197D02*
D03*
X9941D02*
D03*
X12106D02*
D03*
X13091D02*
D03*
X-984D02*
D03*
X6890D02*
D03*
X4921D02*
D03*
X2953D02*
D03*
X984D02*
D03*
X-2953D02*
D03*
X-4921D02*
D03*
X-6890D02*
D03*
X-8957D02*
D03*
X-9941D02*
D03*
X-12106D02*
D03*
X-13091D02*
D03*
D92*
X20177Y88878D02*
D03*
X-20177D02*
D03*
D93*
X20177Y72342D02*
D03*
X-20177D02*
D03*
D94*
X-36909Y-33071D02*
D03*
X-26083D02*
D03*
D95*
X-49213Y-29134D02*
D03*
X-64961D02*
D03*
D96*
X-46850Y-40551D02*
D03*
Y-49606D02*
D03*
Y-58661D02*
D03*
D97*
X-71063Y-49606D02*
D03*
D98*
X4731Y62598D02*
D03*
X-1581D02*
D03*
X21253Y79528D02*
D03*
X27565D02*
D03*
X8655Y62598D02*
D03*
X14967D02*
D03*
D99*
X-36216Y66934D02*
D03*
X6007Y31505D02*
D03*
X-71645Y24711D02*
D03*
X-29422Y-10718D02*
D03*
D100*
X-33049Y64277D02*
D03*
X-30486Y62126D02*
D03*
X-27922Y59975D02*
D03*
X-25359Y57824D02*
D03*
X-22795Y55673D02*
D03*
X-20232Y53522D02*
D03*
X-17668Y51370D02*
D03*
X-15104Y49219D02*
D03*
X-12541Y47068D02*
D03*
X-9977Y44917D02*
D03*
X-7414Y42766D02*
D03*
X-4850Y40615D02*
D03*
X-2287Y38464D02*
D03*
X277Y36313D02*
D03*
X2840Y34162D02*
D03*
X-32589Y-8061D02*
D03*
X-35152Y-5910D02*
D03*
X-37716Y-3759D02*
D03*
X-40279Y-1608D02*
D03*
X-42843Y543D02*
D03*
X-45407Y2694D02*
D03*
X-47970Y4845D02*
D03*
X-50534Y6996D02*
D03*
X-53097Y9148D02*
D03*
X-55661Y11299D02*
D03*
X-58224Y13450D02*
D03*
X-60788Y15601D02*
D03*
X-63351Y17752D02*
D03*
X-65915Y19903D02*
D03*
X-68478Y22054D02*
D03*
D101*
X3350Y28338D02*
D03*
X1199Y25774D02*
D03*
X-952Y23211D02*
D03*
X-3103Y20647D02*
D03*
X-5254Y18084D02*
D03*
X-7405Y15520D02*
D03*
X-9556Y12957D02*
D03*
X-11708Y10393D02*
D03*
X-13859Y7830D02*
D03*
X-16010Y5266D02*
D03*
X-18161Y2703D02*
D03*
X-20312Y139D02*
D03*
X-22463Y-2424D02*
D03*
X-24614Y-4988D02*
D03*
X-26765Y-7552D02*
D03*
X-68988Y27878D02*
D03*
X-66837Y30441D02*
D03*
X-64686Y33005D02*
D03*
X-62535Y35568D02*
D03*
X-60384Y38132D02*
D03*
X-58233Y40695D02*
D03*
X-56081Y43259D02*
D03*
X-53930Y45823D02*
D03*
X-51779Y48386D02*
D03*
X-49628Y50950D02*
D03*
X-47477Y53513D02*
D03*
X-45326Y56077D02*
D03*
X-43175Y58640D02*
D03*
X-41024Y61204D02*
D03*
X-38873Y63767D02*
D03*
D102*
X-32819Y28108D02*
D03*
X-37795Y32283D02*
D03*
X-41971Y27307D02*
D03*
X-36995Y23132D02*
D03*
X-32018Y18956D02*
D03*
X-27843Y23932D02*
D03*
X-23667Y28909D02*
D03*
X-28643Y33084D02*
D03*
D103*
X11960Y55362D02*
D03*
X14811Y52512D02*
D03*
X14323Y58118D02*
D03*
X17173Y55268D02*
D03*
D104*
X-2371Y11968D02*
D03*
X8Y14803D02*
D03*
D105*
X-5512Y-74016D02*
D03*
Y-87402D02*
D03*
X21654Y-53937D02*
D03*
Y-67323D02*
D03*
X66142Y-57087D02*
D03*
Y-43701D02*
D03*
D106*
X6299Y-85039D02*
D03*
X22047D02*
D03*
D107*
X-25020Y-81299D02*
D03*
Y-77559D02*
D03*
Y-73819D02*
D03*
X-15138Y-81299D02*
D03*
Y-77559D02*
D03*
Y-73819D02*
D03*
D108*
X-24291Y-69291D02*
D03*
X-20591D02*
D03*
D109*
X-47638Y-67716D02*
D03*
X-57874D02*
D03*
D110*
X-1969Y-15748D02*
D03*
X21654D02*
D03*
D111*
Y-42720D02*
D03*
X66929Y-32878D02*
D03*
D112*
X21654Y-33465D02*
D03*
X66929Y-23622D02*
D03*
D113*
X-8661Y-36220D02*
D03*
Y-30709D02*
D03*
X3150Y-71260D02*
D03*
Y-65748D02*
D03*
X35827Y-38189D02*
D03*
Y-43701D02*
D03*
D114*
X57284Y-66929D02*
D03*
X51378D02*
D03*
D115*
X40945Y-66929D02*
D03*
X46457D02*
D03*
D116*
X12205Y-65551D02*
D03*
Y-71457D02*
D03*
D117*
X40945Y-25984D02*
D03*
Y-2362D02*
D03*
M02*
