G04*
G04 #@! TF.GenerationSoftware,Altium Limited,Altium Designer,21.9.2 (33)*
G04*
G04 Layer_Color=8388736*
%FSLAX25Y25*%
%MOIN*%
G70*
G04*
G04 #@! TF.SameCoordinates,C6F11EFD-203B-4413-AD8B-19CE97DDEB68*
G04*
G04*
G04 #@! TF.FilePolarity,Negative*
G04*
G01*
G75*
%ADD12C,0.07087*%
%ADD13R,0.03449X0.03449*%
%ADD14C,0.00299*%
%ADD15R,0.00299X0.00299*%
%ADD16O,0.03449X0.04236*%
%ADD17C,0.24709*%
%ADD18C,0.02701*%
G36*
X-8778Y-330186D02*
X-8718Y-329724D01*
X-8677Y-329564D01*
X-8597Y-329363D01*
X-8557Y-329202D01*
X-8517Y-329001D01*
X-8437Y-328800D01*
X-8376Y-328579D01*
X-8276Y-328318D01*
X-7975Y-327656D01*
X-7894Y-327455D01*
X-7693Y-327093D01*
X-7452Y-326651D01*
X-7251Y-326370D01*
X-7051Y-326008D01*
X-6809Y-325647D01*
X-6769Y-325566D01*
X-6649Y-325446D01*
X-6609Y-325366D01*
X-6488Y-325245D01*
X-6368Y-325044D01*
X-6207Y-324884D01*
X-6167Y-324803D01*
X-6046Y-324683D01*
X-6006Y-324602D01*
X-5825Y-324381D01*
X-5604Y-324160D01*
X-5564Y-324080D01*
X-5283Y-323799D01*
X-5243Y-323719D01*
X-4961Y-323437D01*
X-4921Y-323357D01*
X-4841Y-323276D01*
X-4801Y-323196D01*
X-4519Y-322915D01*
X-4479Y-322835D01*
X-4339Y-322694D01*
X-4258Y-322654D01*
X-4158Y-322553D01*
X-4118Y-322473D01*
X-3997Y-322353D01*
X-3957Y-322272D01*
X-3877Y-322192D01*
X-3837Y-322112D01*
X-3716Y-321991D01*
X-3676Y-321911D01*
X-3395Y-321629D01*
X-3354Y-321549D01*
X-3174Y-321328D01*
X-3073Y-321187D01*
X-2953Y-320987D01*
X-2913Y-320906D01*
X-2832Y-320826D01*
X-2792Y-320746D01*
X-2671Y-320625D01*
X-2471Y-320264D01*
X-2310Y-320023D01*
X-2270Y-319942D01*
X-2190Y-319741D01*
X-1788Y-318898D01*
X-1687Y-318636D01*
X-1607Y-318436D01*
X-1466Y-317974D01*
X-1426Y-317692D01*
X-1386Y-317532D01*
X-1326Y-317271D01*
X-1285Y-317070D01*
X-1205Y-316588D01*
X-1185Y-314760D01*
X-1225Y-314639D01*
X-1266Y-314077D01*
X-1306Y-313997D01*
X-1245Y-313896D01*
X-1085Y-313936D01*
X-804Y-314217D01*
X-723Y-314258D01*
X542Y-315523D01*
X582Y-315603D01*
X984Y-316005D01*
X1024Y-316086D01*
X1225Y-316286D01*
X1266Y-316367D01*
X1346Y-316447D01*
X1366Y-316507D01*
X1426Y-316527D01*
X1466Y-316608D01*
X1587Y-316728D01*
X1707Y-316929D01*
X1868Y-317090D01*
X1908Y-317170D01*
X2029Y-317291D01*
X2069Y-317371D01*
X2149Y-317451D01*
X2190Y-317532D01*
X2270Y-317612D01*
X2310Y-317692D01*
X2390Y-317773D01*
X2551Y-318054D01*
X2712Y-318215D01*
X2913Y-318576D01*
X2993Y-318657D01*
X3113Y-318858D01*
X3314Y-319219D01*
X3475Y-319500D01*
X3837Y-320183D01*
X4158Y-320866D01*
X4319Y-321228D01*
X4359Y-321388D01*
X4459Y-321650D01*
X4519Y-321830D01*
X4620Y-322091D01*
X4680Y-322272D01*
X4720Y-322433D01*
X4781Y-322694D01*
X4861Y-323015D01*
X4901Y-323216D01*
X4981Y-323698D01*
X5022Y-323899D01*
X5062Y-324261D01*
X5082Y-326169D01*
X5042Y-326290D01*
X4981Y-326671D01*
X4941Y-326912D01*
X4901Y-327113D01*
X4821Y-327595D01*
X4761Y-327816D01*
X4720Y-327977D01*
X4660Y-328278D01*
X4560Y-328539D01*
X4519Y-328820D01*
X4399Y-329102D01*
X4439Y-329262D01*
X4580Y-329282D01*
X4700Y-329242D01*
X4961Y-329142D01*
X5162Y-329062D01*
X5584Y-328841D01*
X5785Y-328720D01*
X6428Y-328238D01*
X6588Y-328077D01*
X6669Y-328037D01*
X6769Y-327896D01*
X7091Y-327575D01*
X7131Y-327495D01*
X7251Y-327374D01*
X7292Y-327294D01*
X7372Y-327214D01*
X7412Y-327133D01*
X7754Y-326631D01*
X7854Y-326410D01*
X7894Y-326330D01*
X8115Y-326028D01*
X8236Y-326069D01*
X8296Y-326129D01*
X8376Y-326330D01*
X8416Y-326410D01*
X8537Y-326611D01*
X8617Y-326812D01*
X8738Y-327093D01*
X8838Y-327354D01*
X8939Y-327575D01*
X8999Y-327836D01*
X9280Y-328961D01*
X9320Y-329202D01*
X9360Y-329644D01*
X9381Y-331512D01*
X9340Y-331633D01*
X9300Y-332195D01*
X9260Y-332316D01*
X9180Y-332597D01*
X9139Y-332878D01*
X9099Y-333039D01*
X8979Y-333440D01*
X8939Y-333601D01*
X8738Y-334123D01*
X8416Y-334846D01*
X8316Y-335108D01*
X8215Y-335208D01*
X7934Y-335730D01*
X7854Y-335811D01*
X7693Y-336092D01*
X7312Y-336594D01*
X7151Y-336835D01*
X7010Y-336936D01*
X6970Y-337016D01*
X6850Y-337136D01*
X6809Y-337217D01*
X6749Y-337277D01*
X6669Y-337317D01*
X6528Y-337458D01*
X6488Y-337538D01*
X6347Y-337679D01*
X6267Y-337719D01*
X5986Y-338000D01*
X5906Y-338040D01*
X5664Y-338281D01*
X5584Y-338321D01*
X5464Y-338442D01*
X5182Y-338603D01*
X4961Y-338784D01*
X4741Y-338884D01*
X4660Y-338924D01*
X4580Y-339004D01*
X4499Y-339045D01*
X4258Y-339205D01*
X3877Y-339346D01*
X3415Y-339607D01*
X3154Y-339667D01*
X2852Y-339808D01*
X2792Y-339748D01*
X2832Y-339627D01*
X2993Y-339467D01*
X3033Y-339386D01*
X3274Y-339145D01*
X3314Y-339065D01*
X3395Y-338984D01*
X3515Y-338784D01*
X3917Y-337940D01*
X3957Y-337779D01*
X3997Y-337498D01*
X4058Y-337277D01*
X4098Y-337036D01*
X4118Y-336494D01*
X4078Y-336373D01*
X4017Y-335911D01*
X3977Y-335710D01*
X3897Y-335268D01*
X3796Y-335047D01*
X3756Y-334887D01*
X3596Y-334525D01*
X3314Y-334003D01*
X3154Y-333722D01*
X2872Y-333360D01*
X2671Y-333079D01*
X2551Y-332958D01*
X2511Y-332878D01*
X2431Y-332798D01*
X2390Y-332717D01*
X2069Y-332396D01*
X2029Y-332316D01*
X1667Y-331954D01*
X1627Y-331874D01*
X1466Y-331713D01*
X1426Y-331633D01*
X1266Y-331472D01*
X1145Y-331271D01*
X964Y-331050D01*
X783Y-330709D01*
X502Y-330106D01*
X402Y-329845D01*
X341Y-329624D01*
X261Y-329142D01*
X221Y-328620D01*
X241Y-327997D01*
X181Y-327856D01*
X161Y-327836D01*
X-60Y-328017D01*
X-201Y-328117D01*
X-382Y-328298D01*
X-422Y-328379D01*
X-482Y-328439D01*
X-562Y-328479D01*
X-663Y-328579D01*
X-703Y-328660D01*
X-884Y-328881D01*
X-1024Y-329021D01*
X-1065Y-329102D01*
X-1225Y-329262D01*
X-1266Y-329343D01*
X-1386Y-329463D01*
X-1426Y-329544D01*
X-1547Y-329664D01*
X-1587Y-329745D01*
X-1868Y-330186D01*
X-2109Y-330628D01*
X-2431Y-331311D01*
X-2551Y-331592D01*
X-2591Y-331753D01*
X-2651Y-332014D01*
X-2752Y-332356D01*
X-2792Y-332517D01*
X-2832Y-332918D01*
X-2792Y-334164D01*
X-2752Y-334284D01*
X-2692Y-334505D01*
X-2651Y-334666D01*
X-2571Y-335108D01*
X-2551Y-335329D01*
X-2732Y-335389D01*
X-2993Y-335288D01*
X-3093Y-335188D01*
X-3294Y-335068D01*
X-3375Y-334987D01*
X-3455Y-334947D01*
X-3676Y-334766D01*
X-3857Y-334545D01*
X-4078Y-334324D01*
X-4279Y-333963D01*
X-4379Y-333862D01*
X-4499Y-333903D01*
X-4700Y-334344D01*
X-4881Y-335007D01*
X-4921Y-335409D01*
X-4961Y-335690D01*
X-4921Y-336976D01*
X-4881Y-337096D01*
X-4821Y-337357D01*
X-4781Y-337518D01*
X-4620Y-337960D01*
X-4519Y-338221D01*
X-4238Y-338743D01*
X-3977Y-339125D01*
X-3756Y-339346D01*
X-3716Y-339507D01*
X-3736Y-339567D01*
X-3937Y-339527D01*
X-4017Y-339446D01*
X-4218Y-339326D01*
X-4419Y-339246D01*
X-4700Y-339085D01*
X-4921Y-338904D01*
X-5263Y-338723D01*
X-5383Y-338603D01*
X-5464Y-338563D01*
X-5544Y-338482D01*
X-5745Y-338362D01*
X-5825Y-338281D01*
X-5906Y-338241D01*
X-6227Y-337920D01*
X-6307Y-337880D01*
X-6448Y-337739D01*
X-6488Y-337659D01*
X-6629Y-337558D01*
X-6769Y-337418D01*
X-6809Y-337337D01*
X-6890Y-337257D01*
X-6930Y-337177D01*
X-7211Y-336895D01*
X-7251Y-336815D01*
X-7532Y-336454D01*
X-7733Y-336092D01*
X-7814Y-336012D01*
X-7854Y-335931D01*
X-7934Y-335851D01*
X-8055Y-335529D01*
X-8256Y-335168D01*
X-8376Y-334887D01*
X-8477Y-334626D01*
X-8637Y-334184D01*
X-8698Y-333963D01*
X-8738Y-333802D01*
X-8778Y-333521D01*
X-8818Y-333360D01*
X-8898Y-332878D01*
X-8939Y-332356D01*
X-8898Y-330869D01*
X-8858Y-330749D01*
X-8798Y-330287D01*
X-8778Y-330227D01*
Y-330186D01*
D02*
G37*
G36*
X-4062Y-279027D02*
X-4197Y-278893D01*
X-4219Y-278825D01*
X-4309Y-278781D01*
X-4421Y-278668D01*
X-4466Y-278489D01*
X-4421Y-277995D01*
X-3927Y-277501D01*
X-3883Y-277412D01*
X-3501Y-277030D01*
X-3411Y-276985D01*
X-3344Y-276918D01*
X-3299Y-276828D01*
X-2962Y-276491D01*
X-2873Y-276447D01*
X-2648Y-276177D01*
X-2154Y-275683D01*
X-2065Y-275639D01*
X-1997Y-275571D01*
X-1953Y-275482D01*
X-1840Y-275369D01*
X-1750Y-275324D01*
X-1661Y-275235D01*
X-1571Y-275190D01*
X-1414Y-274943D01*
X-1302Y-274831D01*
X-1212Y-274786D01*
X-1144Y-274718D01*
X-1100Y-274629D01*
X-943Y-274472D01*
X-853Y-274427D01*
X-741Y-274315D01*
X-696Y-273192D01*
X-741Y-269243D01*
X-943Y-269175D01*
X-1077Y-269220D01*
X-1167Y-269310D01*
X-1257Y-269355D01*
X-1571Y-269534D01*
X-2244Y-269893D01*
X-2379Y-270028D01*
X-2603Y-270118D01*
X-2693Y-270163D01*
X-2918Y-270252D01*
X-3142Y-270387D01*
X-3232Y-270477D01*
X-3322Y-270522D01*
X-3815Y-270791D01*
X-3905Y-270881D01*
X-4488Y-271195D01*
X-4758Y-271375D01*
X-4892Y-271420D01*
X-5139Y-271621D01*
X-5229Y-271711D01*
X-5274Y-271801D01*
X-5409Y-272115D01*
X-5476Y-272542D01*
X-5611Y-273080D01*
X-5723Y-273462D01*
X-5768Y-273552D01*
X-5857Y-273776D01*
X-5925Y-274337D01*
X-6037Y-274629D01*
X-6082Y-274853D01*
X-6172Y-275078D01*
X-6306Y-275526D01*
X-6374Y-275953D01*
X-6463Y-276177D01*
X-6553Y-276536D01*
X-6710Y-276693D01*
X-6845Y-276918D01*
X-7137Y-277030D01*
X-7316Y-277075D01*
X-7563Y-277008D01*
X-7787Y-276918D01*
X-7877Y-276873D01*
X-7922Y-276693D01*
X-8146Y-276469D01*
X-8102Y-275886D01*
X-8057Y-275751D01*
X-8012Y-275571D01*
X-7900Y-275055D01*
X-7787Y-274674D01*
X-7608Y-274225D01*
X-7563Y-273866D01*
X-7518Y-273731D01*
X-7451Y-273439D01*
X-7339Y-273058D01*
X-7451Y-272990D01*
X-7675Y-273080D01*
X-7967Y-273192D01*
X-8326Y-273417D01*
X-8393Y-273484D01*
X-9246Y-273933D01*
X-9516Y-274113D01*
X-9740Y-274247D01*
X-9830Y-274337D01*
X-10009Y-274382D01*
X-10413Y-274561D01*
X-10727Y-274606D01*
X-11019Y-274494D01*
X-11333Y-274315D01*
X-11468Y-273821D01*
X-11423Y-273552D01*
X-11199Y-273237D01*
X-11086Y-273125D01*
X-10862Y-272990D01*
X-10548Y-272811D01*
X-10054Y-272542D01*
X-9740Y-272317D01*
X-9448Y-272205D01*
X-9201Y-272048D01*
X-8842Y-271824D01*
X-8281Y-271532D01*
X-8326Y-271442D01*
X-8663Y-271285D01*
X-8753Y-271195D01*
X-9067Y-271105D01*
X-9403Y-271038D01*
X-9650Y-270971D01*
X-9830Y-270926D01*
X-10413Y-270701D01*
X-10862Y-270656D01*
X-11086Y-270567D01*
X-11378Y-270499D01*
X-11648Y-270275D01*
X-11827Y-270095D01*
X-11872Y-269916D01*
X-11827Y-269332D01*
X-11535Y-269041D01*
X-11311Y-268951D01*
X-11131Y-268906D01*
X-10772Y-268951D01*
X-10638Y-268996D01*
X-10391Y-269063D01*
X-10166Y-269153D01*
X-9920Y-269220D01*
X-9605Y-269265D01*
X-9313Y-269332D01*
X-8932Y-269445D01*
X-8708Y-269534D01*
X-8393Y-269624D01*
X-8214Y-269669D01*
X-7922Y-269736D01*
X-7563Y-269826D01*
X-7339Y-269871D01*
X-7159Y-269916D01*
X-6912Y-270028D01*
X-6374Y-270118D01*
X-6059Y-270208D01*
X-5880Y-270163D01*
X-5790Y-270073D01*
X-5386Y-269848D01*
X-5072Y-269669D01*
X-4354Y-269220D01*
X-4174Y-269175D01*
X-4084Y-269086D01*
X-3995Y-269041D01*
X-3322Y-268682D01*
X-3232Y-268592D01*
X-3142Y-268547D01*
X-2648Y-268278D01*
X-2379Y-268098D01*
X-2289Y-268053D01*
X-1885Y-267829D01*
X-1683Y-267672D01*
X-1728Y-267582D01*
X-1795Y-267515D01*
X-1885Y-267470D01*
X-2110Y-267245D01*
X-2603Y-266976D01*
X-2738Y-266841D01*
X-3030Y-266729D01*
X-3254Y-266639D01*
X-3411Y-266527D01*
X-3456Y-266437D01*
X-3860Y-266258D01*
X-4084Y-266123D01*
X-4219Y-265988D01*
X-4399Y-265944D01*
X-4892Y-265674D01*
X-4937Y-265584D01*
X-5431Y-265360D01*
X-5588Y-265293D01*
X-5633Y-265203D01*
X-5745Y-265091D01*
X-6059Y-265046D01*
X-6598Y-265091D01*
X-6733Y-265136D01*
X-7047Y-265270D01*
X-7226Y-265315D01*
X-7586Y-265360D01*
X-7900Y-265495D01*
X-8348Y-265540D01*
X-8753Y-265719D01*
X-9067Y-265764D01*
X-9246Y-265809D01*
X-9471Y-265899D01*
X-9785Y-265944D01*
X-10121Y-266011D01*
X-10189Y-266078D01*
X-10503Y-266168D01*
X-11019Y-266280D01*
X-11266Y-266303D01*
X-11580Y-266123D01*
X-11692Y-266011D01*
X-11737Y-265921D01*
X-11872Y-265787D01*
X-11827Y-265068D01*
X-11580Y-264822D01*
X-11266Y-264687D01*
X-11086Y-264642D01*
X-10772Y-264552D01*
X-10413Y-264462D01*
X-10166Y-264395D01*
X-9964Y-264328D01*
X-9605Y-264238D01*
X-9156Y-264103D01*
X-8775Y-264036D01*
X-8595Y-263991D01*
X-8371Y-263901D01*
X-8281Y-263812D01*
X-8438Y-263654D01*
X-8663Y-263520D01*
X-8797Y-263385D01*
X-9381Y-263071D01*
X-9471Y-262981D01*
X-9964Y-262757D01*
X-10054Y-262712D01*
X-10234Y-262532D01*
X-10548Y-262398D01*
X-10772Y-262263D01*
X-10907Y-262128D01*
X-11221Y-261949D01*
X-11333Y-261837D01*
X-11378Y-261657D01*
X-11468Y-261343D01*
X-11423Y-261119D01*
X-11199Y-260804D01*
X-11086Y-260692D01*
X-10907Y-260647D01*
X-10189Y-260692D01*
X-10099Y-260782D01*
X-9785Y-260961D01*
X-9695Y-261051D01*
X-9403Y-261163D01*
X-9044Y-261388D01*
X-8977Y-261455D01*
X-7855Y-262039D01*
X-7496Y-262263D01*
X-7339Y-262241D01*
X-7406Y-261994D01*
X-7451Y-261724D01*
X-7586Y-261186D01*
X-7698Y-260804D01*
X-7787Y-260490D01*
X-7922Y-259996D01*
X-8012Y-259637D01*
X-8146Y-259144D01*
X-8102Y-258650D01*
X-7900Y-258403D01*
X-7765Y-258268D01*
X-7451Y-258134D01*
X-7002Y-258179D01*
X-6576Y-258605D01*
X-6396Y-259189D01*
X-6351Y-259368D01*
X-6284Y-259660D01*
X-6082Y-260311D01*
X-5947Y-260849D01*
X-5857Y-261163D01*
X-5813Y-261523D01*
X-5678Y-261837D01*
X-5588Y-262061D01*
X-5521Y-262443D01*
X-5431Y-262802D01*
X-5386Y-263026D01*
X-5341Y-263206D01*
X-5229Y-263497D01*
X-5184Y-263587D01*
X-5117Y-263654D01*
X-4713Y-263879D01*
X-4444Y-264058D01*
X-4219Y-264148D01*
X-3950Y-264328D01*
X-3860Y-264373D01*
X-3770Y-264462D01*
X-3478Y-264575D01*
X-2985Y-264889D01*
X-2379Y-265225D01*
X-2289Y-265315D01*
X-1997Y-265427D01*
X-1638Y-265652D01*
X-1302Y-265854D01*
X-1212Y-265899D01*
X-943Y-266078D01*
X-741Y-266056D01*
X-696Y-265876D01*
X-741Y-260984D01*
X-965Y-260670D01*
X-1234Y-260400D01*
X-1279Y-260311D01*
X-1436Y-260198D01*
X-2738Y-258897D01*
X-2805Y-258874D01*
X-2850Y-258785D01*
X-3097Y-258538D01*
X-3187Y-258493D01*
X-3299Y-258381D01*
X-3344Y-258291D01*
X-3546Y-258089D01*
X-3636Y-258044D01*
X-3703Y-257977D01*
X-3748Y-257887D01*
X-3995Y-257640D01*
X-4084Y-257595D01*
X-4421Y-257124D01*
X-4466Y-256944D01*
X-4488Y-256652D01*
X-4421Y-256495D01*
X-4264Y-256338D01*
X-4174Y-256293D01*
X-3995Y-256114D01*
X-3681Y-256024D01*
X-3344Y-256091D01*
X-3187Y-256159D01*
X-3007Y-256338D01*
X-2918Y-256383D01*
X-2716Y-256585D01*
X-2671Y-256675D01*
X-2603Y-256742D01*
X-2513Y-256787D01*
X-1324Y-257977D01*
X-1302Y-258044D01*
X-1212Y-258089D01*
X-1100Y-258201D01*
X-1077Y-258268D01*
X-988Y-258313D01*
X-853Y-258448D01*
X-718Y-258403D01*
X-673Y-255037D01*
X-628Y-254812D01*
X-539Y-254678D01*
X-449Y-254633D01*
X-202Y-254431D01*
X0Y-254363D01*
X449Y-254408D01*
X628Y-254588D01*
X718Y-254633D01*
X875Y-254790D01*
X943Y-255037D01*
X988Y-257999D01*
X1032Y-258268D01*
X1077Y-258358D01*
X1257Y-258313D01*
X3322Y-256248D01*
X3411Y-256204D01*
X3501Y-256114D01*
X3793Y-256047D01*
X3995Y-256024D01*
X4129Y-256069D01*
X4444Y-256248D01*
X4556Y-256361D01*
X4601Y-256451D01*
X4690Y-256540D01*
X4735Y-256765D01*
X4690Y-256899D01*
X4645Y-257169D01*
X4466Y-257348D01*
X4421Y-257438D01*
X4309Y-257595D01*
X4219Y-257640D01*
X3972Y-257842D01*
X3927Y-257932D01*
X2222Y-259637D01*
X2177Y-259727D01*
X2065Y-259839D01*
X1975Y-259884D01*
X1773Y-260086D01*
X1728Y-260176D01*
X1661Y-260243D01*
X1571Y-260288D01*
X1324Y-260535D01*
X1279Y-260625D01*
X1212Y-260692D01*
X1144Y-260715D01*
X1100Y-260804D01*
X1010Y-261029D01*
X965Y-261882D01*
X1010Y-265876D01*
X1077Y-266033D01*
X1347Y-265988D01*
X1436Y-265899D01*
X1526Y-265854D01*
X1840Y-265674D01*
X2110Y-265495D01*
X2693Y-265181D01*
X3322Y-264822D01*
X3815Y-264507D01*
X3995Y-264462D01*
X4084Y-264373D01*
X4174Y-264328D01*
X4444Y-264148D01*
X4735Y-264036D01*
X4892Y-263924D01*
X4982Y-263834D01*
X5386Y-263610D01*
X5498Y-263363D01*
X5543Y-263183D01*
X5611Y-262936D01*
X5655Y-262757D01*
X5723Y-262510D01*
X5813Y-262151D01*
X5880Y-261904D01*
X5992Y-261523D01*
X6059Y-261276D01*
X6149Y-261051D01*
X6194Y-260872D01*
X6239Y-260647D01*
X6329Y-260154D01*
X6441Y-259772D01*
X6621Y-259189D01*
X6665Y-259009D01*
X6733Y-258717D01*
X6822Y-258538D01*
X6912Y-258493D01*
X7137Y-258268D01*
X7361Y-258179D01*
X7900Y-258224D01*
X8236Y-258560D01*
X8326Y-258785D01*
X8281Y-259592D01*
X8236Y-259727D01*
X8146Y-259951D01*
X8034Y-260243D01*
X7967Y-260490D01*
X7810Y-261186D01*
X7765Y-261410D01*
X7698Y-261567D01*
X7653Y-261702D01*
X7586Y-262173D01*
X7563Y-262196D01*
X7675Y-262308D01*
X8079Y-262084D01*
X8348Y-261904D01*
X8663Y-261724D01*
X9022Y-261500D01*
X9605Y-261186D01*
X10099Y-260916D01*
X10189Y-260827D01*
X10593Y-260647D01*
X10885Y-260625D01*
X11266Y-260692D01*
X11356Y-260782D01*
X11445Y-260827D01*
X11558Y-260939D01*
X11648Y-261163D01*
X11692Y-261343D01*
X11648Y-261567D01*
X11603Y-261702D01*
X11468Y-261926D01*
X11356Y-262039D01*
X11042Y-262218D01*
X10952Y-262308D01*
X10862Y-262353D01*
X10278Y-262667D01*
X9920Y-262891D01*
X9695Y-263026D01*
X9426Y-263206D01*
X9291Y-263250D01*
X8887Y-263475D01*
X8753Y-263610D01*
X8551Y-263722D01*
X8595Y-263901D01*
X8663Y-263969D01*
X8910Y-264036D01*
X9134Y-264081D01*
X9403Y-264126D01*
X9583Y-264171D01*
X9785Y-264238D01*
X9964Y-264283D01*
X10211Y-264350D01*
X10436Y-264440D01*
X10683Y-264507D01*
X11109Y-264575D01*
X11288Y-264619D01*
X11513Y-264709D01*
X11872Y-264934D01*
X12029Y-265046D01*
X12141Y-265338D01*
X12096Y-265787D01*
X12029Y-265854D01*
X11939Y-265899D01*
X11872Y-265966D01*
X11827Y-266056D01*
X11760Y-266168D01*
X11670Y-266213D01*
X11445Y-266303D01*
X10997Y-266258D01*
X10862Y-266213D01*
X10481Y-266146D01*
X10189Y-265988D01*
X10009Y-265944D01*
X9560Y-265899D01*
X9336Y-265809D01*
X8865Y-265697D01*
X8618Y-265584D01*
X8438Y-265540D01*
X8012Y-265472D01*
X7810Y-265405D01*
X7630Y-265360D01*
X7249Y-265293D01*
X6912Y-265091D01*
X6194Y-265046D01*
X5880Y-265225D01*
X5790Y-265315D01*
X5296Y-265540D01*
X5162Y-265584D01*
X4848Y-265809D01*
X4758Y-265854D01*
X4309Y-266168D01*
X4017Y-266280D01*
X3950Y-266348D01*
X3770Y-266392D01*
X3658Y-266460D01*
X3613Y-266549D01*
X3546Y-266617D01*
X3254Y-266729D01*
X3187Y-266796D01*
X3007Y-266841D01*
X2828Y-267021D01*
X2536Y-267133D01*
X2177Y-267357D01*
X2132Y-267447D01*
X1975Y-267559D01*
X1908Y-267627D01*
X2020Y-267784D01*
X2603Y-268098D01*
X3052Y-268367D01*
X3636Y-268682D01*
X4309Y-269041D01*
X4399Y-269130D01*
X4488Y-269175D01*
X4803Y-269355D01*
X5296Y-269669D01*
X5790Y-269938D01*
X6015Y-270073D01*
X6329Y-270163D01*
X6800Y-270095D01*
X7024Y-270051D01*
X7271Y-269938D01*
X7810Y-269804D01*
X8057Y-269736D01*
X8236Y-269691D01*
X8461Y-269647D01*
X8640Y-269602D01*
X8865Y-269512D01*
X9111Y-269445D01*
X9830Y-269265D01*
X10301Y-269153D01*
X10817Y-268996D01*
X11176Y-268906D01*
X11625Y-268951D01*
X11715Y-269041D01*
X11805Y-269086D01*
X12051Y-269332D01*
X12141Y-269557D01*
X12074Y-269983D01*
X11962Y-270140D01*
X11625Y-270477D01*
X11333Y-270544D01*
X10952Y-270656D01*
X10638Y-270701D01*
X10391Y-270769D01*
X10323Y-270836D01*
X9964Y-270926D01*
X9628Y-270993D01*
X9336Y-271105D01*
X8954Y-271173D01*
X8573Y-271420D01*
X8551Y-271532D01*
X8820Y-271711D01*
X9022Y-271824D01*
X9246Y-271913D01*
X9560Y-272093D01*
X9830Y-272272D01*
X10234Y-272497D01*
X10503Y-272676D01*
X10997Y-272946D01*
X11266Y-273125D01*
X11356Y-273170D01*
X11603Y-273417D01*
X11670Y-273664D01*
X11692Y-273911D01*
X11603Y-274000D01*
X11558Y-274090D01*
X11378Y-274404D01*
X11311Y-274472D01*
X11086Y-274561D01*
X10750Y-274584D01*
X10570Y-274539D01*
X10323Y-274427D01*
X10099Y-274337D01*
X9964Y-274202D01*
X9875Y-274158D01*
X9269Y-273866D01*
X9224Y-273776D01*
X8573Y-273439D01*
X8506Y-273372D01*
X8483Y-273305D01*
X7900Y-273080D01*
X7630Y-272946D01*
X7563Y-273013D01*
X7630Y-273349D01*
X7743Y-273641D01*
X7810Y-274023D01*
X7877Y-274270D01*
X7967Y-274629D01*
X8034Y-274876D01*
X8169Y-275235D01*
X8214Y-275414D01*
X8259Y-275639D01*
X8304Y-275818D01*
X8326Y-276469D01*
X8012Y-276873D01*
X7900Y-276985D01*
X7586Y-277030D01*
X7181Y-276985D01*
X6935Y-276738D01*
X6890Y-276648D01*
X6755Y-276514D01*
X6710Y-276334D01*
X6621Y-276020D01*
X6576Y-275841D01*
X6486Y-275526D01*
X6351Y-275078D01*
X6284Y-274831D01*
X6194Y-274472D01*
X6104Y-274023D01*
X5902Y-273372D01*
X5813Y-273013D01*
X5745Y-272721D01*
X5678Y-272519D01*
X5633Y-272340D01*
X5543Y-272115D01*
X5476Y-271824D01*
X5341Y-271599D01*
X5252Y-271554D01*
X5117Y-271420D01*
X4803Y-271240D01*
X4713Y-271150D01*
X4309Y-270971D01*
X4084Y-270836D01*
X3995Y-270746D01*
X3501Y-270522D01*
X3299Y-270410D01*
X3254Y-270320D01*
X2760Y-270095D01*
X2603Y-270028D01*
X2424Y-269848D01*
X1750Y-269490D01*
X1661Y-269400D01*
X1167Y-269175D01*
X1010Y-269243D01*
X965Y-269422D01*
X1010Y-274315D01*
X1167Y-274472D01*
X1257Y-274517D01*
X1414Y-274674D01*
X1459Y-274763D01*
X1571Y-274876D01*
X1661Y-274921D01*
X1863Y-275122D01*
X1908Y-275212D01*
X2020Y-275324D01*
X2110Y-275369D01*
X2267Y-275526D01*
X2312Y-275616D01*
X2424Y-275728D01*
X2513Y-275773D01*
X2805Y-276065D01*
X2850Y-276155D01*
X3007Y-276267D01*
X3209Y-276469D01*
X3254Y-276559D01*
X3322Y-276626D01*
X3411Y-276671D01*
X3478Y-276738D01*
X3501Y-276806D01*
X3591Y-276851D01*
X3658Y-276918D01*
X3703Y-277008D01*
X3860Y-277120D01*
X4107Y-277367D01*
X4129Y-277434D01*
X4219Y-277479D01*
X4331Y-277591D01*
X4376Y-277681D01*
X4601Y-277905D01*
X4645Y-277995D01*
X4735Y-278220D01*
X4690Y-278354D01*
X4645Y-278624D01*
X4421Y-278848D01*
X4376Y-278938D01*
X4219Y-279095D01*
X3770Y-279140D01*
X3546Y-279095D01*
X3232Y-278781D01*
X3007Y-278646D01*
X2895Y-278489D01*
X2828Y-278377D01*
X2738Y-278332D01*
X2581Y-278220D01*
X2536Y-278130D01*
X2379Y-277928D01*
X2289Y-277883D01*
X2177Y-277816D01*
X2132Y-277726D01*
X1930Y-277479D01*
X1706Y-277344D01*
X1548Y-277097D01*
X1391Y-276985D01*
X1279Y-276873D01*
X1234Y-276783D01*
X1167Y-276716D01*
X1077Y-276761D01*
X1010Y-276828D01*
X965Y-277008D01*
X920Y-280150D01*
X875Y-280284D01*
X808Y-280441D01*
X718Y-280486D01*
X583Y-280621D01*
X494Y-280666D01*
X404Y-280755D01*
X90Y-280800D01*
X-135Y-280755D01*
X-314Y-280576D01*
X-628Y-280396D01*
X-673Y-280037D01*
X-718Y-276851D01*
X-808Y-276761D01*
X-943Y-276716D01*
X-1055Y-276783D01*
X-1100Y-276918D01*
X-1302Y-277120D01*
X-1391Y-277165D01*
X-1571Y-277434D01*
X-1661Y-277479D01*
X-1908Y-277726D01*
X-1953Y-277816D01*
X-2020Y-277883D01*
X-2110Y-277928D01*
X-2356Y-278130D01*
X-2491Y-278354D01*
X-2648Y-278466D01*
X-2716Y-278534D01*
X-2760Y-278624D01*
X-2873Y-278736D01*
X-2962Y-278781D01*
X-3209Y-278982D01*
X-3322Y-279095D01*
X-3636Y-279140D01*
X-3995Y-279095D01*
X-4040Y-279050D01*
X-4062Y-279027D01*
D02*
G37*
G36*
X-3984Y-186497D02*
X9863Y-186533D01*
X10182Y-186674D01*
X10678Y-186958D01*
X10749Y-187029D01*
X10819Y-187064D01*
X11191Y-187436D01*
X11227Y-187507D01*
X11298Y-187577D01*
X11616Y-188250D01*
X11652Y-188392D01*
X11687Y-188746D01*
X11652Y-189632D01*
X11262Y-190375D01*
X11156Y-190481D01*
X11120Y-190552D01*
X10979Y-190694D01*
X10943Y-190765D01*
X10642Y-190995D01*
X10589Y-191013D01*
X10571Y-191066D01*
X10111Y-191278D01*
X9899Y-191314D01*
X9828Y-191385D01*
X9686Y-191420D01*
X-9279Y-191438D01*
X-9491Y-191402D01*
X-9792Y-191314D01*
X-9987Y-191261D01*
X-10394Y-191031D01*
X-10465Y-190960D01*
X-10642Y-190853D01*
X-10802Y-190694D01*
X-10837Y-190623D01*
X-10961Y-190535D01*
X-11050Y-190446D01*
X-11191Y-190198D01*
X-11404Y-189809D01*
X-11439Y-189702D01*
X-11510Y-188994D01*
X-11457Y-188374D01*
X-11422Y-188162D01*
X-11262Y-187861D01*
X-11120Y-187648D01*
X-11014Y-187471D01*
X-10855Y-187276D01*
X-10784Y-187206D01*
X-10731Y-187188D01*
X-10695Y-187117D01*
X-10607Y-187029D01*
X-10536Y-186993D01*
X-10465Y-186922D01*
X-10147Y-186745D01*
X-9969Y-186674D01*
X-9721Y-186568D01*
X-9474Y-186533D01*
X-9013Y-186497D01*
X-4020D01*
X-3984D01*
D02*
G37*
G36*
X1021Y27278D02*
X1480Y27074D01*
X1735Y26972D01*
X1837Y26870D01*
X2067Y26794D01*
X2092Y26768D01*
X2297Y26564D01*
X2399Y26513D01*
X2603Y26309D01*
X2705Y26258D01*
X2884Y26079D01*
X2935Y25977D01*
X3139Y25773D01*
X3190Y25671D01*
X3343Y25518D01*
X3394Y25365D01*
X3598Y25058D01*
X3649Y24854D01*
X3802Y24701D01*
X3751Y-1327D01*
X3649Y-1429D01*
X3521Y-1761D01*
X3394Y-1888D01*
X3190Y-2246D01*
X3088Y-2348D01*
X2935Y-2603D01*
X2833Y-2705D01*
X2781Y-2807D01*
X2705Y-2884D01*
X2603Y-2935D01*
X2552Y-3037D01*
X2450Y-3088D01*
X2297Y-3241D01*
X2194Y-3292D01*
X1939Y-3445D01*
X1837Y-3547D01*
X1633Y-3598D01*
X1174Y-3802D01*
X970Y-3853D01*
X383Y-3930D01*
X-153Y-3955D01*
X-306Y-3904D01*
X-944Y-3828D01*
X-1199Y-3777D01*
X-1531Y-3598D01*
X-1786Y-3547D01*
X-1990Y-3343D01*
X-2246Y-3190D01*
X-2603Y-2935D01*
X-3037Y-2501D01*
X-3190Y-2246D01*
X-3394Y-1888D01*
X-3496Y-1786D01*
X-3547Y-1582D01*
X-3649Y-1327D01*
X-3802Y-970D01*
X-3853Y-612D01*
X-3879Y18551D01*
X-3828Y22379D01*
X-3777Y23910D01*
X-3726Y24420D01*
X-3675Y24624D01*
X-3547Y24956D01*
X-3470Y25237D01*
X-3343Y25365D01*
X-3139Y25722D01*
X-2909Y26002D01*
X-2833Y26079D01*
X-2781Y26181D01*
X-2654Y26309D01*
X-2552Y26360D01*
X-2348Y26564D01*
X-2246Y26615D01*
X-2092Y26768D01*
X-1327Y27125D01*
X-1225Y27176D01*
X-970Y27278D01*
X-306Y27329D01*
X1021Y27278D01*
D02*
G37*
G36*
X12759Y19419D02*
X13218Y19215D01*
X13473Y19062D01*
X13933Y18807D01*
X14290Y18551D01*
X14775Y18220D01*
X14953Y18092D01*
X15055Y17990D01*
X15157Y17939D01*
X15617Y17582D01*
X15898Y17352D01*
X16025Y17224D01*
X16127Y17173D01*
X16178Y17071D01*
X16280Y17020D01*
X16561Y16791D01*
X16689Y16663D01*
X16765Y16637D01*
X16791Y16561D01*
X16893Y16510D01*
X17403Y16000D01*
X17505Y15948D01*
X17582Y15872D01*
X17607Y15795D01*
X17709Y15744D01*
X18245Y15209D01*
X18296Y15107D01*
X18373Y15030D01*
X18475Y14979D01*
X18602Y14800D01*
X19011Y14392D01*
X19062Y14290D01*
X19266Y14086D01*
X19317Y13984D01*
X19521Y13780D01*
X19572Y13678D01*
X19776Y13473D01*
X19827Y13371D01*
X19980Y13218D01*
X20031Y13116D01*
X20287Y12759D01*
X20312Y12682D01*
X20414Y12631D01*
X20593Y12350D01*
X20695Y12248D01*
X20848Y11993D01*
X20950Y11891D01*
X21154Y11534D01*
X21511Y10973D01*
X21562Y10870D01*
X21665Y10768D01*
X21767Y10513D01*
X21869Y10411D01*
X22379Y9493D01*
X22940Y8319D01*
X23094Y8064D01*
X23196Y7808D01*
X23400Y7349D01*
X23451Y7145D01*
X23655Y6686D01*
X23808Y6277D01*
X23910Y6022D01*
X23987Y5639D01*
X24114Y5410D01*
X24165Y5206D01*
X24242Y4874D01*
X24369Y4542D01*
X24420Y4338D01*
X24497Y3904D01*
X24599Y3649D01*
X24650Y3445D01*
X24752Y2833D01*
X24880Y2399D01*
X24956Y1761D01*
X25007Y1455D01*
X25084Y1174D01*
X25135Y204D01*
X25186Y-1378D01*
X25135Y-4848D01*
X25084Y-5001D01*
X25033Y-5512D01*
X24982Y-5665D01*
X24854Y-6711D01*
X24803Y-6915D01*
X24727Y-7196D01*
X24676Y-7400D01*
X24624Y-7859D01*
X24522Y-8115D01*
X24420Y-8523D01*
X24369Y-8829D01*
X24216Y-9186D01*
X24165Y-9544D01*
X24114Y-9748D01*
X24012Y-9850D01*
X23859Y-10462D01*
X23655Y-10922D01*
X23527Y-11253D01*
X23451Y-11534D01*
X23349Y-11789D01*
X23196Y-12146D01*
X23094Y-12402D01*
X22991Y-12504D01*
X22838Y-12912D01*
X22736Y-13014D01*
X22660Y-13346D01*
X22583Y-13422D01*
X22532Y-13524D01*
X22430Y-13780D01*
X22379Y-13882D01*
X22277Y-13984D01*
X22175Y-14239D01*
X22124Y-14341D01*
X22022Y-14443D01*
X21613Y-15209D01*
X21358Y-15668D01*
X21205Y-15821D01*
X21052Y-16076D01*
X20797Y-16433D01*
X20593Y-16791D01*
X20491Y-16893D01*
X20338Y-17148D01*
X20235Y-17250D01*
X20185Y-17352D01*
X20031Y-17505D01*
X19980Y-17607D01*
X19827Y-17760D01*
X19776Y-17862D01*
X19546Y-18143D01*
X19470Y-18220D01*
X19419Y-18322D01*
X19266Y-18475D01*
X19215Y-18577D01*
X18960Y-18832D01*
X18909Y-18934D01*
X18500Y-19342D01*
X18449Y-19444D01*
X18296Y-19546D01*
X18245Y-19649D01*
X17837Y-20057D01*
X17786Y-20159D01*
X17658Y-20287D01*
X17582Y-20312D01*
X17531Y-20414D01*
X17454Y-20491D01*
X17352Y-20542D01*
X16689Y-21205D01*
X16587Y-21256D01*
X16382Y-21460D01*
X16280Y-21511D01*
X16127Y-21665D01*
X16025Y-21715D01*
X15770Y-21971D01*
X15668Y-22022D01*
X15515Y-22175D01*
X15413Y-22226D01*
X15132Y-22456D01*
X14953Y-22583D01*
X14851Y-22685D01*
X14749Y-22736D01*
X14596Y-22889D01*
X14341Y-23042D01*
X14239Y-23144D01*
X13882Y-23349D01*
X13780Y-23451D01*
X13626Y-23502D01*
X13524Y-23604D01*
X13269Y-23757D01*
X13167Y-23859D01*
X12912Y-23961D01*
X12810Y-24012D01*
X12708Y-24114D01*
X11942Y-24522D01*
X11483Y-24778D01*
X11381Y-24880D01*
X11100Y-24956D01*
X10768Y-25135D01*
X10564Y-25186D01*
X10258Y-25390D01*
X10003Y-25441D01*
X9901Y-25543D01*
X9646Y-25645D01*
X9442Y-25696D01*
X9186Y-25849D01*
X8855Y-25926D01*
X8600Y-26028D01*
X8370Y-26105D01*
X8166Y-26156D01*
X7706Y-26360D01*
X7324Y-26436D01*
X7145Y-26513D01*
X6890Y-26615D01*
X6481Y-26666D01*
X6124Y-26819D01*
X5767Y-26870D01*
X5563Y-26921D01*
X5282Y-26998D01*
X4772Y-27100D01*
X4363Y-27151D01*
X4108Y-27202D01*
X3828Y-27278D01*
X3470Y-27329D01*
X2348Y-27380D01*
X-3624Y-27329D01*
X-3777Y-27278D01*
X-4108Y-27202D01*
X-4312Y-27151D01*
X-4772Y-27100D01*
X-5078Y-27049D01*
X-5282Y-26998D01*
X-5716Y-26870D01*
X-6124Y-26819D01*
X-6481Y-26666D01*
X-6839Y-26615D01*
X-7043Y-26564D01*
X-7400Y-26411D01*
X-7808Y-26309D01*
X-8166Y-26156D01*
X-8472Y-26105D01*
X-8931Y-25900D01*
X-9263Y-25773D01*
X-9340Y-25696D01*
X-9671Y-25620D01*
X-9850Y-25543D01*
X-10717Y-25135D01*
X-10870Y-25084D01*
X-11126Y-24931D01*
X-11330Y-24880D01*
X-11687Y-24624D01*
X-11840Y-24574D01*
X-12095Y-24420D01*
X-12759Y-24063D01*
X-12861Y-23961D01*
X-13218Y-23757D01*
X-13780Y-23400D01*
X-13882Y-23349D01*
X-13984Y-23247D01*
X-14315Y-23068D01*
X-14341Y-22991D01*
X-14596Y-22838D01*
X-14749Y-22685D01*
X-15004Y-22532D01*
X-15362Y-22277D01*
X-15464Y-22175D01*
X-15566Y-22124D01*
X-15770Y-21920D01*
X-15872Y-21869D01*
X-16127Y-21613D01*
X-16229Y-21562D01*
X-16382Y-21409D01*
X-16459Y-21384D01*
X-16510Y-21282D01*
X-16816Y-21026D01*
X-17352Y-20491D01*
X-17454Y-20440D01*
X-17531Y-20363D01*
X-17582Y-20261D01*
X-17735Y-20159D01*
X-17786Y-20057D01*
X-18117Y-19725D01*
X-18194Y-19700D01*
X-18245Y-19598D01*
X-18756Y-19087D01*
X-18781Y-19011D01*
X-18883Y-18960D01*
X-19011Y-18781D01*
X-19215Y-18577D01*
X-19266Y-18475D01*
X-19470Y-18271D01*
X-19521Y-18169D01*
X-19725Y-17964D01*
X-19776Y-17862D01*
X-19980Y-17658D01*
X-20031Y-17556D01*
X-20133Y-17454D01*
X-20287Y-17199D01*
X-20899Y-16331D01*
X-21052Y-16076D01*
X-21154Y-15974D01*
X-21767Y-14902D01*
X-21869Y-14800D01*
X-21920Y-14596D01*
X-22175Y-14239D01*
X-22226Y-14035D01*
X-22379Y-13882D01*
X-22456Y-13601D01*
X-22583Y-13422D01*
X-22634Y-13269D01*
X-22736Y-13014D01*
X-22889Y-12657D01*
X-23042Y-12402D01*
X-23247Y-11891D01*
X-23400Y-11534D01*
X-23451Y-11330D01*
X-23604Y-10973D01*
X-23655Y-10768D01*
X-23859Y-10309D01*
X-23936Y-9926D01*
X-24114Y-9595D01*
X-24165Y-9186D01*
X-24318Y-8829D01*
X-24369Y-8472D01*
X-24420Y-8268D01*
X-24574Y-7757D01*
X-24624Y-7553D01*
X-24676Y-7094D01*
X-24778Y-6839D01*
X-24829Y-6481D01*
X-24880Y-5971D01*
X-24931Y-5767D01*
X-25007Y-5384D01*
X-25058Y-4874D01*
X-25109Y-3598D01*
X-25135Y-715D01*
X-25084Y-561D01*
X-25033Y1225D01*
X-24982Y1378D01*
X-24931Y1735D01*
X-24880Y1939D01*
X-24803Y2577D01*
X-24650Y3190D01*
X-24599Y3496D01*
X-24548Y3751D01*
X-24420Y4185D01*
X-24369Y4389D01*
X-24293Y4721D01*
X-24191Y4976D01*
X-24114Y5257D01*
X-24063Y5512D01*
X-23910Y5767D01*
X-23833Y6201D01*
X-23655Y6532D01*
X-23578Y6813D01*
X-23400Y7247D01*
X-23272Y7579D01*
X-23196Y7655D01*
X-23144Y7859D01*
X-22226Y9646D01*
X-21818Y10411D01*
X-21715Y10513D01*
X-21307Y11228D01*
X-21205Y11330D01*
X-21103Y11585D01*
X-20950Y11738D01*
X-20899Y11840D01*
X-20644Y12197D01*
X-20593Y12299D01*
X-20440Y12453D01*
X-20287Y12708D01*
X-20185Y12810D01*
X-20031Y13065D01*
X-19929Y13167D01*
X-19878Y13269D01*
X-19725Y13422D01*
X-19674Y13524D01*
X-19419Y13780D01*
X-19368Y13882D01*
X-19164Y14086D01*
X-19113Y14188D01*
X-18756Y14545D01*
X-18704Y14647D01*
X-18449Y14902D01*
X-18398Y15004D01*
X-18245Y15107D01*
X-18194Y15209D01*
X-18117Y15285D01*
X-18015Y15336D01*
X-17939Y15413D01*
X-17913Y15489D01*
X-17811Y15540D01*
X-17735Y15617D01*
X-17684Y15719D01*
X-17607Y15795D01*
X-17531Y15821D01*
X-17480Y15923D01*
X-17403Y16000D01*
X-17301Y16051D01*
X-16587Y16765D01*
X-16484Y16816D01*
X-16280Y17020D01*
X-16178Y17071D01*
X-15974Y17276D01*
X-15872Y17326D01*
X-15668Y17531D01*
X-15591Y17556D01*
X-15540Y17658D01*
X-15464Y17735D01*
X-15209Y17888D01*
X-15107Y17990D01*
X-15004Y18041D01*
X-14902Y18143D01*
X-14800Y18194D01*
X-14520Y18424D01*
X-14239Y18602D01*
X-13882Y18807D01*
X-13780Y18909D01*
X-13448Y19036D01*
X-13320Y19164D01*
X-12835Y19342D01*
X-12759Y19419D01*
X-12248Y19470D01*
X-10666Y19419D01*
X-10207Y19215D01*
X-9926Y19138D01*
X-9799Y19011D01*
X-9544Y18909D01*
X-9391Y18756D01*
X-9161Y18628D01*
X-9110Y18526D01*
X-8855Y18322D01*
X-8804Y18220D01*
X-8600Y18015D01*
X-8548Y17913D01*
X-8446Y17811D01*
X-8293Y17556D01*
X-8191Y17454D01*
X-8140Y17250D01*
X-7936Y16791D01*
X-7885Y15974D01*
X-7834Y15617D01*
X-7885Y15413D01*
X-7936Y14443D01*
X-8140Y14086D01*
X-8217Y13805D01*
X-8344Y13678D01*
X-8548Y13320D01*
X-8651Y13218D01*
X-8702Y13116D01*
X-8880Y12937D01*
X-8906Y12912D01*
X-9237Y12580D01*
X-9340Y12529D01*
X-9493Y12376D01*
X-9748Y12223D01*
X-9850Y12121D01*
X-9952Y12070D01*
X-10156Y11866D01*
X-10258Y11815D01*
X-10411Y11662D01*
X-10513Y11610D01*
X-11151Y11126D01*
X-11330Y10998D01*
X-11381Y10896D01*
X-11483Y10845D01*
X-11993Y10335D01*
X-12095Y10284D01*
X-12146Y10182D01*
X-12248Y10131D01*
X-12376Y10003D01*
X-12402Y9926D01*
X-12504Y9875D01*
X-12835Y9544D01*
X-12886Y9442D01*
X-13295Y9033D01*
X-13346Y8931D01*
X-13550Y8727D01*
X-13601Y8625D01*
X-13805Y8421D01*
X-13856Y8319D01*
X-14213Y7859D01*
X-14545Y7375D01*
X-14673Y7196D01*
X-14877Y6839D01*
X-14979Y6737D01*
X-15081Y6481D01*
X-15183Y6379D01*
X-15234Y6277D01*
X-15438Y5920D01*
X-16000Y4746D01*
X-16102Y4491D01*
X-16204Y4389D01*
X-16306Y3981D01*
X-16510Y3521D01*
X-16587Y3241D01*
X-16714Y2960D01*
X-16765Y2603D01*
X-16918Y2246D01*
X-16969Y2041D01*
X-17046Y1608D01*
X-17173Y1276D01*
X-17224Y919D01*
X-17276Y408D01*
X-17326Y255D01*
X-17403Y-230D01*
X-17429Y-3726D01*
X-17378Y-3879D01*
X-17326Y-4389D01*
X-17276Y-4593D01*
X-17224Y-5103D01*
X-17148Y-5435D01*
X-17097Y-5639D01*
X-17020Y-5920D01*
X-16944Y-6405D01*
X-16867Y-6583D01*
X-16765Y-6839D01*
X-16689Y-7272D01*
X-16587Y-7528D01*
X-16510Y-7808D01*
X-16382Y-8140D01*
X-16255Y-8421D01*
X-16178Y-8702D01*
X-16051Y-8931D01*
X-16000Y-9135D01*
X-15948Y-9288D01*
X-15795Y-9442D01*
X-15719Y-9722D01*
X-15540Y-10054D01*
X-15336Y-10411D01*
X-15234Y-10666D01*
X-15183Y-10768D01*
X-15081Y-10870D01*
X-14673Y-11585D01*
X-14571Y-11687D01*
X-14469Y-11942D01*
X-14366Y-12044D01*
X-14315Y-12146D01*
X-14086Y-12427D01*
X-13907Y-12708D01*
X-13805Y-12810D01*
X-13652Y-13065D01*
X-13550Y-13167D01*
X-13499Y-13269D01*
X-13244Y-13524D01*
X-13218Y-13601D01*
X-13116Y-13652D01*
X-12989Y-13831D01*
X-12835Y-13984D01*
X-12784Y-14086D01*
X-11789Y-15081D01*
X-11687Y-15132D01*
X-11610Y-15209D01*
X-11559Y-15311D01*
X-11381Y-15438D01*
X-11228Y-15591D01*
X-11126Y-15642D01*
X-10922Y-15846D01*
X-10819Y-15898D01*
X-10666Y-16051D01*
X-10564Y-16102D01*
X-10284Y-16331D01*
X-10105Y-16459D01*
X-10003Y-16561D01*
X-9850Y-16612D01*
X-9697Y-16765D01*
X-9340Y-16969D01*
X-8982Y-17224D01*
X-8625Y-17429D01*
X-7655Y-17939D01*
X-6890Y-18296D01*
X-6686Y-18347D01*
X-6583Y-18449D01*
X-6175Y-18551D01*
X-6073Y-18653D01*
X-5665Y-18756D01*
X-5384Y-18832D01*
X-5155Y-18960D01*
X-4695Y-19062D01*
X-4440Y-19164D01*
X-4236Y-19215D01*
X-3573Y-19317D01*
X-3317Y-19419D01*
X-3113Y-19470D01*
X-2169Y-19546D01*
X-1761Y-19649D01*
X-842Y-19700D01*
X1021Y-19725D01*
X1174Y-19674D01*
X1990Y-19623D01*
X2144Y-19572D01*
X2348Y-19521D01*
X3292Y-19444D01*
X3879Y-19266D01*
X4363Y-19189D01*
X4695Y-19062D01*
X4899Y-19011D01*
X5231Y-18934D01*
X5665Y-18756D01*
X5971Y-18704D01*
X6431Y-18500D01*
X6635Y-18449D01*
X6890Y-18296D01*
X7094Y-18245D01*
X7400Y-18041D01*
X7681Y-17964D01*
X7808Y-17837D01*
X8140Y-17709D01*
X8472Y-17531D01*
X8574Y-17480D01*
X8676Y-17378D01*
X9135Y-17122D01*
X9493Y-16867D01*
X9850Y-16663D01*
X9952Y-16561D01*
X10054Y-16510D01*
X10156Y-16408D01*
X10258Y-16357D01*
X10539Y-16127D01*
X10717Y-16000D01*
X10819Y-15898D01*
X10922Y-15846D01*
X11202Y-15617D01*
X11483Y-15336D01*
X11585Y-15285D01*
X11662Y-15209D01*
X11713Y-15107D01*
X11891Y-14979D01*
X12044Y-14826D01*
X12146Y-14775D01*
X12248Y-14622D01*
X12350Y-14571D01*
X12478Y-14392D01*
X12886Y-13984D01*
X12937Y-13882D01*
X13397Y-13422D01*
X13448Y-13320D01*
X13550Y-13269D01*
X13601Y-13167D01*
X14086Y-12529D01*
X14213Y-12350D01*
X14315Y-12248D01*
X14469Y-11993D01*
X14673Y-11636D01*
X14826Y-11483D01*
X14928Y-11228D01*
X15030Y-11126D01*
X15234Y-10768D01*
X15336Y-10513D01*
X15387Y-10411D01*
X15489Y-10309D01*
X15642Y-9901D01*
X15744Y-9799D01*
X15898Y-9391D01*
X16000Y-9288D01*
X16051Y-9084D01*
X16178Y-8753D01*
X16306Y-8472D01*
X16357Y-8217D01*
X16561Y-7757D01*
X16637Y-7477D01*
X16765Y-7043D01*
X16893Y-6507D01*
X16969Y-6431D01*
X17071Y-5716D01*
X17224Y-5155D01*
X17276Y-4797D01*
X17352Y-4159D01*
X17403Y-3598D01*
X17454Y-3343D01*
X17480Y-612D01*
X17429Y-459D01*
X17378Y51D01*
X17326Y408D01*
X17276Y612D01*
X17224Y1225D01*
X17071Y1582D01*
X17020Y1939D01*
X16969Y2246D01*
X16816Y2603D01*
X16765Y2807D01*
X16689Y3088D01*
X16561Y3419D01*
X16484Y3700D01*
X16306Y4134D01*
X16255Y4338D01*
X16102Y4491D01*
X16025Y4823D01*
X15438Y5920D01*
X15183Y6379D01*
X14775Y7094D01*
X14571Y7298D01*
X14315Y7757D01*
X14111Y7961D01*
X13958Y8217D01*
X13856Y8319D01*
X13805Y8421D01*
X13652Y8574D01*
X13601Y8676D01*
X13397Y8880D01*
X13346Y8982D01*
X13091Y9237D01*
X13039Y9340D01*
X12937Y9391D01*
X12886Y9493D01*
X11534Y10845D01*
X11432Y10896D01*
X11177Y11151D01*
X11075Y11202D01*
X10922Y11355D01*
X10819Y11406D01*
X10666Y11559D01*
X10564Y11610D01*
X10284Y11840D01*
X10207Y11917D01*
X10131Y11942D01*
X10105Y12019D01*
X10003Y12070D01*
X9722Y12299D01*
X9544Y12427D01*
X9391Y12580D01*
X9288Y12631D01*
X9084Y12835D01*
X8982Y12886D01*
X8855Y13065D01*
X8497Y13422D01*
X8293Y13780D01*
X8191Y14035D01*
X8140Y14137D01*
X7987Y14494D01*
X7936Y15464D01*
X7885Y15974D01*
X7936Y16127D01*
X7987Y16944D01*
X8191Y17250D01*
X8293Y17505D01*
X8446Y17658D01*
X8651Y18015D01*
X8753Y18117D01*
X8804Y18220D01*
X8906Y18271D01*
X8957Y18373D01*
X9084Y18500D01*
X9186Y18551D01*
X9288Y18704D01*
X9544Y18857D01*
X9646Y18960D01*
X9799Y19011D01*
X10105Y19215D01*
X10437Y19291D01*
X10717Y19419D01*
X11228Y19470D01*
X12759Y19419D01*
D02*
G37*
G36*
X349Y-118477D02*
X629Y-118512D01*
X804Y-118582D01*
X1048Y-118652D01*
X1293Y-118792D01*
X1730Y-119089D01*
X1835Y-119193D01*
X1870Y-119263D01*
X2079Y-119473D01*
X2184Y-119648D01*
X2289Y-119892D01*
X2429Y-120207D01*
X2499Y-120451D01*
X2533Y-120696D01*
X2551Y-127073D01*
X2533Y-127335D01*
X2656Y-127493D01*
X3215Y-127458D01*
X8631D01*
X9540Y-127493D01*
X9889Y-127632D01*
X10221Y-127755D01*
X10588Y-128017D01*
X10763Y-128122D01*
X10850Y-128209D01*
X10885Y-128279D01*
X11060Y-128454D01*
X11095Y-128524D01*
X11269Y-128768D01*
X11304Y-128908D01*
X11444Y-129222D01*
X11496Y-129449D01*
X11531Y-129659D01*
X11549Y-130236D01*
X11514Y-130341D01*
X11427Y-130708D01*
X11374Y-130760D01*
X11252Y-131092D01*
X11130Y-131284D01*
X10990Y-131424D01*
X10955Y-131494D01*
X10885Y-131564D01*
X10850Y-131633D01*
X10798Y-131686D01*
X10728Y-131721D01*
X10518Y-131930D01*
X10448Y-131965D01*
X9924Y-132210D01*
X9610Y-132350D01*
X2621Y-132385D01*
X2533Y-132472D01*
X2499Y-139426D01*
X2464Y-139531D01*
X2429Y-139671D01*
X2289Y-139985D01*
X2079Y-140369D01*
X1904Y-140544D01*
X1870Y-140614D01*
X1712Y-140771D01*
X1642Y-140806D01*
X1433Y-141016D01*
X1083Y-141156D01*
X769Y-141296D01*
X524Y-141365D01*
X280Y-141400D01*
X-419Y-141365D01*
X-594Y-141296D01*
X-978Y-141121D01*
X-1206Y-141033D01*
X-1258Y-140981D01*
X-1328Y-140946D01*
X-1380Y-140894D01*
X-1415Y-140824D01*
X-1468Y-140771D01*
X-1642Y-140666D01*
X-1730Y-140579D01*
X-1817Y-140422D01*
X-1887Y-140387D01*
X-1939Y-140334D01*
X-1974Y-140265D01*
X-2114Y-139950D01*
X-2289Y-139566D01*
X-2341Y-139234D01*
X-2376Y-132455D01*
X-2446Y-132385D01*
X-2691Y-132350D01*
X-9540Y-132315D01*
X-10134Y-132035D01*
X-10308Y-131930D01*
X-10431Y-131843D01*
X-10466Y-131773D01*
X-10518Y-131721D01*
X-10693Y-131616D01*
X-10780Y-131529D01*
X-10885Y-131354D01*
X-10990Y-131249D01*
X-11165Y-130865D01*
X-11252Y-130638D01*
X-11339Y-130341D01*
X-11374Y-130096D01*
X-11339Y-129467D01*
X-11269Y-129292D01*
X-11182Y-129065D01*
X-11130Y-128908D01*
X-11060Y-128733D01*
X-10990Y-128663D01*
X-10955Y-128593D01*
X-10710Y-128279D01*
X-10623Y-128157D01*
X-10553Y-128122D01*
X-10448Y-128017D01*
X-10378Y-127982D01*
X-10029Y-127737D01*
X-9889Y-127702D01*
X-9435Y-127528D01*
X-9190Y-127493D01*
X-8841Y-127458D01*
X-2411Y-127423D01*
X-2359Y-127370D01*
X-2324Y-120451D01*
X-2254Y-120277D01*
X-2219Y-120137D01*
X-2114Y-119892D01*
X-2027Y-119665D01*
X-1904Y-119543D01*
X-1870Y-119473D01*
X-1800Y-119403D01*
X-1765Y-119333D01*
X-1607Y-119141D01*
X-1503Y-119036D01*
X-1433Y-119001D01*
X-1101Y-118774D01*
X-1048Y-118722D01*
X-402Y-118495D01*
X-87Y-118460D01*
X245Y-118442D01*
X349Y-118477D01*
D02*
G37*
D12*
X7874Y-366142D02*
G03*
X7874Y-366142I-7874J0D01*
G01*
Y-228346D02*
G03*
X7874Y-228346I-7874J0D01*
G01*
D13*
X2953Y70866D02*
D03*
X-2953D02*
D03*
D14*
X90853Y-16412D02*
D03*
X89462Y-22958D02*
D03*
X88281Y23352D02*
D03*
X89672Y16805D02*
D03*
X0Y-366142D02*
D03*
Y-228346D02*
D03*
D15*
X11378Y74409D02*
D03*
X-11378D02*
D03*
D16*
X-44094Y-21260D02*
D03*
X-39370D02*
D03*
D17*
X-68898Y0D02*
D03*
X68898D02*
D03*
D18*
X56890Y-51378D02*
D03*
Y-46260D02*
D03*
X51772Y-51378D02*
D03*
Y-46260D02*
D03*
X46654Y-51378D02*
D03*
Y-46260D02*
D03*
X41535Y-51378D02*
D03*
Y-46260D02*
D03*
X13386Y-49803D02*
D03*
Y-44685D02*
D03*
X8268Y-49803D02*
D03*
Y-44685D02*
D03*
X3150Y-49803D02*
D03*
Y-44685D02*
D03*
X-1969Y-49803D02*
D03*
Y-44685D02*
D03*
M02*
