M48
;Layer_Color=9474304
;FILE_FORMAT=2:5
INCH,TZ
;TYPE=PLATED
T1F00S00C0.01181
T2F00S00C0.01201
T3F00S00C0.01968
T4F00S00C0.02756
T5F00S00C0.12205
T6F00S00C0.16614
;TYPE=NON_PLATED
T7F00S00C0.02756
%
T01
X26772Y-373228
X-24409
X-19291Y-306299
X-18110Y-244488
Y-166535
X15354Y-107087
X26772
X28740Y-86221
Y-83071
X23622Y-71653
X19685
X12205Y-74410
X9449Y-90158
Y-93307
X40945Y-71260
X51181Y-70866
X64567Y-61811
X68504Y-61417
X86614Y-36220
X79134Y-12205
X87795Y-5118
X87402Y1575
X73622Y21260
X57874Y-14173
X35827Y-46850
X-1969Y-64173
X-3543Y-69685
X-6693
X3150Y-74410
X-394Y-83465
Y-86614
Y-90158
X3170Y-90191
X6299Y-90158
X1575Y-93307
X-1181Y-96850
X-19685Y-81496
Y-77559
X-24803Y-109843
X-29921Y-129921
X-55905Y-75984
X-63386Y-68898
Y-65748
X-58661Y-61417
X-60617Y-53554
X-64173Y-53543
Y-49606
X-60630
X-80709Y-45276
X-79134Y-22835
X-75984
X-62205Y-20472
X-49606Y-36220
X-46457
X-43701
X-41339Y-34252
Y-31102
X-34646Y-27559
X-25984Y-25591
X-19685Y-31496
X-12992Y-34252
X-33071Y-16929
X-37795Y1969
X-42520Y6299
X-35433Y10236
X-34252Y15748
X-37008Y18504
X-32677Y23622
X-42520Y22835
X-60236Y19291
X-64173Y14173
X-73622
X-75984Y22441
X-81890
X-85827Y22047
X-85433Y17717
X-92520Y22047
X-94882Y3150
X-91732Y-17323
X-65748Y27559
X-63386Y29921
X-61417Y32677
X-59449Y35039
X-57087Y37795
X-55118Y40157
X-52756Y42126
X-50787Y44882
X-48425Y47638
X-46063Y50394
X-44094Y52756
X-41732Y55512
X-39370Y57874
X-37402Y60630
X-34252Y69685
Y73228
X-31304Y72938
X-34252Y79134
X-27953Y79528
X-34252Y86221
X-25591Y91732
X-24803Y69685
X-22047Y66535
X-25984Y62205
X-27165Y54331
X-13386Y53150
X-5906Y51575
X-2756Y58268
X-7874Y61024
X-15354Y63386
Y70079
X-3937Y81102
X-787
X787Y94488
X2756Y53937
X5118Y50000
X-20472Y31890
X-24016Y33858
X-29134Y38189
X-33071Y32283
X-28346Y28346
X-37402Y27559
X11024Y43701
X9055Y47638
X22441Y53543
X26772Y63386
X15354Y70472
X30709Y79528
X40157Y85433
X52362Y77953
X57480Y70079
X54724Y65861
X65354Y68110
X73622Y57480
X79528Y49606
X86614Y37008
X81102Y28740
X70472Y28346
X48819Y29134
Y25591
Y33071
Y36614
X40945Y48425
X27165Y39845
X27165Y37008
X27165Y33858
X24409Y35039
X25197Y91339
T02
X13386Y-49803
Y-44685
X16142Y-38976
X18898Y-37402
X20472Y-50000
X24016
X41535Y-51378
X46654
X51772
X56890
Y-46260
X51772
X46654
X41535
X60236Y-39764
Y-36614
Y-33071
Y-29528
X56693Y-33071
X64327Y-39486
X68657
X8268Y-44685
Y-49803
X3150
X-1969
Y-44685
X3150
T03
X-44094Y-21260
X-39370
T04
X-11378Y74409
X11378
T05
X0Y-366142
Y-228346
T06
X68898Y0
X-68898
T07
X89462Y-22958
X90853Y-16412
X89672Y16805
X88281Y23352
M30
